<svg width="24" height="24" viewBox="0 0 24 24" fill="none" xmlns="http://www.w3.org/2000/svg">
<g clip-path="url(#clip0_2806_6434)">
<path d="M16.981 0H7.01875C5.60622 0 4.45703 1.14942 4.45703 2.56219V3.46017V20.416V21.4379C4.45703 22.8506 5.60622 24 7.01875 24H16.981C18.3935 24 19.5427 22.8506 19.5427 21.4379V20.416V3.46017V2.56219C19.5427 1.14942 18.3935 0 16.981 0ZM18.5631 21.4378C18.5631 22.3105 17.8534 23.0204 16.981 23.0204H7.01875C6.14631 23.0204 5.43663 22.3105 5.43663 21.4378V20.9058H18.5632V21.4378H18.5631ZM18.5631 19.9262H5.43663V3.94997H18.5632V19.9262H18.5631ZM18.5631 2.97038H5.43663V2.56219C5.43663 1.68956 6.14636 0.979594 7.01875 0.979594H16.981C17.8534 0.979594 18.5631 1.68956 18.5631 2.56219V2.97038Z" fill="#0094DA"/>
<path d="M12.0005 21.0039C11.4714 21.0039 11.041 21.4344 11.041 21.9635C11.041 22.4927 11.4714 22.9232 12.0005 22.9232C12.5296 22.9232 12.96 22.4927 12.96 21.9635C12.96 21.4344 12.5296 21.0039 12.0005 21.0039ZM12.0005 21.9835C11.9894 21.9835 11.9804 21.9745 11.9804 21.9635C11.9804 21.9526 11.9894 21.9436 12.0005 21.9436C12.0116 21.9436 12.0206 21.9526 12.0206 21.9635C12.0206 21.9745 12.0116 21.9835 12.0005 21.9835Z" fill="#0094DA"/>
<path d="M12.767 7.16746C12.5014 7.11538 12.2442 7.28835 12.1921 7.5538L10.6772 15.274C10.6251 15.5395 10.7981 15.7969 11.0635 15.8489C11.0953 15.8552 11.1271 15.8582 11.1584 15.8582C11.3878 15.8582 11.5926 15.6961 11.6385 15.4626L13.1533 7.74229C13.2054 7.47693 13.0325 7.21954 12.767 7.16746Z" fill="#0094DA"/>
<path d="M16.5974 11.519C16.597 11.511 16.597 11.5029 16.5962 11.4949C16.5954 11.4873 16.594 11.4798 16.593 11.4723C16.5918 11.4643 16.591 11.4562 16.5895 11.4483C16.588 11.4406 16.5858 11.433 16.5839 11.4253C16.582 11.4176 16.5805 11.4099 16.5783 11.4024C16.576 11.3948 16.573 11.3874 16.5705 11.3799C16.5679 11.3724 16.5656 11.3649 16.5626 11.3575C16.5599 11.3507 16.5564 11.3443 16.5534 11.3376C16.5498 11.3297 16.5465 11.3217 16.5425 11.3139C16.5395 11.3084 16.536 11.303 16.5328 11.2975C16.5279 11.2891 16.5232 11.2804 16.5178 11.2722C16.5147 11.2676 16.5111 11.2633 16.5079 11.2588C16.5016 11.25 16.4955 11.2411 16.4886 11.2326C16.4858 11.2292 16.4825 11.2261 16.4797 11.2227C16.4718 11.2135 16.464 11.2043 16.4553 11.1957L14.184 8.92196C13.9928 8.73061 13.6827 8.73038 13.4913 8.92163C13.2999 9.11279 13.2998 9.42296 13.4909 9.6143L15.4164 11.5418L13.525 13.4353C13.3339 13.6266 13.334 13.9368 13.5254 14.128C13.621 14.2235 13.7463 14.2712 13.8715 14.2712C13.9969 14.2712 14.1224 14.2233 14.218 14.1276L16.4552 11.888C16.4639 11.8793 16.4717 11.8701 16.4796 11.861C16.4825 11.8576 16.4858 11.8545 16.4886 11.851C16.4955 11.8426 16.5016 11.8336 16.5079 11.8248C16.5111 11.8203 16.5147 11.816 16.5177 11.8114C16.5232 11.8032 16.5278 11.7946 16.5327 11.7861C16.5359 11.7806 16.5395 11.7753 16.5424 11.7697C16.5465 11.762 16.5498 11.754 16.5534 11.746C16.5564 11.7394 16.5599 11.7329 16.5626 11.7262C16.5656 11.7188 16.5678 11.7112 16.5704 11.7037C16.573 11.6962 16.576 11.6888 16.5782 11.6813C16.5805 11.6737 16.5819 11.666 16.5838 11.6584C16.5857 11.6507 16.5879 11.6431 16.5894 11.6354C16.5909 11.6274 16.5918 11.6193 16.5929 11.6114C16.594 11.6038 16.5954 11.5964 16.5961 11.5888C16.5969 11.5808 16.5969 11.5727 16.5973 11.5647C16.5976 11.557 16.5984 11.5494 16.5984 11.5418C16.5984 11.5342 16.5977 11.5266 16.5974 11.519Z" fill="#0094DA"/>
<path d="M10.3185 13.4353L8.39308 11.5077L10.2844 9.61428C10.4756 9.42289 10.4754 9.11277 10.2841 8.92161C10.0927 8.73041 9.78259 8.7306 9.59134 8.92194L7.35419 11.1615C7.3458 11.1699 7.33825 11.1788 7.33061 11.1876C7.32742 11.1913 7.32391 11.1947 7.32081 11.1985C7.31444 11.2063 7.30886 11.2145 7.30305 11.2227C7.29934 11.2279 7.29517 11.2328 7.2917 11.2381C7.28692 11.2454 7.28284 11.253 7.27848 11.2605C7.27464 11.267 7.27052 11.2733 7.267 11.2799C7.26353 11.2865 7.26077 11.2933 7.25763 11.3C7.25402 11.3078 7.25003 11.3154 7.2468 11.3233C7.24427 11.3296 7.24244 11.336 7.24019 11.3422C7.23709 11.3509 7.23372 11.3594 7.23114 11.3682C7.22912 11.3749 7.22786 11.3817 7.22617 11.3885C7.22402 11.397 7.22158 11.4055 7.21989 11.4141C7.21844 11.4216 7.21773 11.4292 7.21661 11.4367C7.21544 11.4448 7.21394 11.4527 7.21314 11.4607C7.21239 11.4686 7.21234 11.4765 7.21202 11.4845C7.21169 11.4922 7.21094 11.4999 7.21094 11.5077C7.21094 11.5155 7.21169 11.5232 7.21202 11.531C7.21239 11.5388 7.21239 11.5468 7.21314 11.5547C7.21389 11.5625 7.21539 11.5704 7.21652 11.5783C7.21764 11.586 7.21839 11.5937 7.21984 11.6013C7.22139 11.6094 7.22378 11.6175 7.22575 11.6256C7.22753 11.6328 7.22894 11.64 7.23105 11.6472C7.23339 11.6552 7.23653 11.663 7.23934 11.6709C7.24183 11.678 7.24394 11.6851 7.24675 11.692C7.24966 11.699 7.25322 11.7059 7.25645 11.7129C7.25992 11.7204 7.26306 11.7281 7.267 11.7355C7.27009 11.7413 7.2738 11.7469 7.27708 11.7526C7.28181 11.7609 7.28636 11.7692 7.29166 11.7773C7.2947 11.7819 7.29831 11.7862 7.3015 11.7907C7.30778 11.7995 7.31387 11.8084 7.32081 11.8169C7.32362 11.8203 7.32691 11.8235 7.32977 11.8268C7.33764 11.836 7.34547 11.8452 7.35414 11.8538L9.62542 14.1275C9.72109 14.2233 9.84653 14.2712 9.97197 14.2712C10.0973 14.2712 10.2225 14.2235 10.3181 14.128C10.5095 13.9368 10.5096 13.6267 10.3185 13.4353Z" fill="#0094DA"/>
</g>
<defs>
<clipPath id="clip0_2806_6434">
<rect width="24" height="24" fill="white"/>
</clipPath>
</defs>
</svg>
