<svg width="120" height="60" viewBox="0 0 120 60" fill="none" xmlns="http://www.w3.org/2000/svg">
<path d="M70.456 3.45996H49.0609C46.241 3.45996 43.9551 5.74592 43.9551 8.5658V30.0918C43.9551 32.9116 46.241 35.1976 49.0609 35.1976H70.456C73.2759 35.1976 75.5618 32.9116 75.5618 30.0918V8.5658C75.5618 5.74592 73.2759 3.45996 70.456 3.45996Z" fill="url(#paint0_linear_1065_2135)"/>
<path d="M59.9973 17.1233C60.8046 17.1233 61.4164 16.9505 61.8334 16.5967C62.2505 16.2429 62.4588 15.7276 62.4588 15.0429C62.4588 14.3669 62.2505 13.8534 61.8334 13.5023C61.4137 13.1423 60.8044 12.9623 59.9973 12.9623H57.1629V17.1235L59.9973 17.1233ZM60.1701 25.7222C61.1989 25.7222 61.9707 25.5074 62.4853 25.0771C63.0087 24.647 63.2704 23.9974 63.2704 23.1283C63.2704 22.2765 63.0131 21.6403 62.4986 21.2191C61.984 20.789 61.2081 20.5739 60.1703 20.5739H57.1631V25.7227H60.1703M64.9337 18.6516C66.0337 18.9676 66.8852 19.5515 67.4884 20.4028C68.0915 21.2541 68.393 22.299 68.3932 23.5369C68.3932 25.4331 67.7456 26.8466 66.4507 27.7771C65.1557 28.7077 63.1867 29.1729 60.5432 29.1729H52.041V9.5127H59.7319C62.4904 9.5127 64.4864 9.92501 65.7191 10.7504C66.961 11.5755 67.5819 12.8969 67.5819 14.7141C67.5819 15.6711 67.3558 16.4873 66.9035 17.1633C66.4512 17.8304 65.7924 18.3237 64.9342 18.6513" fill="white"/>
<path d="M15.4273 45.7596V51.0996H18.5913C19.6513 51.0996 20.4373 50.8816 20.9453 50.4456C21.4593 50.0026 21.7153 49.3286 21.7153 48.4256C21.7153 47.5256 21.4583 46.8437 20.9453 46.4137C20.4373 45.9777 19.6533 45.7596 18.5913 45.7596H15.4273ZM15.4273 39.7636V44.1586H18.3473C19.3113 44.1586 20.0273 43.9787 20.4953 43.6217C20.9703 43.2567 21.2083 42.7037 21.2083 41.9617C21.2083 41.2257 20.9703 40.6756 20.4953 40.3116C20.0203 39.9476 19.3103 39.7646 18.3473 39.7646L15.4273 39.7636ZM13.4543 38.1446H18.4943C19.9983 38.1446 21.1573 38.4576 21.9713 39.0826C22.7853 39.7076 23.1913 40.5966 23.1913 41.7486C23.1913 42.6406 22.9833 43.3507 22.5663 43.8787C22.1493 44.4067 21.5363 44.7347 20.7303 44.8647C21.7003 45.0727 22.4523 45.5097 22.9863 46.1646C23.5263 46.8226 23.7863 47.6446 23.7863 48.6346C23.7863 49.9366 23.3433 50.9426 22.4583 51.6526C21.5733 52.3626 20.3133 52.7166 18.6783 52.7166H13.4443V38.1396" fill="#230F3D"/>
<path d="M31.2253 43.0435C30.7804 43.0286 30.3388 43.1242 29.94 43.322C29.5412 43.5197 29.1977 43.8133 28.9403 44.1765C28.3803 44.9265 28.1003 45.9535 28.1003 47.2625C28.1003 48.5715 28.3773 49.6025 28.9303 50.3585C29.4903 51.1085 30.2553 51.4815 31.2253 51.4815C31.6686 51.4957 32.1086 51.3996 32.5056 51.2018C32.9027 51.0041 33.2444 50.7109 33.5003 50.3485C34.0603 49.5935 34.3403 48.5645 34.3403 47.2625C34.3403 45.9665 34.0603 44.9425 33.5003 44.1865C32.9403 43.4245 32.1823 43.0435 31.2253 43.0435ZM31.2253 41.5205C32.7873 41.5205 34.0253 42.0285 34.9073 43.0435C35.7893 44.0585 36.2453 45.4655 36.2453 47.2635C36.2453 49.0615 35.7993 50.4605 34.9073 51.4835C34.0153 52.4995 32.7873 53.0065 31.2253 53.0065C29.6553 53.0065 28.4253 52.4985 27.5253 51.4835C26.6403 50.4615 26.1973 49.0555 26.1973 47.2635C26.1973 45.4665 26.6403 44.0605 27.5253 43.0435C28.4173 42.0275 29.6473 41.5205 31.2253 41.5205Z" fill="#230F3D"/>
<path d="M43.3522 43.0435C42.9073 43.0286 42.4657 43.1242 42.0669 43.322C41.6681 43.5197 41.3246 43.8133 41.0672 44.1765C40.5072 44.9265 40.2272 45.9535 40.2272 47.2625C40.2272 48.5715 40.5042 49.6025 41.0572 50.3585C41.6172 51.1085 42.3822 51.4815 43.3522 51.4815C43.7956 51.4957 44.2355 51.3996 44.6326 51.2018C45.0296 51.0041 45.3714 50.7109 45.6272 50.3485C46.1872 49.5935 46.4672 48.5645 46.4672 47.2625C46.4672 45.9665 46.1872 44.9425 45.6272 44.1865C45.0672 43.4245 44.3092 43.0435 43.3522 43.0435ZM43.3522 41.5205C44.9142 41.5205 46.1522 42.0285 47.0342 43.0435C47.9162 44.0585 48.3722 45.4655 48.3722 47.2635C48.3722 49.0615 47.9262 50.4605 47.0342 51.4835C46.1422 52.4995 44.9142 53.0065 43.3522 53.0065C41.7822 53.0065 40.5522 52.4985 39.6522 51.4835C38.7672 50.4615 38.3242 49.0555 38.3242 47.2635C38.3242 45.4665 38.7672 44.0605 39.6522 43.0435C40.5442 42.0275 41.7742 41.5205 43.3522 41.5205Z" fill="#230F3D"/>
<path d="M53.0178 38.6778V41.7828H56.7178V43.1788H53.0178V49.1168C53.0178 50.0088 53.1378 50.5818 53.3778 50.8368C53.6248 51.0908 54.1228 51.2168 54.8718 51.2168H56.7178V52.7208H54.8708C53.4838 52.7208 52.5268 52.4638 52.0008 51.9508C51.4738 51.4308 51.2008 50.4858 51.2008 49.1188V43.1788H49.8828V41.7828H51.2008V38.6798H53.0078M65.9538 42.1068V43.8068C65.452 43.5485 64.9208 43.3518 64.3718 43.2208C63.8248 43.0908 63.2588 43.0258 62.6718 43.0258C61.7798 43.0258 61.1088 43.1628 60.6598 43.4258C60.2168 43.6988 59.9958 44.1098 59.9958 44.6558C59.9958 45.0728 60.1558 45.4008 60.4758 45.6418C60.7958 45.8758 61.4358 46.1018 62.3998 46.3158L63.0148 46.4528C64.2908 46.7258 65.1948 47.1128 65.7298 47.6148C66.2698 48.1098 66.5298 48.8028 66.5298 49.6948C66.5442 50.1646 66.4422 50.6307 66.2328 51.0515C66.0234 51.4723 65.7132 51.8349 65.3298 52.1068C64.5298 52.6988 63.4258 53.0068 62.0298 53.0068C61.4438 53.0068 60.8318 52.9468 60.1938 52.8308C59.5618 52.7308 58.8938 52.5508 58.1918 52.3228V50.4678C58.8558 50.8128 59.5098 51.0728 60.1548 51.2478C60.7792 51.4144 61.4225 51.4998 62.0688 51.5018C62.9148 51.5018 63.5658 51.3588 64.0218 51.0718C64.4778 50.7788 64.7058 50.3688 64.7058 49.8418C64.7058 49.3538 64.5398 48.9788 64.2078 48.7188C63.8818 48.4588 63.1628 48.2188 62.0498 47.9668L61.4248 47.8208C60.3118 47.5868 59.5078 47.2288 59.0128 46.7468C58.5178 46.2588 58.2708 45.5908 58.2708 44.7448C58.2708 43.7148 58.6358 42.9218 59.3648 42.3618C60.0938 41.8018 61.1288 41.5218 62.4698 41.5218C63.0978 41.5187 63.7249 41.5676 64.3448 41.6678C64.8991 41.7567 65.4424 41.9038 65.9658 42.1068M71.0988 38.6768V41.7818H74.7988V43.1778H71.0988V49.1158C71.0988 50.0078 71.2188 50.5808 71.4588 50.8358C71.7058 51.0898 72.2038 51.2158 72.9528 51.2158H74.8008V52.7198H72.9548C71.5678 52.7198 70.6108 52.4628 70.0848 51.9498C69.5578 51.4298 69.2848 50.4848 69.2848 49.1178V43.1778H67.9668V41.7818H69.2848V38.6798H71.1008M83.4008 43.4648C83.1942 43.3457 82.9701 43.26 82.7368 43.2108C82.4815 43.149 82.2195 43.1195 81.9568 43.1228C80.9408 43.1228 80.1598 43.4548 79.6128 44.1188C79.0728 44.7768 78.8128 45.7238 78.8128 46.9608V52.7228H77.0058V41.7828H78.8128V43.4828C79.1908 42.8188 79.6828 42.3268 80.2878 42.0078C80.8928 41.6818 81.6278 41.5198 82.4948 41.5198C82.632 41.5206 82.7689 41.5303 82.9048 41.5488L83.4028 41.6168L83.4128 43.4628M90.1868 47.2228C88.7348 47.2228 87.7288 47.3888 87.1688 47.7208C86.6088 48.0528 86.3288 48.6188 86.3288 49.4208C86.3288 50.0588 86.5368 50.5668 86.9538 50.9438C87.3768 51.3138 87.9498 51.5008 88.6738 51.5008C89.6698 51.5008 90.4678 51.1488 91.0668 50.4458C91.6718 49.7458 91.9748 48.7958 91.9748 47.6238V47.2238H90.1878M93.7718 46.4818V52.7218H91.9748V51.0618C91.5748 51.7258 91.0548 52.2178 90.4418 52.5368C89.8298 52.8488 89.0818 53.0068 88.1958 53.0068C87.0758 53.0068 86.1838 52.6948 85.5198 52.0698C84.8618 51.4378 84.5338 50.5948 84.5338 49.5398C84.5338 48.3098 84.9338 47.3818 85.7638 46.7568C86.5938 46.1318 87.8208 45.8198 89.4638 45.8198H91.9838V45.6438C91.9838 44.8168 91.7108 44.1788 91.1638 43.7298C90.6238 43.2738 89.8618 43.0458 88.8788 43.0458C88.2538 43.0458 87.6448 43.1208 87.0528 43.2708C86.4568 43.4219 85.8825 43.6484 85.3438 43.9448V42.2848C86.0018 42.0308 86.6398 41.8418 87.2578 41.7188C87.8518 41.5913 88.4574 41.5259 89.0648 41.5238C90.6468 41.5238 91.8288 41.9238 92.6098 42.7538C93.3908 43.5838 93.7818 44.8178 93.7818 46.4838M99.1318 51.0798V56.8798H97.3248V41.7838H99.1318V43.4438C99.5098 42.7938 99.9848 42.3108 100.558 41.9988C101.138 41.6788 101.828 41.5188 102.628 41.5188C103.254 41.5044 103.874 41.6406 104.437 41.9159C104.999 42.1912 105.487 42.5975 105.86 43.1008C106.693 44.1558 107.11 45.5408 107.11 47.2608C107.11 48.9808 106.693 50.3658 105.86 51.4208C105.487 51.924 104.999 52.3304 104.437 52.6057C103.874 52.881 103.254 53.0171 102.628 53.0028C101.828 53.0028 101.128 52.8468 100.558 52.5328C99.9848 52.2128 99.5098 51.7288 99.1318 51.0778M105.245 47.2598C105.245 45.9378 104.972 44.9028 104.425 44.1548C103.885 43.3998 103.139 43.0218 102.189 43.0218C101.749 43.007 101.313 43.1031 100.921 43.3011C100.528 43.4991 100.192 43.7926 99.9428 44.1548C99.4028 44.9048 99.1428 45.9388 99.1428 47.2598C99.1428 48.5808 99.4128 49.6198 99.9428 50.3748C100.49 51.1248 101.239 51.4978 102.189 51.4978C103.139 51.4978 103.885 51.1238 104.425 50.3748C104.972 49.6198 105.245 48.5808 105.245 47.2598Z" fill="#230F3D"/>
<defs>
<linearGradient id="paint0_linear_1065_2135" x1="45.7784" y1="33.5518" x2="73.6168" y2="5.22725" gradientUnits="userSpaceOnUse">
<stop stop-color="#070135"/>
<stop offset="1" stop-color="#612D50"/>
</linearGradient>
</defs>
</svg>
