<svg width="72" height="82" viewBox="0 0 72 82" fill="none" xmlns="http://www.w3.org/2000/svg">
<g clipPath="url(#clip0_2325_4336)">
<path d="M14.5606 60.7924C15.1887 60.4921 15.9383 60.7523 16.2355 61.3729C16.5327 61.9935 16.276 62.7343 15.6479 63.0279C14.5471 63.5551 13.3044 63.7219 11.9132 63.5817C11.1635 63.5017 10.3666 63.3348 9.53594 63.0813C9.5697 63.4016 9.60347 63.7152 9.64399 64.0355C9.76556 64.9297 9.92764 65.8506 10.137 66.7915C10.2113 67.1185 10.1438 67.4455 9.98167 67.7124C9.2793 69.1205 8.92136 70.295 8.85382 71.2692C8.78629 72.2836 9.06319 73.0443 9.60347 73.5915C10.2045 74.1921 11.15 74.5925 12.3454 74.8194C14.2499 75.1731 16.6947 75.0663 19.3489 74.5925C21.8815 74.1454 24.7315 73.418 27.3519 72.417C29.4793 71.6029 31.4513 70.6019 32.9574 69.4141C34.4297 68.253 35.105 66.3511 35.6791 64.7229C35.8006 64.3825 35.9155 64.0622 35.9695 63.9221L36.1383 63.4683C36.861 61.5064 38.1171 58.0964 39.7447 56.8552C40.2918 56.4348 41.0819 56.5349 41.5074 57.0821C41.9329 57.6226 41.8316 58.4034 41.2778 58.8238C40.2242 59.6246 39.1302 62.6008 38.4953 64.3225C38.367 64.6761 38.394 64.6094 38.3265 64.7829C38.1914 65.1433 38.1171 65.3435 38.0496 65.5437C37.3607 67.4856 36.557 69.7544 34.5175 71.3627C32.8088 72.7107 30.6139 73.8317 28.2569 74.7326C27.7233 74.9395 27.1763 75.133 26.6293 75.3132C26.6495 76.1273 26.6225 76.9348 26.5415 77.7489C26.4267 78.8833 26.2241 79.9978 25.9269 81.0855C25.7445 81.7461 25.0557 82.1399 24.3871 81.9664C23.7185 81.7862 23.32 81.1055 23.4956 80.4449C23.759 79.4639 23.9481 78.483 24.0426 77.5153C24.0899 77.0349 24.1169 76.5544 24.1237 76.0673C22.6447 76.4677 21.1724 76.788 19.7946 77.0349C16.8433 77.5554 14.0946 77.6755 11.8862 77.2618C10.1978 76.9481 8.7998 76.3208 7.81377 75.3399C6.77372 74.2922 6.23343 72.9042 6.34824 71.1224C6.42929 69.9146 6.82099 68.5199 7.5909 66.9183C7.42206 66.0975 7.27348 65.25 7.15867 64.3692C7.03036 63.3882 6.94256 62.4006 6.90204 61.3996C6.89528 61.3663 6.89528 61.3262 6.89528 61.2928C6.88853 61.2528 6.88178 61.2061 6.87502 61.1661C6.69268 59.2909 6.67242 57.4624 6.6454 55.614L6.63865 55.1869L3.7346 55.0201H3.70084C2.94443 54.9934 2.26232 54.7732 1.69502 54.4061C1.14123 54.0525 0.702243 53.5586 0.411839 52.9714C0.134942 52.3775 -0.0136371 51.7235 -0.000129905 51.0028C0.0201309 50.0085 0.35781 48.9008 1.09395 47.7663L4.2006 41.4869C5.72691 38.4105 5.70665 38.0035 5.64587 36.3886C5.61885 35.6612 5.57833 34.7336 5.62561 33.3389C5.67964 31.6773 5.86874 30.0891 6.23343 28.601C6.49007 27.5466 6.8345 26.5456 7.28024 25.598L1.62748 23.1623C0.992648 22.8887 0.702243 22.1547 0.97914 21.5274C1.01966 21.4406 1.06694 21.3606 1.11421 21.2872C14.6214 3.09607 29.8777 -1.90881 42.7838 0.600307C50.3209 2.06841 57.0407 6.11902 62.1194 11.611C67.1981 17.0964 70.6491 24.0365 71.6757 31.3036C73.3573 43.2553 68.5015 56.0544 53.5491 64.7162C53.4207 64.7896 53.2857 64.843 53.1439 64.863C53.1506 66.6781 53.2654 68.4332 53.4748 70.1415C53.8935 73.5181 54.6904 76.6879 55.8318 79.6641C56.0749 80.3047 55.7507 81.0188 55.0956 81.2657C54.4473 81.5059 53.7247 81.1856 53.4748 80.5383C52.2659 77.3685 51.4149 74.0119 50.976 70.4418C50.537 66.885 50.5032 63.108 50.9219 59.0774C50.9895 58.3967 51.6108 57.8962 52.2997 57.9696C52.9885 58.0363 53.495 58.6503 53.4207 59.3309C53.3262 60.2385 53.2587 61.1327 53.2114 62.0202C66.4011 53.9724 70.6964 42.4211 69.1836 31.6439C68.2314 24.8773 65.0099 18.4043 60.2689 13.286C55.5481 8.17436 49.3011 4.41069 42.3043 3.04269C30.5734 0.760463 16.661 5.26486 4.08579 21.514L9.45489 23.8296C9.52918 23.8563 9.60347 23.8897 9.67101 23.9297C10.2653 24.2834 10.4544 25.0508 10.0965 25.6381C9.44139 26.7124 8.97539 27.9003 8.66472 29.1815C8.34055 30.5028 8.17846 31.9242 8.12444 33.419C8.08391 34.7203 8.11768 35.6078 8.1447 36.2951C8.23249 38.4039 8.25276 38.931 6.44955 42.5813L3.32939 48.8807C3.30237 48.9408 3.26861 49.0075 3.22809 49.0676C2.73507 49.815 2.5122 50.489 2.4987 51.0562C2.49194 51.3632 2.54597 51.6301 2.65403 51.8436C2.74858 52.0372 2.88365 52.1906 3.05249 52.2974C3.24835 52.4242 3.49147 52.4976 3.76837 52.5109C3.80214 52.5109 3.83591 52.5109 3.86968 52.5109L7.46934 52.7178C7.58415 52.6778 7.70571 52.6578 7.83403 52.6578C7.87455 52.6578 7.92183 52.6578 7.96235 52.6644V52.6578L11.2784 52.938C11.974 52.9914 12.4873 53.592 12.4265 54.2793C12.3724 54.9667 11.7646 55.4738 11.069 55.4138L11.0015 55.4071L9.13072 55.3003L9.13747 55.5539C9.15773 57.1688 9.178 58.7637 9.31307 60.3786C10.3599 60.7657 11.3121 61.0126 12.1563 61.0993C13.1018 61.2061 13.8988 61.106 14.5606 60.7924ZM49.6793 14.1268C49.5307 13.8733 49.3078 13.6998 49.0309 13.6263C48.754 13.5529 48.4704 13.593 48.2137 13.7398L46.809 14.5406C46.5591 14.2736 46.289 14.0134 45.9986 13.7865C45.7149 13.5463 45.411 13.3327 45.1003 13.1325L45.5528 11.4442C45.6271 11.1573 45.6001 10.897 45.4515 10.6434C45.3029 10.3899 45.0868 10.2297 44.7964 10.1563L42.6555 9.59575C42.3854 9.52234 42.122 9.55571 41.8519 9.70252C41.5952 9.84933 41.4264 10.0562 41.3453 10.3431L40.9266 11.8846C40.5484 11.878 40.1702 11.8913 39.7988 11.9247C39.4273 11.9581 39.0694 12.0315 38.7249 12.1115L37.8132 10.5901C37.6714 10.3365 37.4688 10.1763 37.1851 10.0962C36.9082 10.0228 36.6381 10.0629 36.3679 10.2097L34.4769 11.3041C34.2203 11.4509 34.0447 11.6711 33.9704 11.9447C33.8961 12.2183 33.9366 12.4986 34.0852 12.7522L34.8957 14.1402C34.6255 14.3871 34.3756 14.654 34.1325 14.941C33.8894 15.2212 33.6733 15.5215 33.4707 15.8352L31.762 15.3881C31.4716 15.3147 31.2082 15.3414 30.9516 15.4882C30.6949 15.635 30.5328 15.8485 30.4586 16.1355L29.8912 18.2509C29.817 18.5178 29.8507 18.778 29.9993 19.045C30.1479 19.2985 30.3572 19.4654 30.6477 19.5455L32.2077 19.9592C32.201 20.3329 32.2145 20.7066 32.2483 21.0736C32.282 21.4406 32.3496 21.801 32.4306 22.1613L30.8908 23.0422C30.6341 23.1823 30.4721 23.3825 30.391 23.6628C30.3167 23.9364 30.3572 24.2033 30.5058 24.4703L31.6067 26.3721C31.7552 26.619 31.9849 26.7792 32.2618 26.8526C32.5387 26.926 32.8156 26.8993 33.0722 26.7592L34.4837 25.9384C34.7336 26.2053 35.0037 26.4522 35.2941 26.6924C35.5778 26.9327 35.8817 27.1462 36.1923 27.3464L35.7399 29.0347C35.6656 29.3217 35.6926 29.5819 35.8412 29.8355C35.9897 30.0891 36.2059 30.2492 36.4963 30.3226L38.6371 30.8832C38.9073 30.9566 39.1707 30.9232 39.4408 30.7764C39.6975 30.6296 39.8663 30.4227 39.9473 30.1358L40.3661 28.5943C40.7443 28.601 41.1225 28.5876 41.4939 28.5542C41.8654 28.5209 42.2301 28.4541 42.5947 28.3741L43.4862 29.8956C43.628 30.1491 43.8374 30.316 44.1278 30.3894C44.4182 30.4628 44.6884 30.4227 44.9315 30.2759L46.8563 29.1882C47.1061 29.028 47.2682 28.8145 47.3425 28.5409C47.4168 28.2673 47.3898 27.9937 47.248 27.7401L46.4173 26.3454C46.6874 26.0985 46.9373 25.8316 47.1804 25.5446C47.4236 25.2644 47.6397 24.9641 47.8423 24.6571L49.5509 25.1042C49.8413 25.1776 50.1047 25.1509 50.3614 25.0041C50.618 24.8573 50.7801 24.6438 50.8544 24.3568L51.4217 22.2414C51.496 21.9745 51.4622 21.7142 51.3136 21.4473C51.1651 21.1937 50.9557 21.0269 50.6653 20.9468L49.1052 20.5331C49.112 20.1661 49.0917 19.8057 49.0647 19.432C49.0309 19.0583 48.9634 18.7046 48.8823 18.351L50.4222 17.4501C50.6788 17.3099 50.8409 17.1097 50.9219 16.8295C50.9962 16.5559 50.9557 16.2889 50.8071 16.022L49.6995 14.1535L49.6793 14.1268ZM58.4589 28.601C58.3509 28.4675 58.2225 28.4074 58.0605 28.3941C57.8984 28.3807 57.7498 28.4275 57.6282 28.5342L56.9394 29.0948C56.7773 28.968 56.6084 28.8679 56.4328 28.7544C56.2505 28.6543 56.0682 28.5676 55.8791 28.4875L55.9601 27.5332C55.9736 27.3731 55.9263 27.2263 55.825 27.1128C55.7237 26.9927 55.5886 26.926 55.4266 26.906L54.2177 26.7992C54.0623 26.7925 53.9205 26.8326 53.7922 26.9327C53.6706 27.0328 53.5963 27.1662 53.5828 27.3264L53.5018 28.2006C53.2992 28.2273 53.0898 28.274 52.9007 28.3274C52.6981 28.3874 52.5158 28.4475 52.3334 28.5276L51.6986 27.7868C51.5973 27.66 51.469 27.5933 51.3069 27.58C51.1448 27.5666 51.0097 27.6133 50.8746 27.7201L49.9494 28.4875C49.8143 28.5943 49.7536 28.7211 49.74 28.8812C49.7265 29.0414 49.7738 29.1882 49.8819 29.3083L50.4492 29.989C50.3209 30.1491 50.2195 30.316 50.1047 30.4895C50.0034 30.6696 49.9156 30.8498 49.8346 31.0367L48.8688 30.9566C48.7067 30.9432 48.5582 30.99 48.4434 31.0901C48.3218 31.1901 48.2543 31.3236 48.234 31.4838L48.1259 32.6783C48.1192 32.8318 48.1597 32.9719 48.261 33.0987C48.3623 33.2188 48.4974 33.2922 48.6595 33.3055L49.5442 33.3856C49.5712 33.5858 49.6185 33.7927 49.6725 33.9795C49.7333 34.1797 49.7941 34.3666 49.8684 34.5534L49.1255 35.174C48.9971 35.2741 48.9296 35.4009 48.9161 35.5611C48.9026 35.7212 48.9499 35.8547 49.0579 35.9882L49.8278 36.9157C49.9426 37.0359 50.0642 37.1026 50.2263 37.1159C50.3884 37.1293 50.537 37.0826 50.6518 36.9958L51.3406 36.4219C51.5027 36.5487 51.6716 36.6488 51.8472 36.7623C52.0295 36.8624 52.2119 36.9491 52.401 37.0292L52.3199 37.9834C52.3064 38.1436 52.3537 38.2904 52.455 38.4039C52.5563 38.524 52.6914 38.5907 52.8534 38.6107L54.0623 38.7175C54.2177 38.7242 54.3595 38.6841 54.4878 38.584C54.6094 38.4839 54.6837 38.3505 54.6972 38.1903L54.7782 37.3161C54.9808 37.2894 55.1902 37.2427 55.3793 37.1893C55.5819 37.1293 55.771 37.0692 55.9601 36.9958L56.5882 37.7299C56.6895 37.8567 56.8178 37.9234 56.9866 37.9367C57.1487 37.9501 57.2973 37.9034 57.4121 37.8033L58.3509 37.0425C58.4724 36.9291 58.54 36.809 58.5535 36.6488C58.567 36.4887 58.5332 36.3485 58.4319 36.2284L57.8443 35.5411C57.9727 35.3809 58.074 35.2141 58.1888 35.0406C58.2901 34.8604 58.3779 34.6802 58.4589 34.4867L59.4314 34.5668C59.5935 34.5801 59.7421 34.5334 59.8569 34.4333C59.9785 34.3332 60.046 34.1998 60.0663 34.0396L60.1743 32.8451C60.1811 32.6916 60.1406 32.5515 60.0393 32.4247C59.938 32.2979 59.8029 32.2312 59.6408 32.2178L58.7561 32.1377C58.7291 31.9375 58.6885 31.744 58.6278 31.5438C58.567 31.3436 58.5062 31.1568 58.4252 30.9833L59.1748 30.356C59.3031 30.2559 59.3707 30.1291 59.3842 29.969C59.3977 29.8088 59.3504 29.6753 59.2423 29.5419L58.4657 28.6277L58.4589 28.601ZM54.3392 30.6363C54.6296 30.663 54.8998 30.743 55.1564 30.8698C55.4063 31.01 55.6224 31.1768 55.7913 31.377C55.9601 31.5839 56.0952 31.8241 56.1897 32.091C56.2843 32.358 56.3113 32.6449 56.2843 32.9318C56.2573 33.2188 56.1762 33.4857 56.0479 33.7393C55.9061 33.9862 55.7372 34.1998 55.5346 34.3666C55.3253 34.5334 55.0821 34.6669 54.812 34.7603C54.5418 34.8537 54.2514 34.8804 53.961 34.8537C53.6706 34.827 53.4005 34.747 53.1439 34.6202C52.894 34.48 52.6779 34.3132 52.509 34.113C52.3402 33.9061 52.2051 33.6659 52.1106 33.399C52.016 33.132 51.989 32.8451 52.016 32.5582C52.043 32.2712 52.1241 32.0043 52.2524 31.7507C52.3942 31.5038 52.563 31.2902 52.7656 31.1234C52.975 30.9566 53.2181 30.8231 53.4883 30.7297C53.7584 30.6363 54.0488 30.6096 54.3392 30.6363ZM41.7708 16.0754C42.3516 16.2289 42.8581 16.4758 43.3241 16.8295C43.7766 17.1832 44.1413 17.5969 44.425 18.064C44.7019 18.5311 44.8775 19.0583 44.9653 19.6255C45.0463 20.1994 45.0125 20.76 44.8572 21.3272C44.7019 21.9011 44.452 22.4016 44.094 22.862C43.7361 23.3091 43.3174 23.6695 42.8446 23.9498C42.3719 24.2234 41.8383 24.3969 41.2643 24.4836C40.697 24.5704 40.1162 24.5303 39.5421 24.3768C38.9613 24.2234 38.4548 23.9764 37.9888 23.6228C37.5363 23.2691 37.1716 22.8554 36.888 22.3882C36.6111 21.9211 36.4355 21.3939 36.3477 20.8267C36.2599 20.2662 36.3004 19.6923 36.4557 19.125C36.6111 18.5512 36.861 18.0507 37.2189 17.5902C37.5768 17.1431 37.9956 16.7828 38.4751 16.5025C38.9478 16.2289 39.4813 16.0554 40.0554 15.9686C40.6295 15.8886 41.1968 15.9219 41.7708 16.0754ZM25.4136 35.8147C26.0147 36.155 26.2241 36.9157 25.8796 37.5096C25.5352 38.1036 24.7653 38.3104 24.1642 37.9701C22.9553 37.2894 21.7869 36.9758 20.6591 36.9758C19.4434 36.9758 18.2616 37.3361 17.127 37.9701C16.5259 38.3104 15.756 38.0969 15.4183 37.503C15.0739 36.9091 15.29 36.1483 15.8911 35.8147C17.4039 34.9672 19.0045 34.4934 20.6591 34.4934C22.2192 34.4934 23.8063 34.9071 25.4136 35.8147ZM20.2606 38.2704C19.2881 38.2704 18.4979 39.0512 18.4979 40.0121C18.4979 40.973 19.2881 41.7538 20.2606 41.7538C21.2332 41.7538 22.0233 40.973 22.0233 40.0121C22.0233 39.0512 21.2332 38.2704 20.2606 38.2704Z" fill="#0094DA"/>
</g>
<defs>
<clipPath id="clip0_2325_4336">
<rect width="72" height="82" fill="white"/>
</clipPath>
</defs>
</svg>
