<svg width="55" height="52" viewBox="0 0 55 52" fill="none" xmlns="http://www.w3.org/2000/svg">
<path d="M54.4432 0.769303C54.3339 0.724303 54.2174 0.700597 54.0993 0.700195H48.6993C48.2023 0.700195 47.7993 1.10319 47.7993 1.6002C47.7993 2.0972 48.2023 2.5002 48.6993 2.5002H51.9268L45.6268 8.8002H7.29918C6.5832 8.8002 5.8961 9.08466 5.38994 9.59091C4.88378 10.0972 4.59923 10.7843 4.59923 11.5001V30.0278L1.26275 33.3639C1.08918 33.5318 0.990342 33.762 0.988326 34.0035C0.985915 34.245 1.08114 34.4772 1.2519 34.6476C1.42225 34.8183 1.65449 34.9136 1.89596 34.9112C2.13744 34.9091 2.36765 34.8103 2.53561 34.6367L4.59913 32.5728V38.5004C4.59913 39.2163 4.88359 39.9034 5.38984 40.4096C5.89609 40.9158 6.58319 41.2003 7.29907 41.2003H22.5991V44.8003H18.0991C16.8129 44.8003 15.6244 45.4866 14.9813 46.6003C14.3384 47.714 14.3384 49.0866 14.9813 50.2003C15.6245 51.314 16.8131 52.0003 18.0991 52.0003H37.8991C39.1852 52.0003 40.3737 51.3141 41.0169 50.2003C41.6597 49.0866 41.6597 47.714 41.0169 46.6003C40.3736 45.4866 39.1851 44.8003 37.8991 44.8003H33.3991V41.2003H48.6991C49.4151 41.2003 50.1022 40.9158 50.6083 40.4096C51.1145 39.9033 51.399 39.2162 51.399 38.5004V11.5004C51.399 10.7844 51.1146 10.0973 50.6083 9.59112C50.1021 9.08496 49.415 8.8004 48.6991 8.8004H48.1715L53.1991 3.77285V7.0004C53.1991 7.49741 53.6021 7.9004 54.0991 7.9004C54.5961 7.9004 54.9991 7.49741 54.9991 7.0004V1.6004C54.9987 1.23638 54.7793 0.908522 54.443 0.769511L54.4432 0.769303ZM6.39967 11.5004C6.39967 11.0034 6.80267 10.6004 7.29967 10.6004H43.8273L36.9998 17.4279L32.2363 12.6644V12.664C31.8847 12.3129 31.315 12.3129 30.9634 12.664L18.1001 25.5284L14.2366 21.6648V21.6644C13.885 21.3133 13.3153 21.3133 12.9637 21.6644L6.40019 28.2284L6.39967 11.5004ZM37.8997 46.6004C38.5429 46.6004 39.1371 46.9435 39.4586 47.5004C39.78 48.0573 39.78 48.7435 39.4586 49.3004C39.1371 49.8573 38.5429 50.2004 37.8997 50.2004H18.0997C17.4564 50.2004 16.8622 49.8573 16.5408 49.3004C16.2193 48.7435 16.2193 48.0573 16.5408 47.5004C16.8622 46.9435 17.4564 46.6004 18.0997 46.6004H22.5997V48.4004C22.5997 48.6391 22.6945 48.8681 22.8632 49.0368C23.032 49.2056 23.261 49.3004 23.4997 49.3004H32.4997C32.7383 49.3004 32.9674 49.2056 33.1361 49.0368C33.3048 48.8681 33.3997 48.6391 33.3997 48.4004V46.6004H37.8997ZM31.5997 47.5004H24.3997V41.2004H31.5997V47.5004ZM9.99967 39.4004V37.0728L13.5997 33.4728L17.4632 37.3364V37.3368C17.8148 37.6879 18.3845 37.6879 18.7361 37.3368L31.5994 24.4724L36.3629 29.2359V29.2363C36.7144 29.5875 37.2842 29.5875 37.6357 29.2363L45.9993 20.8724V39.4001L9.99967 39.4004ZM48.6997 10.6004C48.9383 10.6004 49.1674 10.6952 49.3361 10.864C49.5048 11.0327 49.5997 11.2617 49.5997 11.5004V38.5004C49.5997 38.7391 49.5049 38.9681 49.3361 39.1368C49.1674 39.3056 48.9383 39.4004 48.6997 39.4004H47.7997V18.7004C47.7997 18.3364 47.5803 18.0085 47.244 17.8691C46.9077 17.7297 46.5208 17.8068 46.2632 18.064L36.9997 27.3279L32.2362 22.5644V22.564C31.8846 22.2128 31.3149 22.2128 30.9633 22.564L18.1 35.4283L14.2365 31.5648V31.5644C13.8849 31.2132 13.3152 31.2132 12.9637 31.5644L8.46365 36.0644C8.29491 36.2331 8.20008 36.4622 8.20008 36.7008V39.4008H7.30008C6.80308 39.4008 6.40008 38.9978 6.40008 38.5008V30.7733L13.6001 23.5733L17.4636 27.4368V27.4372C17.8152 27.7884 18.3849 27.7884 18.7365 27.4372L31.5998 14.5728L36.3633 19.3364V19.3368C36.7149 19.6879 37.2846 19.6879 37.6362 19.3368L46.3722 10.6003L48.6997 10.6004Z" fill="#0094DA"/>
</svg>
