<svg width="120" height="60" viewBox="0 0 120 60" fill="none" xmlns="http://www.w3.org/2000/svg">
<path d="M89.4572 36.9125L89.4494 32.193L89.426 23.762M94.2001 27.3952L89.4494 32.1926L94.2236 36.9277M62.3982 32.2558C62.4211 31.2439 62.1267 30.2098 61.5308 29.3725C60.6722 28.1667 59.2817 27.3413 57.7568 27.3254C57.6552 27.3254 57.5544 27.3254 57.4521 27.3332C56.8492 27.3705 56.2653 27.4541 55.7486 27.6692C52.3509 29.083 51.7489 33.8014 54.6155 35.9364C57.0983 37.783 60.7096 37.0303 61.9603 34.2099C62.2244 33.6138 62.398 32.8624 62.398 32.2562V23.7236M85.3238 27.8882C84.6221 27.4336 83.7994 27.2696 82.9875 27.2709C82.8994 27.2709 82.8089 27.2754 82.7297 27.2787C80.3821 27.3797 78.2055 29.0385 78.2055 32.256C78.2055 36.06 82.2843 38.113 85.3334 36.319M99.0231 35.9048L106.235 29.7243C106.235 29.7243 106.06 29.3925 105.946 29.24C104.975 27.937 103.49 27.2863 101.93 27.2863C98.0702 27.2863 95.1744 32.2789 99.0231 35.9048ZM99.0231 35.9048C99.2895 36.156 99.6555 36.3526 100.062 36.5222C101.474 37.1109 103.408 37.0627 104.454 36.2876M114.744 27.3954C113.558 27.3985 112.404 27.8138 111.548 28.6141C110.198 29.7276 109.906 31.1342 109.923 32.9117L109.962 36.9515M70.2916 27.3016C70.1821 27.3034 70.0733 27.3153 69.9635 27.3173C67.0357 27.3727 64.9249 30.4122 65.5643 33.2323C66.1875 35.9806 69.1899 37.608 71.784 36.7094C74.805 35.9154 76.0367 32.1114 74.3781 29.5443C73.4709 28.1409 71.9332 27.2704 70.2916 27.3016Z" stroke="#394D54" stroke-width="1.93892" stroke-linecap="round" stroke-linejoin="round"/>
<path d="M30.3057 24.4468H34.5281V28.7632H36.6631C37.6492 28.7632 38.663 28.5878 39.5968 28.2713C40.0555 28.1158 40.5705 27.8992 41.0231 27.6249C40.427 26.8468 40.1227 25.864 40.0333 24.8957C39.9115 23.5783 40.1774 21.8636 41.0674 20.8324L41.5113 20.3191L42.0402 20.7442C43.3698 21.8141 44.4917 23.3109 44.6891 25.0131C46.2925 24.5415 48.1751 24.653 49.5881 25.4687L50.168 25.8033L49.8627 26.399C48.6691 28.7336 46.1701 29.4562 43.7271 29.3282C40.0716 38.4338 32.1126 42.7443 22.4625 42.7443C17.4767 42.7443 12.9027 40.8805 10.2979 36.4572C10.1452 36.1824 10.0144 35.8951 9.87575 35.6129C8.9953 33.6659 8.7028 31.5329 8.90112 29.4015L8.96058 28.7632H12.5714V24.4468H16.7938V20.2244H25.2386V16.002H30.3057V24.4468Z" fill="#394D54"/>
<mask id="mask0_1065_2075" style="mask-type:luminance" maskUnits="userSpaceOnUse" x="9" y="16" width="41" height="27">
<path d="M17.1042 16.3711V24.8654H13.0417V29.1126H9.6403L9.60226 29.4819C9.3899 31.7957 9.79356 33.9299 10.7218 35.7547L11.0335 36.3143C11.2182 36.6498 11.4398 36.9648 11.6684 37.2723C11.897 37.5797 11.9797 37.7493 12.1245 37.9533C14.5781 40.7092 18.2362 42.0387 22.4593 42.0387C31.8119 42.0387 39.7495 37.8953 43.2623 28.5874C45.7546 28.843 48.1454 28.204 49.2349 26.0773C47.4991 25.0757 45.2688 25.3969 43.9837 26.0428L47.3883 16.3711L34.0928 24.8654H29.8457V16.3711H17.1042Z" fill="white"/>
</mask>
<g mask="url(#mask0_1065_2075)">
<path d="M25.9424 16.7061H29.602V20.3656H25.9424V16.7061Z" fill="#20C2EF"/>
<path d="M26.3916 20.0608V17.0107V20.0608ZM26.9404 20.0606V17.0107V20.0606ZM27.4948 20.0606V17.0107V20.0606ZM28.0493 20.0606V17.0107V20.0606ZM28.6038 20.0606V17.0107V20.0606ZM29.1523 20.0606V17.0107V20.0606Z" fill="black"/>
<path d="M26.3916 20.0608V17.0107M26.9404 20.0606V17.0107M27.4948 20.0606V17.0107M28.0493 20.0606V17.0107M28.6038 20.0606V17.0107M29.1523 20.0606V17.0107" stroke="#394D54" stroke-width="0.288068"/>
<path d="M30.165 20.3672H33.8246V16.7078H30.165V20.3672Z" fill="#00ACD3"/>
<path d="M30.6143 17.0105V20.0605V17.0105ZM31.1631 17.0107V20.0605V17.0107ZM31.7174 17.0107V20.0605V17.0107ZM32.2719 17.0107V20.0605V17.0107ZM32.8265 17.0107V20.0605V17.0107ZM33.3749 17.0107V20.0605V17.0107Z" fill="black"/>
<path d="M30.6143 17.0105V20.0605M31.1631 17.0107V20.0605M31.7174 17.0107V20.0605M32.2719 17.0107V20.0605M32.8265 17.0107V20.0605M33.3749 17.0107V20.0605" stroke="#394D54" stroke-width="0.288068"/>
<path d="M9.05273 20.9258H12.7123V24.5852H9.05273V20.9258Z" fill="#00ACD3"/>
<path d="M9.05273 25.1504H12.7123V28.81H9.05273V25.1504Z" fill="#20C2EF"/>
<path d="M9.50195 24.2824V21.2324V24.2824ZM10.0508 24.2822V21.2324V24.2822ZM10.6051 24.2822V21.2324V24.2822ZM11.1596 24.2822V21.2324V24.2822ZM11.7142 24.2822V21.2324V24.2822ZM12.2626 24.2822V21.2324V24.2822Z" fill="black"/>
<path d="M9.50195 24.2824V21.2324M10.0508 24.2822V21.2324M10.6051 24.2822V21.2324M11.1596 24.2822V21.2324M11.7142 24.2822V21.2324M12.2626 24.2822V21.2324" stroke="#394D54" stroke-width="0.288068"/>
<path d="M9.50195 28.5051V25.4551V28.5051ZM10.0508 28.5049V25.4551V28.5049ZM10.6051 28.5049V25.4551V28.5049ZM11.1596 28.5049V25.4551V28.5049ZM11.7142 28.5049V25.4551V28.5049ZM12.2626 28.5049V25.4551V28.5049Z" fill="black"/>
<path d="M9.50195 28.5051V25.4551M10.0508 28.5049V25.4551M10.6051 28.5049V25.4551M11.1596 28.5049V25.4551M11.7142 28.5049V25.4551M12.2626 28.5049V25.4551" stroke="#394D54" stroke-width="0.288068"/>
<path d="M13.2754 28.8115H16.935V25.1521H13.2754V28.8115Z" fill="#00ACD3"/>
<path d="M13.2754 24.5869H16.935V20.9273H13.2754V24.5869Z" fill="#20C2EF"/>
<path d="M13.7246 25.4549V28.5049V25.4549ZM14.2734 25.4551V28.5049V25.4551ZM14.8278 25.4551V28.5049V25.4551ZM15.3823 25.4551V28.5049V25.4551ZM15.9368 25.4551V28.5049V25.4551ZM16.4853 25.4551V28.5049V25.4551Z" fill="black"/>
<path d="M13.7246 25.4549V28.5049M14.2734 25.4551V28.5049M14.8278 25.4551V28.5049M15.3823 25.4551V28.5049M15.9368 25.4551V28.5049M16.4853 25.4551V28.5049" stroke="#394D54" stroke-width="0.288068"/>
<path d="M13.7246 21.2322V24.2822V21.2322ZM14.2734 21.2324V24.2822V21.2324ZM14.8278 21.2324V24.2822V21.2324ZM15.3823 21.2324V24.2822V21.2324ZM15.9368 21.2324V24.2822V21.2324ZM16.4853 21.2324V24.2822V21.2324Z" fill="black"/>
<path d="M13.7246 21.2322V24.2822M14.2734 21.2324V24.2822M14.8278 21.2324V24.2822M15.3823 21.2324V24.2822M15.9368 21.2324V24.2822M16.4853 21.2324V24.2822" stroke="#394D54" stroke-width="0.288068"/>
<path d="M17.498 20.9258H21.1576V24.5852H17.498V20.9258Z" fill="#00ACD3"/>
<path d="M17.498 25.1504H21.1576V28.81H17.498V25.1504Z" fill="#20C2EF"/>
<path d="M17.9473 24.2824V21.2324V24.2824ZM18.4961 24.2822V21.2324V24.2822ZM19.0504 24.2822V21.2324V24.2822ZM19.6049 24.2822V21.2324V24.2822ZM20.1595 24.2822V21.2324V24.2822ZM20.7079 24.2822V21.2324V24.2822Z" fill="black"/>
<path d="M17.9473 24.2824V21.2324M18.4961 24.2822V21.2324M19.0504 24.2822V21.2324M19.6049 24.2822V21.2324M20.1595 24.2822V21.2324M20.7079 24.2822V21.2324" stroke="#394D54" stroke-width="0.288068"/>
<path d="M17.9473 28.5051V25.4551V28.5051ZM18.4961 28.5049V25.4551V28.5049ZM19.0504 28.5049V25.4551V28.5049ZM19.6049 28.5049V25.4551V28.5049ZM20.1595 28.5049V25.4551V28.5049ZM20.7079 28.5049V25.4551V28.5049Z" fill="black"/>
<path d="M17.9473 28.5051V25.4551M18.4961 28.5049V25.4551M19.0504 28.5049V25.4551M19.6049 28.5049V25.4551M20.1595 28.5049V25.4551M20.7079 28.5049V25.4551" stroke="#394D54" stroke-width="0.288068"/>
<path d="M21.7207 28.8115H25.3803V25.1521H21.7207V28.8115Z" fill="#00ACD3"/>
<path d="M21.7207 24.5869H25.3803V20.9273H21.7207V24.5869Z" fill="#20C2EF"/>
<path d="M22.1699 25.4549V28.5049V25.4549ZM22.7187 25.4551V28.5049V25.4551ZM23.2731 25.4551V28.5049V25.4551ZM23.8276 25.4551V28.5049V25.4551ZM24.3821 25.4551V28.5049V25.4551ZM24.9306 25.4551V28.5049V25.4551Z" fill="black"/>
<path d="M22.1699 25.4549V28.5049M22.7187 25.4551V28.5049M23.2731 25.4551V28.5049M23.8276 25.4551V28.5049M24.3821 25.4551V28.5049M24.9306 25.4551V28.5049" stroke="#394D54" stroke-width="0.288068"/>
<path d="M22.1699 21.2322V24.2822V21.2322ZM22.7187 21.2324V24.2822V21.2324ZM23.2731 21.2324V24.2822V21.2324ZM23.8276 21.2324V24.2822V21.2324ZM24.3821 21.2324V24.2822V21.2324ZM24.9306 21.2324V24.2822V21.2324Z" fill="black"/>
<path d="M22.1699 21.2322V24.2822M22.7187 21.2324V24.2822M23.2731 21.2324V24.2822M23.8276 21.2324V24.2822M24.3821 21.2324V24.2822M24.9306 21.2324V24.2822" stroke="#394D54" stroke-width="0.288068"/>
<path d="M25.9424 20.9258H29.602V24.5852H25.9424V20.9258Z" fill="#00ACD3"/>
<path d="M25.9424 25.1504H29.602V28.81H25.9424V25.1504Z" fill="#20C2EF"/>
<path d="M26.3916 24.2824V21.2324V24.2824ZM26.9404 24.2822V21.2324V24.2822ZM27.4948 24.2822V21.2324V24.2822ZM28.0493 24.2822V21.2324V24.2822ZM28.6038 24.2822V21.2324V24.2822ZM29.1523 24.2822V21.2324V24.2822Z" fill="black"/>
<path d="M26.3916 24.2824V21.2324M26.9404 24.2822V21.2324M27.4948 24.2822V21.2324M28.0493 24.2822V21.2324M28.6038 24.2822V21.2324M29.1523 24.2822V21.2324" stroke="#394D54" stroke-width="0.288068"/>
<path d="M26.3916 28.5051V25.4551V28.5051ZM26.9404 28.5049V25.4551V28.5049ZM27.4948 28.5049V25.4551V28.5049ZM28.0493 28.5049V25.4551V28.5049ZM28.6038 28.5049V25.4551V28.5049ZM29.1523 28.5049V25.4551V28.5049Z" fill="black"/>
<path d="M26.3916 28.5051V25.4551M26.9404 28.5049V25.4551M27.4948 28.5049V25.4551M28.0493 28.5049V25.4551M28.6038 28.5049V25.4551M29.1523 28.5049V25.4551" stroke="#394D54" stroke-width="0.288068"/>
<path d="M30.165 28.8115H33.8246V25.1521H30.165V28.8115Z" fill="#00ACD3"/>
<path d="M30.165 24.5869H33.8246V20.9273H30.165V24.5869Z" fill="#20C2EF"/>
<path d="M30.6143 25.4549V28.5049V25.4549ZM31.1631 25.4551V28.5049V25.4551ZM31.7174 25.4551V28.5049V25.4551ZM32.2719 25.4551V28.5049V25.4551ZM32.8265 25.4551V28.5049V25.4551ZM33.3749 25.4551V28.5049V25.4551Z" fill="black"/>
<path d="M30.6143 25.4549V28.5049M31.1631 25.4551V28.5049M31.7174 25.4551V28.5049M32.2719 25.4551V28.5049M32.8265 25.4551V28.5049M33.3749 25.4551V28.5049" stroke="#394D54" stroke-width="0.288068"/>
<path d="M30.6143 21.2322V24.2822V21.2322ZM31.1631 21.2324V24.2822V21.2324ZM31.7174 21.2324V24.2822V21.2324ZM32.2719 21.2324V24.2822V21.2324ZM32.8265 21.2324V24.2822V21.2324ZM33.3749 21.2324V24.2822V21.2324Z" fill="black"/>
<path d="M30.6143 21.2322V24.2822M31.1631 21.2324V24.2822M31.7174 21.2324V24.2822M32.2719 21.2324V24.2822M32.8265 21.2324V24.2822M33.3749 21.2324V24.2822" stroke="#394D54" stroke-width="0.288068"/>
<path d="M43.9854 26.044C44.2685 23.8438 42.6219 22.1154 41.6008 21.2949C40.4239 22.6555 40.2411 26.2213 42.0873 27.7223C41.0569 28.6375 38.8859 29.467 36.6628 29.467H9.34895C9.1329 31.7876 9.34895 42.9624 9.34895 42.9624H49.42L49.2377 26.0802C47.5019 25.0786 45.2705 25.3982 43.9854 26.044Z" fill="#17B5EB"/>
<path d="M9.34863 32.4365V42.9621H49.4196V32.4365" fill="black" fill-opacity="0.17"/>
<path d="M23.6111 42.0209C21.1109 40.8345 19.7385 39.2215 18.9749 37.4609L11.3799 37.7922L15.2577 42.9627L23.6111 42.0209Z" fill="#D4EDF1"/>
<path d="M44.1569 25.9625V25.9681C40.3049 30.9354 34.7793 35.2712 28.8475 37.5499C23.5561 39.5826 18.9428 39.5922 15.7598 37.9598C15.4171 37.7663 15.081 37.5514 14.7442 37.3482C12.4106 35.7173 11.0964 33.0198 11.2069 29.4657H9.34863V42.9626H49.4196V25.2354H44.8032L44.1569 25.9625Z" fill="black" fill-opacity="0.085"/>
</g>
<path d="M11.4951 37.6122C14.1108 37.7553 16.9023 37.781 19.3376 37.0176" stroke="#394D54" stroke-width="0.627841" stroke-linecap="round"/>
<path d="M21.9372 35.7529C21.9371 36.0206 21.8307 36.2773 21.6414 36.4666C21.4521 36.6559 21.1954 36.7623 20.9277 36.7624C20.66 36.7623 20.4032 36.6559 20.2139 36.4666C20.0245 36.2773 19.9181 36.0206 19.918 35.7529C19.9181 35.4851 20.0245 35.2283 20.2138 35.039C20.4032 34.8497 20.6599 34.7433 20.9277 34.7432C21.1954 34.7433 21.4521 34.8497 21.6414 35.0391C21.8307 35.2284 21.9371 35.4851 21.9372 35.7529Z" fill="#D4EDF1"/>
<path d="M21.1891 35.0787C21.1332 35.1114 21.0896 35.1615 21.065 35.2214C21.0404 35.2813 21.0361 35.3476 21.0528 35.4101C21.0696 35.4727 21.1064 35.528 21.1576 35.5675C21.2089 35.6071 21.2717 35.6288 21.3364 35.6292C21.4481 35.6292 21.5451 35.5671 21.5953 35.4755C21.6308 35.5608 21.6503 35.6546 21.6503 35.7529C21.6503 36.1521 21.3266 36.4758 20.9272 36.4758C20.5278 36.4758 20.2041 36.1521 20.2041 35.7529C20.2042 35.5611 20.2805 35.3773 20.416 35.2417C20.5516 35.106 20.7355 35.0298 20.9272 35.0296C21.0168 35.0295 21.1056 35.0461 21.1891 35.0785V35.0787ZM3.07031 32.6512H50.0341C49.0114 32.3917 46.7989 32.0414 47.1636 30.7012C45.304 32.8528 40.82 32.2106 39.6886 31.1499C38.4283 32.9776 31.0918 32.283 30.5801 30.8591C29.0001 32.713 24.1046 32.713 22.5247 30.8591C22.0128 32.2809 14.6767 32.9776 13.416 31.1499C12.2844 32.2109 7.80238 32.853 5.94102 30.7012C6.30591 32.0414 4.09332 32.3919 3.07031 32.6512Z" fill="#394D54"/>
</svg>
