<svg width="120" height="60" viewBox="0 0 120 60" fill="none" xmlns="http://www.w3.org/2000/svg">
<path d="M20.5856 47.0004C18.8056 45.6004 16.9086 44.2604 15.6116 42.3704C12.8816 39.0384 10.7816 35.1704 9.3436 31.1254C8.4736 28.4884 8.1776 25.6624 7.0576 23.1274C5.8876 21.2874 7.2596 19.2744 9.2756 18.6894C10.1726 18.5164 11.7516 17.6694 9.8456 18.2754C8.1456 19.5284 7.9726 17.1374 9.7236 16.9754C10.9196 16.8154 11.3596 15.8384 10.9496 14.9584C9.6656 14.1204 14.0616 13.2024 11.8496 11.9524C9.5466 9.46737 15.0716 8.98838 13.7096 11.8124C13.3836 13.9824 17.5716 11.4124 16.6096 13.9204C17.5976 15.1244 20.3096 14.1954 20.2396 15.8834C21.6796 15.9834 22.1726 17.1834 23.5216 17.2854C24.9216 17.9174 27.4596 18.4154 27.9346 19.9924C26.5346 21.0924 23.3316 17.7224 23.1766 20.7644C23.5966 25.2604 23.4896 29.8914 25.1336 34.1714C25.9116 36.7634 27.7976 38.8034 29.5006 40.8214C31.1306 42.7984 33.3376 44.1914 35.5886 45.3614C37.5626 46.2914 39.6886 46.9084 41.8406 47.2964C42.7126 46.6294 44.2526 44.1484 45.6136 45.1944C45.6796 46.3714 42.9136 47.6524 45.4836 47.5224C46.9836 47.0664 48.0406 48.6894 49.2836 47.2254C50.4286 48.5824 54.0436 46.3594 53.2296 49.1324C52.1276 49.8324 50.5296 49.4124 49.4166 50.3924C47.5966 49.4924 46.1486 51.2044 44.1336 50.9874C41.8966 51.3874 39.6196 51.5494 37.3516 51.5524C33.6296 51.2584 29.8296 51.1344 26.2896 49.8394C24.2946 49.2594 22.3496 48.1234 20.5956 46.9874L20.5856 47.0004ZM23.7286 48.3634C25.6756 49.2034 27.5806 50.0934 29.7146 50.3604C33.1006 50.8304 36.5976 51.5564 39.9946 50.8954C38.4566 50.2014 36.8666 51.1654 35.3346 50.3994C33.4976 50.7944 31.5346 50.2994 29.6566 50.0534C27.5326 49.1074 25.2396 48.4574 23.2506 47.2284C20.7636 46.3204 24.5356 48.3934 25.2076 48.5614C26.7616 49.4434 23.5076 48.1094 23.0376 47.7414C21.7356 47.0114 21.5706 47.1634 22.9076 47.9044C23.1776 48.0624 23.4436 48.2274 23.7256 48.3624L23.7286 48.3634ZM20.0226 45.7434C21.9106 46.4434 20.0146 44.4164 19.1506 44.5434C18.7676 43.8784 17.6866 43.4584 18.4486 43.1034C17.0786 43.5794 17.0116 41.3034 16.3686 41.6204C14.9186 41.1624 15.8046 39.5404 14.0756 38.5424C13.9176 37.4924 12.3586 36.5824 11.8626 34.9984C11.6426 34.1984 10.1006 31.8584 11.0476 34.0254C11.8536 36.1114 13.2726 37.8984 14.4536 39.6824C15.3696 41.3824 16.4536 43.1584 18.1236 44.2174C18.6866 44.7574 19.2296 45.5844 20.0236 45.7544L20.0226 45.7434ZM14.5866 39.7734C14.6516 39.4884 14.9316 40.3904 14.5866 39.7734V39.7734ZM22.2836 46.5804C21.6836 46.3444 22.7016 46.3934 22.2836 46.5804V46.5804ZM23.3076 46.9544C22.8396 47.2544 23.2016 46.4384 23.3076 46.9544V46.9544ZM24.5906 47.4894C23.6506 47.1224 25.1906 46.9094 24.5906 47.4894V47.4894ZM26.7886 48.7144C25.6016 48.5084 27.1586 48.1664 26.7886 48.7144V48.7144ZM22.5686 45.7724C21.3436 45.7624 23.5156 45.1594 22.5686 45.7724V45.7724ZM23.5306 46.2524C23.1886 46.3974 23.5036 45.9294 23.5306 46.2524V46.2524ZM28.3376 49.2524C29.1106 49.7404 32.8516 50.3224 30.5096 49.4524C30.1166 49.5344 26.1666 48.3344 28.3376 49.2524ZM20.7076 43.3084C19.5076 42.9484 20.6326 42.9844 20.7076 43.3084V43.3084ZM22.9446 44.6134C21.7446 44.2994 23.5276 44.2064 22.9446 44.6134V44.6134ZM24.8276 45.7674C23.4726 45.4514 25.6636 45.4524 24.8276 45.7674V45.7674ZM19.7956 42.3174C20.7026 43.0134 23.4536 42.4174 21.1956 41.9024C20.1636 41.3524 17.8356 40.9754 19.4226 42.2344L19.8066 42.3174H19.7956ZM26.1026 46.1674C24.5176 45.7994 26.4806 45.5244 26.1026 46.1674V46.1674ZM24.1866 44.6444C26.4036 45.2704 22.3216 43.2414 23.6396 44.4124L23.9316 44.5454L24.1866 44.6444ZM28.0286 46.8644C26.1316 46.5644 30.1286 46.8844 28.0286 46.8644V46.8644ZM18.9886 41.1024C18.4706 41.1344 18.9066 40.7024 18.9886 41.1024V41.1024ZM31.5816 48.8564C30.8966 49.3824 31.6376 48.1504 31.5816 48.8564V48.8564ZM22.5816 43.2964C21.9256 43.2804 22.4536 42.9244 22.5816 43.2964V43.2964ZM19.1966 40.8564C17.5466 40.3264 20.4016 40.7834 19.1966 40.8564V40.8564ZM15.1966 38.2644C13.8966 37.2244 15.0466 37.6844 15.1966 38.2644V38.2644ZM25.7236 44.9444C25.5036 44.6924 25.6196 44.9994 25.7236 44.9444V44.9444ZM32.2756 48.9644C31.9186 49.1094 32.2556 48.5794 32.2756 48.9644V48.9644ZM25.1456 44.3444C24.1176 44.1944 25.2636 43.8484 25.1456 44.3444V44.3444ZM20.2656 41.2504C18.8276 40.6444 21.1626 41.1544 20.2656 41.2504V41.2504ZM28.5226 46.3804C27.1596 46.1104 29.9206 45.8264 28.5226 46.3804V46.3804ZM24.2286 43.4654C25.8286 43.6724 22.3116 42.3684 23.8746 43.3484L24.2286 43.4654ZM29.8266 46.9074C31.3316 46.0094 30.8346 49.0134 32.3786 47.1614C33.9006 46.0494 31.0636 48.5364 32.9386 47.3594C34.2966 46.4514 36.3006 47.7894 37.5666 48.2254C38.4666 48.1814 39.3626 49.0124 40.2966 48.5054C42.0936 48.0214 36.7816 47.7874 38.1736 46.9294C36.5296 47.4094 35.3136 46.3594 34.5056 45.3054C32.6606 44.8794 30.5286 43.9354 29.6076 42.3034C29.2316 41.6914 30.1496 42.3904 29.2836 41.3884C28.1836 40.4004 27.6176 39.2884 26.8716 38.0764C25.9716 37.6014 25.8756 36.2014 25.7856 38.0304C25.7926 36.8764 24.7096 36.1004 24.4456 36.4224C24.4406 35.3224 25.6056 35.8684 24.7906 35.0464C24.6156 33.8944 24.0376 32.6944 23.8646 31.3944C23.5946 30.7684 23.8266 29.4244 22.9446 30.8444C22.6246 32.3444 22.8386 29.0024 23.3386 30.1044C23.9946 28.9804 23.1026 29.1044 23.0666 29.2684C23.4936 28.3204 23.3366 26.9734 22.9546 27.4884C23.1826 26.4824 23.3146 23.7884 22.6146 24.2654C23.0396 23.2134 23.4196 19.4524 21.5746 20.8854C20.8276 20.8954 19.5346 21.1554 18.9226 21.4604C20.8396 22.5174 18.7296 21.8424 17.9476 21.6744C17.8476 22.6524 17.0726 22.2304 16.1076 22.2394C17.6516 22.4394 15.3556 23.8194 14.4716 23.2794C13.3216 23.8294 15.4716 25.1994 14.4946 25.6254C14.6146 26.2634 12.7346 25.3954 12.8806 26.8714C11.7646 26.4014 12.7276 28.6214 13.2866 27.8714C15.1846 28.3854 14.6226 29.5564 14.6706 30.6694C14.3706 31.3174 13.1436 29.1454 14.4006 29.2464C13.4006 27.6464 13.3046 28.6644 12.4806 29.4124C12.2806 29.4664 14.5806 30.4764 13.1426 30.9754C14.4076 31.1714 14.4446 32.2784 14.7026 32.9784C15.4626 33.7704 15.3066 32.1034 16.2166 33.0564C15.6406 32.2064 13.1666 30.6564 15.1586 31.1604C15.1486 30.3074 14.7986 29.6184 15.4086 29.6354C16.0136 28.5414 14.7746 32.3354 16.1386 30.9434C16.5156 30.7784 16.6086 29.8484 17.2886 31.0314C18.2726 32.0014 17.6446 32.7014 16.2556 31.8144C16.5036 32.6584 18.1136 32.9584 17.8106 34.2774C18.1306 35.4374 18.5806 35.0094 18.9706 34.9434C19.2776 36.0694 19.4506 35.2414 19.4656 34.7034C20.8696 35.0034 20.5406 35.8334 20.9806 36.4034C21.9486 36.8394 19.5956 33.4434 21.2566 35.3834C23.0046 36.9634 21.9126 37.6204 20.3436 37.3674C21.3366 37.2874 21.6556 38.7094 22.8976 38.6594C24.0296 39.1994 24.7976 41.2674 22.8446 40.4064C22.1676 39.8064 19.7706 39.0424 21.7286 40.2034C23.5346 41.0414 24.9716 41.5414 26.7146 42.6034C27.9616 43.5034 28.5006 44.5034 28.9726 44.7154C27.9226 45.2154 25.8126 44.3154 27.3806 44.0404C26.4026 43.8624 25.3026 43.3674 26.2386 44.5854C27.0356 45.2514 29.0606 45.1804 29.4246 45.2554C29.1166 45.9334 28.5886 45.9874 29.4366 46.0394C28.4906 46.5444 29.7406 46.6224 29.8366 46.9094L29.8266 46.9074ZM27.8916 41.4414C27.3156 40.8384 27.1666 39.7114 27.7886 40.6914C28.1086 40.8214 28.8116 42.5354 27.8916 41.4414ZM34.1956 45.4454C34.2056 45.7184 34.5556 45.4214 34.1956 45.4454V45.4454ZM26.9826 39.9654C26.9596 39.0654 27.1896 40.6684 26.9826 39.9654V39.9654ZM26.3566 39.1234C25.6316 37.7234 27.2696 39.5194 26.3566 39.1234V39.1234ZM18.7636 33.8834C18.9636 34.6114 19.1896 33.7694 18.7636 33.8834V33.8834ZM24.8076 37.1584C25.0676 36.1764 25.1146 37.9814 24.8076 37.1584V37.1584ZM20.5376 34.1884C20.2376 33.6464 21.1676 34.6884 20.5376 34.1884V34.1884ZM24.2006 35.3624C23.5146 33.8254 24.6876 34.5224 24.3536 35.6144L24.2006 35.3624ZM17.8826 31.1494C17.5756 30.6444 17.0686 29.1654 17.2326 28.7134C17.3796 29.4494 18.7966 31.8804 17.9266 29.7204C16.9666 27.9204 19.0766 30.3074 19.2926 30.7604C19.3926 31.2104 18.6996 30.6374 19.1696 31.6904C18.3116 30.4904 18.6636 32.3514 17.8826 31.1494ZM15.9306 29.8034C16.0106 28.6304 16.3766 30.6074 15.9306 29.8034V29.8034ZM16.8086 30.1064C17.2286 29.2214 17.5086 31.3404 16.8086 30.1064V30.1064ZM14.6956 28.4724C13.9686 27.7494 13.4426 27.0724 14.7306 28.0224C15.2256 28.0424 13.6286 26.5084 14.8506 27.5354C16.1346 27.7694 15.4846 29.6414 14.6966 28.4714L14.6956 28.4724ZM15.7956 28.4424C16.0196 28.8544 16.2176 28.0224 15.7956 28.4424V28.4424ZM16.4796 28.6604C15.8396 27.4604 17.2566 29.1634 16.4796 28.6604V28.6604ZM15.1216 27.3634C13.0086 25.4814 17.7766 28.3464 15.4666 27.7114L15.1216 27.3634ZM21.1766 30.8804C20.2616 30.3324 20.9336 27.0204 21.2466 29.2854C22.1466 28.9974 21.1966 30.4554 21.8596 30.4414C21.7556 31.3614 21.4596 31.6914 21.1776 30.8814L21.1766 30.8804ZM23.3996 32.2004C23.4996 31.2004 23.5876 32.8834 23.3996 32.2004V32.2004ZM22.9996 31.8154C23.0096 32.3174 23.0996 31.3894 22.9996 31.8154V31.8154ZM15.4996 26.7404C14.1416 24.8674 19.4456 28.6354 16.3696 27.2154C16.0496 27.1304 15.6696 27.1004 15.4996 26.7404ZM19.8126 29.0264C19.6826 27.4494 20.0996 29.2864 19.8126 29.0264V29.0264ZM23.0866 31.1264C23.1066 31.7204 23.3396 30.2284 23.0866 31.1264V31.1264ZM15.7086 26.0244C16.5156 25.8514 19.0516 27.4404 16.7226 26.4784C16.4626 26.1914 15.9226 26.3224 15.7086 26.0244ZM22.6386 29.4774C22.7246 27.8644 23.1206 28.5144 22.6426 29.7094L22.6386 29.4774ZM16.3106 25.4624C16.6406 24.9804 15.4366 23.2824 16.4836 24.8624C16.9356 25.2224 17.7836 25.4624 17.0366 25.6154C18.2366 26.6654 16.7366 25.8994 16.3116 25.4714L16.3106 25.4624ZM22.2966 28.9624C22.4966 30.0384 22.5236 27.1244 22.2966 28.9624V28.9624ZM15.6236 23.7544C15.7566 24.0894 15.8756 23.6464 15.6236 23.7544V23.7544ZM17.1856 24.6844C17.5876 23.8404 17.9256 25.6244 17.1856 24.6844V24.6844ZM21.5896 27.1344C21.5856 26.8114 21.6726 27.6044 21.5896 27.1344V27.1344ZM21.3346 26.5704C20.7346 25.0624 21.9046 27.3684 21.3346 26.5704V26.5704ZM20.9596 25.5704C20.8576 24.9474 21.3096 26.3534 20.9596 25.5704V25.5704ZM21.5596 24.5774C21.1396 23.8374 22.0896 21.3204 22.1956 22.8824C21.7526 24.0994 22.0676 24.7794 22.3756 23.1474C22.9456 21.8634 22.2526 25.6834 21.5596 24.5774ZM22.1876 20.8324C22.2276 21.1024 22.3706 20.6074 22.1876 20.8324V20.8324ZM21.1376 41.4894C20.8896 41.2724 21.1696 41.6264 21.1376 41.4894V41.4894ZM23.2976 42.5814C24.4976 42.8814 24.4936 42.3954 23.3976 42.2474C22.8146 41.7044 20.9706 41.1274 22.6206 42.1804C22.7206 42.4574 23.0746 42.4504 23.2876 42.5804L23.2976 42.5814ZM19.0336 39.7484C19.6936 40.2424 21.5256 41.1464 19.9766 39.9484C20.4996 39.3404 18.9766 39.0184 19.4816 38.6104C18.1966 37.8234 18.4676 37.8944 19.3686 37.9104C17.8246 37.2104 19.5916 37.2724 19.5086 36.9174C18.9136 36.8004 16.5506 35.8674 17.9406 36.9934C16.5276 36.2734 17.6036 37.2614 17.1766 37.1584C15.7316 36.7644 18.4626 38.2584 16.9466 37.8884C17.7746 38.5444 19.1766 39.5704 17.2966 38.5824C17.0496 38.9394 18.6426 39.4794 19.0336 39.7504V39.7484ZM21.2916 41.0464C19.9446 39.9644 24.0376 41.9304 21.2916 41.0464V41.0464ZM32.8536 48.0504C32.4786 48.5154 32.8896 47.5054 32.8536 48.0504V48.0504ZM34.0536 48.5504C34.6876 47.9374 34.0796 49.5284 35.1036 48.4004C35.1136 47.5924 35.0736 47.1154 33.9276 48.0974C33.6116 48.2734 33.4706 49.0164 34.0536 48.5504ZM15.2076 36.7264C13.8436 35.9664 15.0126 35.9614 15.2076 36.7264V36.7264ZM16.4756 37.5564C14.7956 36.8494 16.0056 36.7764 16.4756 37.5564V37.5564ZM23.6956 41.9104C24.4006 42.5364 26.9326 42.3704 24.5516 41.9884C24.1996 41.4684 22.3136 41.5924 23.6956 41.9104ZM33.6186 48.0404C32.5686 48.4464 34.7036 47.1404 33.6186 48.0404V48.0404ZM35.8746 49.5904C35.4066 49.7184 35.8816 49.2984 35.8746 49.5904V49.5904ZM35.8786 49.1904C34.7156 49.2654 37.0786 47.9184 35.8786 49.1904V49.1904ZM12.0856 34.1134C11.0616 32.6534 11.4496 31.9964 10.4616 30.8134C10.2736 29.9004 8.7676 27.8314 9.6816 30.0134C10.5196 31.2964 10.7676 33.2814 12.0846 34.1134H12.0856ZM35.5016 48.7774C34.5946 48.1554 37.7016 47.3494 35.5016 48.7774V48.7774ZM37.1886 49.4374C36.4886 49.2394 38.2956 48.4874 37.1886 49.4374V49.4374ZM14.8316 35.1004C14.0136 35.0404 15.1476 34.6304 14.8316 35.1004V35.1004ZM36.8366 48.9754C37.9086 48.2754 36.5896 48.3904 36.6426 49.0384L36.8366 48.9754ZM22.2946 39.8204C21.7276 39.8604 22.2576 39.3524 22.2946 39.8204V39.8204ZM23.1926 40.3374C22.7526 40.4374 22.9066 39.7594 23.1926 40.3374V40.3374ZM38.5556 49.4534C39.9286 48.4534 37.7256 49.2534 38.2686 49.6414L38.5556 49.4534ZM38.0296 49.1994C36.8496 49.6144 39.1496 48.2624 38.0296 49.1994V49.1994ZM40.7166 50.9874C39.8036 50.8254 41.4666 50.4854 40.7166 50.9874V50.9874ZM15.5196 34.7704C16.5256 34.9954 19.5416 37.2484 17.7626 34.9264C16.8626 34.6564 17.3976 32.4294 16.4686 32.8224C17.0926 33.8654 16.9816 34.3074 15.6716 33.6524C14.0266 32.8484 14.7466 34.0494 15.0696 34.3824C14.6296 34.4824 15.6496 34.7624 15.5196 34.7824V34.7704ZM10.9346 31.1504C11.1146 30.4044 9.2746 27.0504 10.0646 29.4704C10.3496 29.9774 10.3196 30.9374 10.9346 31.1504ZM19.3506 36.3504C18.8306 35.9174 19.3256 36.2884 19.3506 36.3504V36.3504ZM20.6266 36.6474C19.2266 36.3274 20.6266 35.8474 20.6266 36.6474V36.6474ZM31.6866 43.6194C30.8526 43.6074 31.4866 43.0794 31.6866 43.6194V43.6194ZM32.2166 44.0074C31.9096 44.0674 32.1366 43.7054 32.2166 44.0074V44.0074ZM36.5996 46.7604C36.0736 46.7204 37.0196 46.4604 36.5996 46.7604V46.7604ZM13.2246 31.7354C11.9326 31.4024 14.4306 31.2684 13.2246 31.7354V31.7354ZM30.7246 42.7534C29.9546 42.9484 30.7106 41.9734 30.7246 42.7534V42.7534ZM12.7576 30.6234C12.0406 30.4514 13.5316 30.3634 12.7576 30.6234V30.6234ZM15.0056 31.7234C14.7686 31.8214 14.9926 31.4674 15.0056 31.7234V31.7234ZM42.4196 48.5304C43.4156 48.3284 45.6866 49.0374 46.0526 48.2664C44.8526 48.2364 41.8686 47.4124 41.7276 48.4614L41.9926 48.5034L42.4196 48.5304ZM15.7196 31.8924C15.1026 31.8624 15.7376 31.0924 15.7196 31.8924V31.8924ZM9.8196 27.7924C8.7996 27.5644 9.5516 26.2854 9.8196 27.7924V27.7924ZM11.2196 28.1464C9.9196 27.7104 11.2376 27.6624 11.2196 28.1464V28.1464ZM12.0246 28.5424C11.7916 28.3424 11.8446 28.7794 12.0246 28.5424V28.5424ZM17.0946 31.7924C16.5296 31.6304 17.3346 31.5724 17.0946 31.7924V31.7924ZM11.4796 27.6504C9.8456 27.4804 11.3426 26.5124 11.4796 27.6504V27.6504ZM8.5796 25.7744C8.2976 25.9724 8.5396 25.2494 8.5796 25.7744V25.7744ZM8.9996 25.4504C8.6296 25.5284 8.9296 24.8274 8.9996 25.4504V25.4504ZM11.3746 26.8674C12.3796 26.4734 9.5446 26.0514 11.1696 26.7934L11.3746 26.8674ZM43.1746 46.5044C42.3586 46.3224 43.8176 45.9044 43.1746 46.5044V46.5044ZM47.0146 48.5044C46.3646 48.6044 47.2726 47.7444 47.0146 48.5044V48.5044ZM11.6146 25.6244C10.8176 25.7714 11.7206 24.8874 11.6146 25.6244V25.6244ZM8.2346 23.3594C8.0546 22.3194 8.0786 20.4924 9.8146 21.1094C7.4976 21.5694 11.4196 23.9894 10.9146 22.0794C11.8896 22.1274 12.8216 21.5034 12.3096 22.4494C14.2296 22.2494 15.5616 20.5724 17.4166 20.8064C18.8616 20.6144 20.4416 20.4694 21.9986 19.8864C23.2786 19.7944 24.5116 18.4164 23.7986 17.5984C22.0526 17.4504 20.2246 17.6684 18.2956 18.0534C16.1576 18.4974 14.2156 19.3414 12.0576 19.7034C9.9536 19.9864 12.4796 20.4814 11.8776 20.6034C10.7806 20.9834 13.1776 21.2404 11.7356 21.6434C10.8396 21.4734 9.9056 21.1654 10.2896 20.2204C8.2756 20.4834 6.5046 21.3184 8.0966 23.3684L8.2146 23.3694L8.2346 23.3594ZM13.0896 20.8874C13.5596 19.1474 15.6196 22.3194 13.8626 21.1194C13.6626 20.9614 13.3076 20.8344 13.0896 20.8874ZM13.1816 20.0434C13.5436 20.3284 13.8616 19.5364 13.1816 20.0434V20.0434ZM14.0466 20.0574C14.1086 19.2574 16.0286 20.4814 14.3626 20.3454L14.0466 20.0574ZM15.2306 19.5814C15.3566 20.0294 15.6636 19.0754 15.2306 19.5814V19.5814ZM15.5336 19.3784C16.2536 18.5134 19.6106 18.8254 17.1536 19.2934C16.4936 18.7974 15.9906 19.5854 15.5336 19.3784ZM19.9136 18.7034C19.8056 16.3394 22.0916 19.5434 19.9136 18.7034V18.7034ZM21.1566 18.6964C21.6116 17.4964 22.9216 18.2184 21.3566 18.4564C21.3896 18.5844 21.3106 19.0724 21.1566 18.6964ZM11.1236 25.0134C9.6836 24.2914 12.4816 24.1814 11.1236 25.0134V25.0134ZM12.1286 25.2914C11.0926 25.0864 12.6046 24.7854 12.1286 25.2914V25.2914ZM9.1996 23.2004C8.2796 22.9734 9.9756 22.6034 9.1996 23.2004V23.2004ZM49.2996 48.2864C48.7066 48.5864 49.3226 47.5944 49.2996 48.2864V48.2864ZM45.2246 45.5064C44.7006 45.5764 45.3406 44.7104 45.2246 45.5064V45.5064ZM50.4196 48.5564C51.5046 48.5604 53.7066 48.2184 51.3466 48.2194C50.9766 48.2764 49.1886 48.2654 50.4196 48.5564ZM13.0336 24.8024C13.9116 24.7424 14.4066 23.8344 12.8636 23.8864C10.4716 23.6394 14.9636 24.7064 12.5566 24.4004C12.2326 24.6154 13.0146 24.8624 13.0336 24.8024ZM13.8066 25.1944C13.5346 25.4944 13.7146 24.6314 13.8066 25.1944V25.1944ZM14.7246 22.7484C14.1966 22.6224 15.1046 22.2754 14.7246 22.7484V22.7484ZM11.8046 17.8684C13.3726 17.3364 15.5046 16.7384 16.2546 18.1314C15.5016 17.2254 15.9506 16.3334 16.6616 17.6584C17.6676 18.9984 18.1616 17.0584 17.5166 16.5984C18.2626 17.5244 19.1096 17.9624 18.0166 16.6584C19.2166 15.2284 15.6366 16.8454 14.8246 16.8284C14.4246 17.0034 10.7946 17.7564 11.8046 17.8684ZM12.7246 16.1104C13.6186 15.4364 15.8246 16.5124 14.4046 15.4404C14.2666 15.3184 11.3166 16.2544 12.7246 16.1104ZM15.9846 16.2454C17.0296 16.2714 15.5346 14.8394 16.7796 15.4884C16.5756 14.8204 15.3296 14.6954 14.7196 14.4284C14.3746 15.0284 15.4196 16.2534 15.9856 16.2454H15.9846ZM13.2976 13.2874C12.6626 13.5374 13.6596 12.7874 13.2976 13.2874V13.2874ZM14.6296 13.6074C16.3156 13.3844 14.1996 12.8824 14.2896 13.5894L14.6296 13.6074ZM12.1426 11.6624C10.9556 10.1124 14.3756 11.9224 13.1686 10.2994C12.1536 9.49137 11.1686 11.1994 12.1426 11.6624ZM27.3726 19.8654C27.9166 18.9014 25.1256 18.5654 27.0066 19.5254C27.1796 19.5824 27.1406 19.9334 27.3726 19.8654ZM55.3796 20.1204C55.1926 20.8584 55.0776 22.0954 55.0336 23.8204C55.0336 24.1604 54.8796 24.3324 54.5716 24.3324C54.2636 24.3324 54.0486 24.1824 53.9276 23.8864C53.5976 23.0834 53.2856 22.5234 52.9876 22.2034C52.6356 21.8304 52.1676 21.6034 51.5856 21.5274C50.9586 21.4274 49.3976 21.3774 46.9016 21.3774C46.3296 21.3774 45.9556 21.4374 45.7816 21.5594C45.6816 21.6364 45.6166 21.8014 45.6166 22.0544V29.5264C45.6166 29.7794 45.7766 29.8994 46.0936 29.8894L50.3496 29.6914C50.7126 29.6464 50.9576 29.5294 51.0836 29.3364C51.2096 29.1434 51.3336 28.6364 51.4536 27.8434C51.5306 27.4034 51.7886 27.2434 52.2286 27.3434C52.6026 27.4204 52.7626 27.5904 52.7086 27.8434C52.4006 29.3394 52.3006 31.2854 52.4106 33.6834C52.4226 33.9684 52.2406 34.1234 51.8666 34.1454C51.5586 34.1784 51.3666 34.0134 51.2896 33.6504C51.0046 32.2764 50.4726 31.5504 49.6896 31.4474C48.9066 31.3444 47.6516 31.3074 45.9036 31.3074C45.7056 31.3074 45.6076 31.3774 45.6076 31.5214V38.9444C45.6076 39.4944 45.8106 39.8684 46.2076 40.0644C46.5276 40.2294 47.2146 40.3784 48.2696 40.5104C48.8096 40.5654 49.0446 40.8024 48.9696 41.2104C48.9026 41.5734 48.4196 41.7164 47.5176 41.6404C44.9116 41.4404 42.7616 41.4424 41.0676 41.6734C40.5946 41.7384 40.3676 41.5464 40.3676 41.0964C40.3676 40.8104 40.6036 40.6464 41.0676 40.6014C42.1456 40.4814 42.6836 39.5344 42.6836 37.7644V23.6444C42.6836 22.9194 42.5536 22.3614 42.2966 21.9704C42.0396 21.5794 41.5566 21.2244 40.8536 20.9064C40.4136 20.7084 40.2486 20.4394 40.3586 20.0984C40.4136 19.8904 40.5016 19.7744 40.6216 19.7524C40.7216 19.7194 41.0236 19.7424 41.4956 19.8184C42.1886 19.9184 43.8226 19.9834 46.3956 19.9834L54.2656 19.7854C55.0016 19.7404 55.3706 19.8014 55.3706 19.9654C55.3706 20.0104 55.3646 20.0534 55.3536 20.0974L55.3796 20.1204ZM66.0776 41.0604C66.0776 41.5004 65.8306 41.6924 65.3356 41.6374C63.8186 41.4944 61.9386 41.5174 59.6956 41.7024C59.2456 41.7474 58.9676 41.7354 58.8616 41.6704C58.7556 41.6054 58.7056 41.4234 58.7056 41.1254C58.7056 40.8624 59.0056 40.6394 59.6036 40.4574C60.2016 40.2754 60.5036 39.7344 60.5036 38.8334V23.9054C60.5036 23.0054 60.3736 22.3604 60.1166 21.9414C59.8596 21.5224 59.4036 21.1994 58.7566 20.9694C58.4166 20.8494 58.2446 20.6774 58.2446 20.4574C58.2446 20.1274 58.4916 19.8804 58.9866 19.7154C59.7346 19.4734 60.5106 19.1004 61.3136 18.5934C61.9736 18.1974 62.3916 18.0004 62.5666 18.0004C62.9736 18.0004 63.1666 18.2804 63.1666 18.8404C63.142 19.3903 63.1197 19.9403 63.0996 20.4904L63.0676 23.7074L63.1326 38.4374C63.1326 39.1074 63.2976 39.5954 63.6276 39.8974C63.9576 40.1994 64.5246 40.4004 65.3276 40.4974C65.8226 40.5524 66.0696 40.7394 66.0696 41.0574L66.0776 41.0604ZM80.9976 40.0874C80.9976 40.3174 80.5776 40.6674 79.7376 41.1344C78.8976 41.6014 78.2226 41.8344 77.7176 41.8344C77.2876 41.8344 76.9096 41.6264 76.5796 41.2074C76.2496 40.7884 76.0176 40.5814 75.8866 40.5814C75.7866 40.5814 75.2666 40.8074 74.3196 41.2574C73.3726 41.7074 72.4226 41.9344 71.4666 41.9344C70.5666 41.9344 69.8116 41.6694 69.2066 41.1344C68.5466 40.5514 68.2066 39.7594 68.2066 38.7584C68.2066 36.8554 70.3846 35.4924 74.7396 34.6584C75.4866 34.5154 75.8666 34.2124 75.8766 33.7514L75.9096 32.6954C75.9756 30.8924 75.1796 29.9904 73.5176 29.9904C73.0446 29.9904 72.5976 30.4134 72.1726 31.2604C71.7476 32.1074 71.1426 32.5634 70.3506 32.6304C69.4506 32.7174 68.9976 32.3384 68.9976 31.4904C68.9976 30.9624 69.6676 30.3474 71.0106 29.6424C72.4186 28.9064 73.7706 28.5374 75.0686 28.5374C77.3006 28.5374 78.4056 29.5994 78.3836 31.7214L78.3166 38.5164C78.3066 39.2314 78.6086 39.5884 79.2236 39.5884C79.3436 39.5884 79.5766 39.5614 79.9166 39.5064L80.5116 39.4244C80.8296 39.4244 80.9896 39.6394 80.9896 40.0684L80.9976 40.0874ZM75.9176 36.3274C75.9276 36.0524 75.8646 35.8704 75.7176 35.7834C75.5706 35.6964 75.3636 35.6784 75.0676 35.7334C72.4176 36.2064 71.0916 37.0704 71.0916 38.3334C71.0916 39.5964 71.7786 40.2304 73.1536 40.2304C73.7036 40.2304 74.2706 40.1264 74.8536 39.9174C75.5366 39.6744 75.8766 39.3834 75.8766 39.0424L75.9096 36.3374L75.9176 36.3274ZM93.2596 38.2004C93.2596 39.3664 92.8096 40.2934 91.9146 40.9804C91.0196 41.6674 89.7956 42.0004 88.2446 42.0004C87.2022 41.9994 86.1628 41.8888 85.1436 41.6704C84.2436 41.4724 83.7356 41.2904 83.5936 41.1264C83.5056 40.9714 83.4616 40.2194 83.4616 38.8664C83.4616 38.2834 83.5936 37.9814 83.8576 37.9594C84.1216 37.9264 84.3576 38.0594 84.5336 38.3874C85.3586 39.8274 86.6896 40.5474 88.5256 40.5474C90.0756 40.5474 90.8506 40.0074 90.8506 38.9294C90.8506 38.4574 90.6756 38.0614 90.3226 37.7424C89.9376 37.3794 89.1906 36.9554 88.0796 36.4724C86.4736 35.7574 85.4016 35.1324 84.8626 34.5924C84.2796 34.0204 83.9886 33.2524 83.9886 32.2924C83.9886 31.1044 84.4446 30.1924 85.3586 29.5224C86.2056 28.8844 87.3386 28.5654 88.7556 28.5654C89.5746 28.5583 90.3923 28.63 91.1976 28.7794C91.9896 28.9224 92.4016 29.0974 92.4346 29.3074C92.5216 29.9224 92.7046 30.8134 92.9786 31.9804C93.0116 32.1224 92.8566 32.2384 92.5166 32.3264C92.1536 32.4034 91.9116 32.3424 91.7906 32.1464C90.9226 30.7264 89.8226 30.0184 88.4906 30.0184C86.9846 30.0184 86.2306 30.5024 86.2306 31.4704C86.2306 32.0104 86.4346 32.4384 86.8306 32.7564C87.1936 33.0314 88.0456 33.4614 89.3876 34.0444C90.7956 34.6494 91.7516 35.1944 92.2576 35.6764C92.9176 36.3034 93.2576 37.1464 93.2576 38.2004H93.2596ZM112.665 41.0864C112.665 41.4714 112.405 41.6864 111.889 41.6864L108.871 41.8514C108.255 41.9714 107.815 41.8964 107.551 41.6214C105.813 39.7514 104.339 37.7944 103.131 35.7484C103.031 35.5734 102.906 35.4844 102.751 35.4844C102.564 35.4844 102.251 35.6494 101.779 35.9794C101.261 36.2644 101.003 36.6724 101.003 37.1994L101.036 38.8174C101.058 39.5204 101.233 39.9824 101.563 40.2024C101.793 40.3574 102.328 40.4774 103.163 40.5654C103.68 40.6314 103.939 40.8254 103.939 41.1424C103.939 41.3954 103.899 41.5424 103.815 41.6124C103.731 41.6824 103.515 41.6864 103.163 41.6524C102.063 41.5524 100.205 41.6084 97.5876 41.8174C96.9276 41.8724 96.5706 41.7894 96.5156 41.5704C96.4936 41.4934 96.4826 41.3834 96.4826 41.2404C96.4826 40.9004 96.8186 40.6404 97.4896 40.4664C98.0946 40.3114 98.3966 39.6024 98.3966 38.3384V23.9204C98.3966 23.0204 98.3086 22.3924 98.1316 22.0404C97.8896 21.5904 97.3836 21.2374 96.6136 20.9844C96.2516 20.8644 96.0696 20.6844 96.0696 20.4844C96.0696 20.1644 96.3296 19.9174 96.8446 19.7424C97.6757 19.4621 98.4685 19.0792 99.2046 18.6024C99.8096 18.2074 100.185 18.0084 100.325 18.0084C100.777 18.0084 101.002 18.2934 101.002 18.8664C101.002 18.7884 100.996 19.3334 100.985 20.4984L100.969 23.7324L101.002 34.0574C101.002 34.3434 101.079 34.4854 101.232 34.4854C101.397 34.4854 101.65 34.3434 101.992 34.0574L105.356 31.2534C105.621 30.9784 105.752 30.7584 105.752 30.5934C105.752 30.2974 105.307 30.0874 104.417 29.9674C104.032 29.9224 103.85 29.7074 103.872 29.3234C103.905 28.9384 104.098 28.7734 104.449 28.8284C105.242 28.9284 106.396 28.9984 107.913 29.0104L111.063 29.0264C111.403 29.0364 111.563 29.2404 111.563 29.6264C111.563 29.9994 111.293 30.2034 110.755 30.2264C109.907 30.2584 109.11 30.4504 108.363 30.8034C107.318 31.2754 106.201 32.1064 105.013 33.3034C104.926 33.3694 104.881 33.4534 104.881 33.5504C104.881 33.7044 105.068 34.0734 105.443 34.6564C106.817 36.7564 108.115 38.3234 109.335 39.3904C110.115 40.0604 110.847 40.3964 111.528 40.3964C112.034 40.3964 112.348 40.4314 112.468 40.5044C112.588 40.5774 112.65 40.7644 112.65 41.0724L112.665 41.0864Z" fill="black"/>
</svg>
