<svg width="120" height="60" viewBox="0 0 120 60" fill="none" xmlns="http://www.w3.org/2000/svg">
<path d="M6.2998 21.4746H11.9998V27.1046H17.2128V21.4746H22.9128V38.5246H17.2128V32.8246H11.9998V38.5246H6.2998V21.4746ZM30.4068 27.1296H25.3798V21.4756H41.1158V27.1296H36.0958V38.5266H30.3958V27.1296H30.4068ZM43.6138 21.4746H49.5568L53.2128 27.4746L56.8648 21.4746H62.7998V38.5246H57.1238V30.0726L53.2038 36.1356H53.1058L49.1998 30.0736V38.5256H43.6238L43.6138 21.4746ZM65.6438 21.4746H71.3438V32.8996H79.3588V38.5356H65.6448L65.6438 21.4746Z" fill="black"/>
<path d="M82.0703 12.0596H113.707L110.825 44.3476L97.8703 47.9396L84.9503 44.3526L82.0703 12.0596Z" fill="#E44D26"/>
<path d="M108.36 42.2932L110.823 14.7012H97.9004V45.1952L108.36 42.2932Z" fill="#F16529"/>
<path d="M92.6497 26.6781L92.2877 22.6221H97.8997V18.6621H87.9697L89.0377 30.6391H97.8997V26.6791L92.6497 26.6781ZM89.2037 32.6201L89.7587 38.8401L97.8717 41.0921L97.8897 41.0871V36.9671L97.8727 36.9721L93.4727 35.7721L93.1907 32.6121H91.0477L89.2037 32.6201Z" fill="#EBEBEB"/>
<path d="M106.986 27.7403L107.083 26.6763H97.877V30.6363H102.754L102.294 35.7733L97.877 36.9653V41.0853L105.997 38.8353L106.057 38.1653L106.986 27.7403ZM97.886 22.6223H107.453L107.808 18.6523H97.886V22.6023V22.6223Z" fill="white"/>
</svg>
