<svg width="105" height="44" viewBox="0 0 105 44" fill="none" xmlns="http://www.w3.org/2000/svg">
<path d="M46.1572 10.5469H63.4443V17.776H53.3864V25.0052H63.4443V32.2343H46.1572V10.5469Z" fill="black"/>
<path d="M66.9014 10.5469H84.1885V16.8331H74.1305V18.0903H84.1885V32.5486H66.9014V25.9481H76.9593V24.6909H66.9014V10.5469Z" fill="black"/>
<path d="M87.6465 10.5469H104.934V16.8331H94.8756V18.0903H104.934V32.5486H87.6465V25.9481H97.7045V24.6909H87.6465V10.5469Z" fill="black"/>
<path d="M35.004 39.3051L19.2327 43.6774L3.50487 39.3113L0 0H38.5125L35.004 39.3051Z" fill="#264DE4"/>
<path d="M19.2559 40.335L31.9998 36.8019L34.9981 3.21387H19.2559V40.335Z" fill="#2965F1"/>
<path d="M19.2566 17.7939H8.03516L8.46728 22.6153H19.2566V17.7939Z" fill="#EBEBEB"/>
<path d="M19.24 8.03613H7.16699L7.60527 12.8576H19.2567V8.03613H19.24Z" fill="#EBEBEB"/>
<path d="M19.2354 30.3215L13.8658 28.8716L13.5225 25.0264H10.9133H8.68262L9.35809 32.5966L19.2343 35.3383L19.2565 35.3321V30.3159L19.2354 30.3215Z" fill="#EBEBEB"/>
<path d="M26.0331 12.8576L25.5943 17.7947H19.2393V22.616H25.1762L24.6166 28.869L19.2393 30.3204V35.3364L29.1233 32.597L29.1958 31.7825L30.3288 19.0894L30.4464 17.7947L31.3169 8.03613H19.2393V12.8576H26.0331Z" fill="white"/>
</svg>
