<svg width="25" height="35" viewBox="0 0 25 35" fill="none" xmlns="http://www.w3.org/2000/svg">
<path d="M12.4971 0C5.8 0 0.351562 5.44923 0.351562 12.1466C0.351562 18.5933 11.3715 33.6552 11.8407 34.293L12.2786 34.889C12.3298 34.959 12.4114 35 12.4971 35C12.5843 35 12.6653 34.959 12.717 34.889L13.1547 34.293C13.6242 33.6552 24.6438 18.5933 24.6438 12.1466C24.6438 5.44923 19.1945 0 12.4971 0ZM12.4971 7.79568C14.8968 7.79568 16.848 9.74704 16.848 12.1466C16.848 14.5448 14.8967 16.4974 12.4971 16.4974C10.099 16.4974 8.14627 14.5448 8.14627 12.1466C8.14627 9.74704 10.0989 7.79568 12.4971 7.79568Z" fill="white"/>
</svg>
