<svg width="72" height="72" viewBox="0 0 72 72" fill="none" xmlns="http://www.w3.org/2000/svg">
<g clipPath="url(#clip0_2325_4552)">
<path d="M0.0325086 38.127C0.0130034 38.6016 0 39.082 0 39.5625C0 41.8008 0.240563 43.9629 0.715189 46.084C1.16381 48.1641 1.85949 50.168 2.78924 52.1367C2.78924 52.1602 2.81524 52.1953 2.82825 52.2188C3.75149 54.1816 4.87629 56.0156 6.15713 57.7441C7.43146 59.4785 8.90085 61.0723 10.5198 62.5313C12.1387 64.0078 13.9137 65.3145 15.8317 66.457C17.7562 67.623 19.8042 68.6191 21.9628 69.457C24.1669 70.3125 26.436 70.9336 28.7636 71.3613C31.0847 71.7832 33.5033 72 35.987 72C38.4707 72 40.8698 71.7832 43.2234 71.3555C45.5315 70.9512 47.7551 70.3242 49.9397 69.4863C49.9657 69.4863 50.0047 69.4629 50.0307 69.4512C52.1893 68.6191 54.2438 67.6055 56.1618 66.4512C58.0863 65.3027 59.8548 63.9785 61.4737 62.5254C63.1122 61.0664 64.562 59.4668 65.8364 57.7383C67.1302 56.0039 68.229 54.1582 69.1653 52.2129C70.1145 50.2266 70.8037 48.1816 71.2783 46.084C71.7529 43.9805 71.9935 41.8008 71.9935 39.5625C71.9935 39.082 71.9805 38.6074 71.961 38.1328C48.0542 38.127 23.9978 38.127 0.0325086 38.127ZM3.19234 40.9805H13.1465C13.5171 45.416 15.1555 49.8691 18.0683 54.3691H7.53549C6.86581 53.3203 6.26115 52.2305 5.72151 51.082C5.6955 51.0586 5.6955 51.0469 5.6825 51.0234C4.86328 49.2539 4.21311 47.4199 3.8035 45.5156C3.47192 44.0391 3.26386 42.5391 3.19234 40.9805ZM9.58353 57.2109H20.0968C23.0941 61.1016 27.0536 65.0156 31.9754 68.9414C31.0912 68.8477 30.2265 68.7246 29.3878 68.5723C27.2487 68.1797 25.2007 67.6172 23.2111 66.8379C21.2021 66.0645 19.3296 65.1445 17.5741 64.0898C15.8252 63.041 14.2258 61.8516 12.7369 60.5098C11.5926 59.4785 10.5328 58.3887 9.58353 57.2227V57.2109ZM40.0116 68.9414C44.9594 65.0098 48.9059 61.1016 51.8902 57.2109H62.4035C61.4542 58.377 60.3944 59.4727 59.2501 60.498C57.7612 61.8398 56.1618 63.0293 54.4129 64.0781C52.6834 65.127 50.8044 66.041 48.7759 66.8262C48.7499 66.8496 48.7369 66.8496 48.7109 66.8613C46.7473 67.5996 44.7123 68.1855 42.5992 68.5547C41.7345 68.7129 40.8698 68.8301 40.0116 68.9238V68.9414ZM64.458 54.3691H53.9187C56.838 49.875 58.4764 45.4219 58.8405 40.9805H68.7947C68.7101 42.5391 68.5151 44.0391 68.19 45.5156C67.7544 47.4434 67.1302 49.2891 66.2655 51.082C65.7258 52.2246 65.1212 53.3203 64.458 54.3691ZM37.5734 67.0957V57.2109H48.0217C45.2779 60.4805 41.7995 63.7676 37.5734 67.0957ZM37.5734 54.3691V40.9805H55.6872C55.2776 45.3809 53.4636 49.834 50.2258 54.3691H37.5734ZM34.4201 40.9805V54.3691H21.7677C18.5299 49.834 16.7159 45.375 16.3063 40.9805H34.4201ZM34.4201 57.2109V67.0957C30.1875 63.7676 26.709 60.4805 23.9653 57.2109H34.4201Z" fill="white"/>
<path fillRule="evenodd" clipRule="evenodd" d="M54.2372 22.3479L55.362 22.3245L56.2982 22.301C55.1994 19.2717 55.57 16.4885 58.1967 14.1213C58.6388 15.4221 59.6401 16.4944 61.3435 17.2854C62.1563 17.8303 62.943 18.4866 63.7037 19.2424C63.8402 18.7385 63.3266 18.135 62.7024 17.5081C63.2811 17.7659 63.8077 18.1233 64.1913 18.8147C64.6334 19.6174 64.6269 20.2971 64.4774 21.1643C64.4059 21.5686 64.3018 21.9436 64.1458 22.2952H65.6997C67.3381 19.1252 66.2979 14.426 62.943 12.4397C61.9092 11.8303 61.1745 11.8538 59.9652 11.8538C58.5803 11.8538 57.8716 11.8889 56.6883 12.5979C54.9459 13.6409 53.8731 15.4397 53.418 17.9417C53.3334 19.1897 53.2684 21.3459 54.2372 22.3479ZM0.624023 33.5803C0.760559 30.1584 5.31176 30.0237 8.8682 28.0256L11.2478 33.5803H0.624023ZM16.0526 31.6995H16.5207C16.9433 31.6995 17.2879 31.3889 17.2879 31.0081V29.8889C17.2879 29.5081 16.9433 29.1975 16.5207 29.1975H13.7445C13.3219 29.1975 12.9773 29.5081 12.9773 29.8889V31.0081C12.9773 31.3889 13.3219 31.6995 13.7445 31.6995H14.2191L13.8095 33.5803H16.4492L16.0526 31.6995ZM11.1958 25.6116C11.2868 24.9612 9.15427 22.8225 8.76417 21.6389C7.93195 20.4436 7.63287 19.2073 8.54311 17.9417C8.90721 17.4377 8.75117 16.0842 8.75117 15.3928C8.75117 8.5315 22.0992 8.52564 22.0992 15.3928C22.0992 16.26 21.8781 17.3909 22.3983 18.0764C23.2695 19.219 22.8209 20.5842 22.0797 21.6448C21.6116 22.8928 19.3815 24.9084 19.531 25.6174C19.6676 29.1331 11.1698 29.0159 11.1958 25.6116ZM33.1521 24.2639L36.494 33.1057L38.1779 27.8557L37.3522 27.0471C36.9751 26.5549 36.8971 26.1331 37.1052 25.7639C37.5538 24.9729 38.4705 25.1135 39.3287 25.1135C40.2325 25.1135 41.3508 24.9612 41.6303 25.9807C41.7214 26.3264 41.6043 26.678 41.3443 27.0471L40.5186 27.8557L42.2025 33.1057L45.2258 24.2639C49.1593 27.4573 57.0849 25.5881 58.0407 33.5745H19.2774C20.2852 25.1663 29.1861 27.4866 33.1521 24.2639ZM30.4279 12.5569C30.4474 13.0549 30.7335 13.7053 31.2991 14.4612L31.3121 14.4729L33.1781 17.1448C33.9258 18.217 34.6995 19.301 35.6748 20.0979C36.5915 20.8596 37.7228 21.3752 39.1987 21.3752C40.8046 21.3811 41.9684 20.842 42.9242 20.0393C43.9189 19.2014 44.7122 18.0413 45.4924 16.887L47.5924 13.7756C48.0215 12.8967 48.1516 12.3635 48.0085 12.1057C47.9305 11.9592 47.6379 11.9065 47.1698 11.9241C46.8447 12.0061 46.4676 12.0061 46.019 11.8948L46.8707 8.95923C40.291 9.5686 36.5915 4.01978 31.9038 8.23853L32.5149 11.719C31.7542 11.8596 30.3759 11.4143 30.4279 12.5569ZM48.1386 10.9221C48.5807 11.0452 48.8993 11.2678 49.0943 11.6252C49.4129 12.1936 49.2829 13.0432 48.6912 14.2561C48.6782 14.2795 48.6652 14.2971 48.6587 14.3206L46.5326 17.4729C45.7069 18.6917 44.8747 19.9163 43.7564 20.8596C42.5991 21.844 41.1557 22.5002 39.1922 22.4885C37.3587 22.4827 35.9739 21.8557 34.8426 20.9182C33.7503 20.0217 32.9245 18.8674 32.1378 17.7424L30.2718 15.0706C29.5827 14.1389 29.2251 13.2893 29.1991 12.5862C29.1861 12.2463 29.2511 11.9475 29.3941 11.6721C29.5437 11.3909 29.7647 11.1506 30.0703 10.9631C30.2198 10.8811 30.3889 10.7991 30.5644 10.7405C30.4474 9.29907 30.4084 7.51196 30.4864 6.01782C30.5254 5.65454 30.6034 5.29126 30.714 4.92212C31.1886 3.38696 32.3914 2.15649 33.8673 1.30103C34.3874 1.00806 34.9596 0.750245 35.5642 0.556886C39.1402 -0.603271 43.8864 0.035401 46.4286 2.51392C47.4689 3.52173 48.1191 4.86353 48.2556 6.63892L48.1386 10.9221ZM58.5153 28.1077L59.354 25.4768L58.9444 25.0725C58.7559 24.8323 58.7234 24.6155 58.8209 24.4338C59.0419 24.0354 59.5036 24.1116 59.9327 24.1116C60.3813 24.1116 60.9404 24.0295 61.0835 24.5452C61.129 24.7151 61.0705 24.8909 60.9469 25.0784L60.5308 25.4885L61.3696 28.1194L59.9392 29.1389L58.5153 28.1077ZM66.0313 27.1936C65.3941 26.0452 64.5879 25.0667 63.6452 24.1526C65.4136 24.7678 67.2276 25.3772 68.5605 26.1389C69.4122 26.6194 69.8543 26.9827 70.1924 27.5627C70.9271 28.8049 71.0051 29.9124 71.1091 31.26L71.3692 33.5803H61.0315C60.7519 32.5081 60.5959 31.6116 60.0107 30.4221C61.7987 28.8342 63.7037 27.5452 66.0313 27.1936ZM53.3464 25.1897C54.3347 24.7971 55.3555 24.4631 56.2462 24.1526C55.7391 24.6506 55.2709 25.1604 54.8483 25.7053C54.3737 25.5295 53.8731 25.3538 53.3464 25.1897Z" fill="white"/>
</g>
<defs>
<clipPath id="clip0_2325_4552">
<rect width="72" height="72" fill="white"/>
</clipPath>
</defs>
</svg>
