<svg width="120" height="60" viewBox="0 0 120 60" fill="none" xmlns="http://www.w3.org/2000/svg">
<path d="M48.2506 29.0575C48.2506 25.6176 47.27 23.8525 45.3084 23.7555C44.5279 23.7189 43.766 23.8401 43.0245 24.1305C42.4329 24.342 42.0376 24.5518 41.825 24.7635V32.9734C43.0797 33.7607 44.194 34.1295 45.1657 34.0694C47.224 33.9335 48.2504 32.2649 48.2504 29.0573L48.2506 29.0575ZM50.6705 29.2002C50.6705 30.9475 50.2608 32.3977 49.4363 33.5515C48.5177 34.857 47.2446 35.5292 45.6168 35.5661C44.3897 35.6056 43.1257 35.2207 41.825 34.4148V41.8764L39.7207 41.1258V24.5639C40.0661 24.1404 40.5102 23.7767 41.0459 23.4679C42.2984 22.7382 43.8204 22.3626 45.6137 22.3443L45.6436 22.3742C47.2804 22.3536 48.5422 23.0227 49.4284 24.3885C50.2546 25.6387 50.669 27.2411 50.669 29.2002H50.6705ZM63.528 34.0971C63.528 36.4407 63.2931 38.0643 62.8231 38.9666C62.3511 39.8689 61.4533 40.5896 60.1275 41.1264C59.0524 41.5499 57.8896 41.7806 56.6419 41.8195L56.2942 40.4934C57.563 40.3208 58.456 40.148 58.974 39.9754C59.9938 39.63 60.694 39.1005 61.0783 38.3914C61.3867 37.8133 61.5387 36.7109 61.5387 35.0783V34.5305C60.119 35.1794 58.5756 35.5132 57.0146 35.5089C55.9787 35.5089 55.0646 35.1846 54.2773 34.5305C53.3934 33.8191 52.9513 32.9165 52.9513 31.823V23.0653L55.0555 22.3446V31.1599C55.0555 32.1016 55.3595 32.8268 55.9671 33.3355C56.5748 33.8442 57.3623 34.0883 58.3272 34.07C59.2915 34.0494 60.3254 33.6764 61.4237 32.9464V22.6621H63.528V34.0971ZM71.7452 35.4511L71.0521 35.4809C69.8623 35.4809 68.934 35.1979 68.2712 34.6294C67.6105 34.0607 67.2786 33.276 67.2786 32.2742V23.9831H65.8406V22.6592H67.2786V19.1463L69.3807 18.3979V22.6618H71.7452V23.9856H69.3807V32.2189C69.3807 33.0084 69.5921 33.5681 70.0162 33.8949C70.3828 34.1642 70.958 34.3184 71.7452 34.3573V35.4533V35.4511ZM84.4863 35.2785H82.382V27.156C82.382 26.3298 82.1886 25.6182 81.804 25.0243C81.3596 24.3521 80.7427 24.016 79.9506 24.016C78.9863 24.016 77.7795 24.5247 76.3313 25.5423V35.2785H74.2271V15.8634L76.3313 15.2002V24.0431C77.6757 23.0647 79.1448 22.5769 80.7401 22.5769C81.8544 22.5769 82.757 22.9519 83.4475 23.7005C84.1406 24.4489 84.4857 25.381 84.4857 26.4953V35.2813L84.4863 35.2785ZM95.6706 28.7262C95.6706 27.4047 95.4169 26.3135 94.92 25.4498C94.3259 24.3981 93.4031 23.8426 92.1551 23.7854C89.8487 23.9191 88.6971 25.5719 88.6971 28.7395C88.6971 30.1922 88.9368 31.4055 89.4201 32.3768C90.037 33.6175 90.9624 34.2302 92.1966 34.2096C94.5126 34.1912 95.6703 32.3633 95.6703 28.7231L95.6706 28.7262ZM97.9751 28.7403C97.9751 30.621 97.4938 32.1868 96.5371 33.437C95.4803 34.8367 94.0206 35.539 92.1582 35.539C90.3119 35.539 88.8728 34.8341 87.8346 33.437C86.8928 32.1868 86.4234 30.6213 86.4234 28.7403C86.4234 26.9724 86.9323 25.4848 87.9496 24.274C89.0248 22.9894 90.4385 22.3449 92.1858 22.3449C93.9332 22.3449 95.356 22.9894 96.4519 24.274C97.467 25.4851 97.9782 26.9724 97.9782 28.7403H97.9751ZM110.039 35.2785H107.935V26.6955C107.935 25.7538 107.652 25.0196 107.085 24.49C106.521 23.9628 105.763 23.7073 104.822 23.7279C103.823 23.7462 102.872 24.0733 101.969 24.7063V35.2785H99.8651V24.4463C101.076 23.5646 102.19 22.9886 103.208 22.7196C104.168 22.4658 105.013 22.3446 105.745 22.3446C106.245 22.3446 106.715 22.3925 107.156 22.4895C107.983 22.6807 108.655 23.0351 109.173 23.5553C109.751 24.1305 110.039 24.8242 110.039 25.6297V35.2785Z" fill="#646464"/>
<path d="M18.9372 15.9419C17.8545 15.947 16.8205 16.0392 15.9109 16.2002C13.2308 16.6739 12.7444 17.6647 12.7444 19.4921V21.9057H19.0773V22.7101H10.3647C8.52401 22.7101 6.91231 23.8166 6.40873 25.9209C5.82732 28.3331 5.80138 29.8385 6.40873 32.3572C6.85902 34.2323 7.93415 35.5679 9.77452 35.5679H11.9521V32.6747C11.9521 30.5842 13.7606 28.7405 15.9081 28.7405H22.2339C23.9948 28.7405 25.4003 27.2906 25.4003 25.5222V19.4918C25.4003 17.7755 23.9525 16.4861 22.2339 16.1999C21.1461 16.0189 20.0171 15.9366 18.9344 15.9416L18.9372 15.9419ZM15.5094 17.8827C16.1635 17.8827 16.6978 18.4257 16.6978 19.0931C16.6978 19.7586 16.1635 20.2963 15.5094 20.2963C14.853 20.2963 14.3209 19.7583 14.3209 19.0931C14.3209 18.4254 14.8527 17.8827 15.5094 17.8827Z" fill="url(#paint0_linear_1065_2016)"/>
<path d="M26.1953 22.71V25.5223C26.1953 27.7027 24.3467 29.5374 22.2394 29.5374H15.9135C14.1809 29.5374 12.7471 31.0205 12.7471 32.7557V38.7864C12.7471 40.5027 14.2395 41.5121 15.9135 42.0047C17.9155 42.594 19.8407 42.7006 22.2394 42.0047C23.8339 41.5431 25.4058 40.614 25.4058 38.7864V36.3728H19.08V35.5683H28.5722C30.4129 35.5683 31.0986 34.2845 31.7387 32.3576C32.3999 30.3737 32.3717 28.466 31.7387 25.9212C31.2839 24.089 30.4152 22.7105 28.5722 22.7105H26.1953V22.71ZM22.6375 37.9819C23.2939 37.9819 23.826 38.5199 23.826 39.1851C23.826 39.8527 23.2942 40.3955 22.6375 40.3955C21.9833 40.3955 21.449 39.8525 21.449 39.1851C21.449 38.5196 21.9833 37.9819 22.6375 37.9819Z" fill="url(#paint1_linear_1065_2016)"/>
<path d="M114.137 20.7858H114.506V18.4723H115.38V18.1966H113.263V18.4723H114.137V20.7858ZM115.707 20.7858H116.022V18.6728L116.706 20.7858H117.057L117.77 18.6796V20.7858H118.114V18.1963H117.659L116.88 20.4148L116.216 18.1963H115.707V20.7858" fill="#646464"/>
<path opacity="0.444" d="M27.6358 46.1037C27.6358 47.0126 23.8361 47.7495 19.149 47.7495C14.4618 47.7495 10.6621 47.0128 10.6621 46.1037C10.6621 45.1947 14.4618 44.458 19.149 44.458C23.8361 44.458 27.6358 45.1947 27.6358 46.1037Z" fill="url(#paint2_radial_1065_2016)"/>
<defs>
<linearGradient id="paint0_linear_1065_2016" x1="5.9652" y1="15.9413" x2="20.4505" y2="28.5242" gradientUnits="userSpaceOnUse">
<stop stop-color="#5A9FD4"/>
<stop offset="1" stop-color="#306998"/>
</linearGradient>
<linearGradient id="paint1_linear_1065_2016" x1="22.4824" y1="38.982" x2="17.3098" y2="31.5929" gradientUnits="userSpaceOnUse">
<stop stop-color="#FFD43B"/>
<stop offset="1" stop-color="#FFE873"/>
</linearGradient>
<radialGradient id="paint2_radial_1065_2016" cx="0" cy="0" r="1" gradientUnits="userSpaceOnUse" gradientTransform="translate(19.149 46.1037) rotate(-90) scale(1.64569 7.23349)">
<stop stop-color="#B8B8B8" stop-opacity="0.498"/>
<stop offset="1" stop-color="#7F7F7F" stop-opacity="0"/>
</radialGradient>
</defs>
</svg>
