<svg width="72" height="72" viewBox="0 0 72 72" fill="none" xmlns="http://www.w3.org/2000/svg">
<g clipPath="url(#clip0_2325_4327)">
<path d="M9.04691 51.1532C9.78519 50.5691 10.8516 50.7062 11.4258 51.4571C12 52.2081 11.8653 53.2927 11.127 53.8768L3.45121 59.9379L3.39261 67.918L12.6387 67.3936L17.7539 59.1274C18.252 58.3228 19.295 58.0844 20.086 58.591C20.877 59.0976 21.1114 60.1584 20.6133 60.963L15.0645 69.9324C14.7891 70.4152 14.2852 70.7489 13.6934 70.7847L1.78128 71.4581C1.74613 71.4581 1.71683 71.4581 1.68167 71.4581C0.750034 71.4522 -0.00582554 70.6833 3.38375e-05 69.7357L0.0762057 59.2168C0.0351901 58.6625 0.263706 58.0963 0.726596 57.7268L9.04691 51.1532ZM23.6016 32.07C27.4629 20.3352 32.6602 12.0213 39.9786 6.77672C47.5782 1.34141 57.3399 -0.720672 70.1309 0.220972C71.0157 0.28653 71.6895 1.02554 71.7071 1.90759C72.9434 15.9965 70.2598 25.9851 64.5293 33.554C59.0098 40.8309 50.7422 45.7536 40.4707 49.8837V63.6329C40.4707 64.3064 40.0899 64.8904 39.5332 65.1765L29.0801 71.7442C28.2891 72.2448 27.2461 71.9945 26.7539 71.184C26.625 70.9694 26.543 70.737 26.5137 70.5046C24.1993 52.512 21.7383 51.6478 7.27738 46.5582C5.55472 45.9503 3.68558 45.2947 2.42581 44.8418C1.54691 44.5259 1.08402 43.5426 1.39457 42.6426C1.45902 42.4519 1.55863 42.2791 1.67581 42.1301L8.56644 32.1355C8.91214 31.6349 9.46878 31.3787 10.0313 31.4025L23.6016 32.07ZM49.6172 15.329C51.586 15.329 53.3672 16.1395 54.6563 17.4507C55.9453 18.7618 56.7422 20.5736 56.7422 22.5761C56.7422 24.5786 55.9453 26.3903 54.6563 27.7015C53.3672 29.0126 51.586 29.8232 49.6172 29.8232C47.6485 29.8232 45.8672 29.0126 44.5782 27.7015C43.2891 26.3903 42.4922 24.5786 42.4922 22.5761C42.4922 20.5736 43.2891 18.7618 44.5782 17.4507C45.8672 16.1395 47.6485 15.329 49.6172 15.329ZM53.0157 19.1194C52.1485 18.2374 50.9473 17.6891 49.6172 17.6891C48.293 17.6891 47.0918 18.2374 46.2188 19.1194C45.3516 20.0015 44.8125 21.2232 44.8125 22.5761C44.8125 23.923 45.3516 25.1447 46.2188 26.0327C47.086 26.9148 48.2871 27.4631 49.6172 27.4631C50.9414 27.4631 52.1426 26.9148 53.0157 26.0327C53.8829 25.1507 54.4219 23.9289 54.4219 22.5761C54.4219 21.2232 53.8829 20.0015 53.0157 19.1194ZM41.9239 9.59569C35.0039 14.5542 30.0996 22.6714 26.4375 34.287C26.2383 35.0558 25.5352 35.6101 24.7207 35.5684L10.793 34.877L5.64847 42.3446C6.73832 42.732 7.57621 43.03 8.37894 43.3101C23.8008 48.7335 27.0059 49.8599 29.5137 67.4293L37.0782 62.6794V48.7156H37.084C37.084 48.0243 37.5 47.3747 38.168 47.1125C48.3985 43.1075 56.5723 38.4112 61.8457 31.4502C66.8789 24.805 69.3164 15.9846 68.4434 3.5644C57.1758 2.93267 48.5684 4.84576 41.9239 9.59569Z" fill="#0094DA"/>
</g>
<defs>
<clipPath id="clip0_2325_4327">
<rect width="72" height="72" fill="white"/>
</clipPath>
</defs>
</svg>
