<svg width="120" height="60" viewBox="0 0 120 60" fill="none" xmlns="http://www.w3.org/2000/svg">
<path fillRule="evenodd" clipRule="evenodd" d="M17.363 26.5056C18.527 21.8456 21.44 19.5156 26.099 19.5156C33.089 19.5156 33.961 24.7556 37.455 25.6306C39.785 26.2136 41.823 25.3406 43.57 23.0106C42.406 27.6696 39.493 29.9996 34.835 29.9996C27.845 29.9996 26.973 24.7596 23.479 23.8846C21.149 23.3016 19.111 24.1746 17.364 26.5046L17.363 26.5056ZM8.62695 36.9896C9.79295 32.3296 12.703 29.9996 17.363 29.9996C24.353 29.9996 25.225 35.2396 28.719 36.1146C31.049 36.6976 33.087 35.8246 34.834 33.4946C33.67 38.1546 30.757 40.4846 26.098 40.4846C19.108 40.4846 18.236 35.2446 14.742 34.3696C12.412 33.7866 10.374 34.6596 8.62695 36.9896Z" fill="url(#paint0_linear_1065_2040)"/>
<path fillRule="evenodd" clipRule="evenodd" d="M49.9296 27.5777H47.6426V26.2077H53.8126V27.5777H51.5266V33.7917H49.9296V27.5777ZM56.7996 33.0907C56.5879 33.3318 56.3379 33.5362 56.0596 33.6957C55.7876 33.8517 55.4346 33.9297 55.0016 33.9297C54.7626 33.9309 54.5246 33.8986 54.2946 33.8337C54.0706 33.7697 53.8746 33.6707 53.7086 33.5367C53.5426 33.4027 53.4086 33.2317 53.3106 33.0217C53.2126 32.8117 53.1606 32.5637 53.1606 32.2717C53.1606 31.8897 53.2456 31.5777 53.4166 31.3367C53.588 31.0948 53.8187 30.9009 54.0866 30.7737C54.3626 30.6387 54.6726 30.5437 55.0166 30.4867C55.3637 30.4296 55.714 30.3942 56.0656 30.3807L56.7776 30.3487V30.0727C56.7776 29.7327 56.6846 29.4987 56.4956 29.3727C56.3066 29.2467 56.0856 29.1827 55.8316 29.1827C55.2416 29.1827 54.9056 29.4057 54.8216 29.8527L53.4616 29.7257C53.5596 29.1457 53.8156 28.7257 54.2266 28.4657C54.6376 28.2057 55.1916 28.0777 55.8866 28.0777C56.3116 28.0777 56.6736 28.1277 56.9716 28.2317C57.2696 28.3357 57.5096 28.4817 57.6896 28.6717C57.8741 28.8693 58.0091 29.1079 58.0836 29.3677C58.1656 29.6397 58.2056 29.9477 58.2056 30.2877V33.7927H56.7996V33.0927V33.0907ZM56.7676 31.3167L56.1076 31.3487C55.7956 31.3617 55.5436 31.3947 55.3526 31.4447C55.1616 31.4947 55.0126 31.5567 54.9126 31.6307C54.8126 31.7047 54.7396 31.7907 54.7056 31.8907C54.6716 31.9907 54.6526 32.1007 54.6526 32.2207C54.6526 32.4047 54.7166 32.5507 54.8426 32.6557C54.9686 32.7607 55.1476 32.8157 55.3726 32.8157C55.7566 32.8157 56.0686 32.7277 56.3086 32.5497C56.4436 32.4497 56.5546 32.3237 56.6386 32.1727C56.7226 32.0217 56.7656 31.8307 56.7656 31.6047V31.3177L56.7676 31.3167ZM59.4136 28.2467H60.9036V33.7907H59.4136V28.2467ZM59.3936 26.2067H60.9236V27.5447H59.3936V26.2067ZM62.1776 26.2067H63.6676V33.7907H62.1776V26.2067ZM64.3346 28.2467H65.9506L66.7276 31.9217L67.7896 28.2997H69.0876L70.0876 31.9327L70.8646 28.2577H72.4176L70.8006 33.8017H69.3536L68.3636 30.1477L67.3636 33.8017H65.9496L64.3336 28.2577L64.3346 28.2467ZM73.0946 28.2467H74.5846V33.7907H73.0946V28.2467ZM73.0746 26.2067H74.6046V27.5447H73.0746V26.2067ZM75.8486 28.2467H77.2956V29.0117C77.5156 28.6867 77.7756 28.4487 78.0756 28.2997C78.3756 28.1507 78.6906 28.0767 79.0156 28.0767C79.6476 28.0767 80.1156 28.2417 80.4206 28.5707C80.7256 28.8997 80.8786 29.4187 80.8786 30.1267V33.7907H79.3896V30.3297C79.3896 29.9297 79.3156 29.6747 79.1656 29.5327C79.0156 29.3907 78.8186 29.3207 78.5706 29.3207C78.3806 29.3207 78.2146 29.3507 78.0756 29.4057C77.9366 29.4607 77.8076 29.5437 77.6876 29.6497C77.5876 29.7497 77.5046 29.8677 77.4376 30.0057C77.3705 30.1466 77.3363 30.3008 77.3376 30.4567V33.7917H75.8376V28.2477L75.8486 28.2467ZM85.9286 33.0587C85.742 33.3434 85.4858 33.5758 85.1843 33.7338C84.8827 33.8919 84.5459 33.9703 84.2056 33.9617C83.4256 33.9617 82.8456 33.6997 82.4606 33.1757C82.0756 32.6517 81.8866 31.9257 81.8866 30.9987C81.8821 30.598 81.9381 30.1988 82.0526 29.8147C82.1626 29.4567 82.3196 29.1487 82.5256 28.8907C82.7278 28.6354 82.9862 28.4301 83.2806 28.2907C83.5806 28.1507 83.9156 28.0787 84.2906 28.0787C84.5666 28.0787 84.8406 28.1287 85.1136 28.2287C85.3866 28.3287 85.6436 28.5287 85.8856 28.8027V26.2107H87.3756V33.7947H85.9296V33.0617L85.9286 33.0587ZM85.8966 30.9557C85.8966 30.6017 85.8666 30.3187 85.7966 30.1057C85.7266 29.8927 85.6386 29.7207 85.5046 29.5857C85.3766 29.4587 85.2366 29.3857 85.0846 29.3357C84.9373 29.2972 84.7858 29.2777 84.6336 29.2777C84.4742 29.277 84.3165 29.3097 84.1706 29.3737C84.0246 29.4377 83.8986 29.5367 83.7876 29.6707C83.6766 29.8047 83.5906 29.9827 83.5276 30.2007C83.4646 30.4187 83.4316 30.6807 83.4316 30.9867C83.4316 31.3187 83.4616 31.5967 83.5316 31.8207C83.6016 32.0447 83.6746 32.2247 83.7816 32.3627C83.8886 32.5007 84.0116 32.5997 84.1536 32.6597C84.2956 32.7197 84.4486 32.7597 84.6116 32.7597C84.9656 32.7597 85.2566 32.6567 85.4836 32.4517C85.6268 32.307 85.734 32.1306 85.7966 31.9367C85.8626 31.7347 85.8966 31.4747 85.8966 31.1567V30.9667V30.9557ZM97.5386 31.1677C97.5026 31.5717 97.4086 31.9447 97.2566 32.2877C97.109 32.6238 96.8958 32.9271 96.6296 33.1797C96.3474 33.4415 96.014 33.642 95.6506 33.7687C95.2646 33.9087 94.8166 33.9807 94.3056 33.9807C93.7316 33.9807 93.2256 33.8847 92.7896 33.6937C92.3672 33.5128 91.9925 33.2366 91.6946 32.8867C91.3996 32.5397 91.1786 32.1197 91.0296 31.6267C90.8806 31.1337 90.8066 30.5907 90.8066 29.9967C90.8066 29.3807 90.8866 28.8287 91.0506 28.3397C91.2146 27.8507 91.4486 27.4337 91.7526 27.0867C92.0566 26.7397 92.4266 26.4737 92.8586 26.2897C93.2906 26.1057 93.7816 26.0137 94.3286 26.0137C94.8106 26.0137 95.2316 26.0737 95.5886 26.1937C95.9456 26.3137 96.2486 26.4877 96.4936 26.7137C96.7386 26.9397 96.9336 27.2137 97.0836 27.5317C97.2394 27.8736 97.35 28.2343 97.4126 28.6047L95.8376 28.8067C95.7596 28.3607 95.6076 28.0097 95.3876 27.7547C95.1676 27.4997 94.8096 27.3727 94.3276 27.3727C93.7176 27.3727 93.2546 27.6007 92.9406 28.0577C92.6266 28.5147 92.4656 29.1597 92.4656 29.9957C92.4656 30.8387 92.6356 31.4957 92.9716 31.9397C93.1237 32.1564 93.3272 32.332 93.5639 32.4507C93.8005 32.5693 94.0629 32.6274 94.3276 32.6197C94.8176 32.6197 95.1776 32.4937 95.4076 32.2427C95.6376 31.9917 95.7806 31.6327 95.8376 31.1647L97.5386 31.1677ZM99.8556 31.3177C99.8906 31.7847 100.042 32.1247 100.306 32.3377C100.57 32.5507 100.963 32.6577 101.481 32.6577C101.729 32.6577 101.939 32.6307 102.109 32.5777C102.279 32.5247 102.417 32.4537 102.524 32.3657C102.626 32.2832 102.704 32.1752 102.752 32.0527C102.799 31.9272 102.822 31.7939 102.821 31.6597C102.821 31.4597 102.748 31.2747 102.599 31.1017C102.45 30.9287 102.177 30.8017 101.779 30.7247L100.789 30.5447C100.389 30.4747 100.055 30.3817 99.7566 30.2687C99.4586 30.1557 99.2086 30.0087 99.0066 29.8287C98.8046 29.6487 98.6506 29.4267 98.5446 29.1647C98.4386 28.9027 98.3846 28.5907 98.3846 28.2297C98.378 27.898 98.4529 27.5698 98.6026 27.2737C98.7471 26.999 98.9548 26.7625 99.2086 26.5837C99.4686 26.3997 99.7786 26.2597 100.139 26.1637C100.499 26.0677 100.899 26.0207 101.331 26.0207C101.884 26.0207 102.345 26.0847 102.714 26.2107C103.083 26.3367 103.381 26.5057 103.608 26.7157C103.835 26.9257 104.003 27.1657 104.113 27.4437C104.223 27.7217 104.296 28.0067 104.333 28.3037L102.833 28.4937C102.755 28.0757 102.605 27.7737 102.383 27.5907C102.161 27.4077 101.821 27.3147 101.367 27.3147C101.097 27.3147 100.877 27.3377 100.702 27.3847C100.527 27.4317 100.388 27.4907 100.282 27.5647C100.184 27.6286 100.106 27.7187 100.058 27.8247C100.016 27.9247 99.9936 28.0267 99.9936 28.1327C99.9936 28.4157 100.074 28.6287 100.234 28.7697C100.394 28.9107 100.664 29.0217 101.047 29.0997L102.089 29.3017C102.912 29.4647 103.515 29.7287 103.899 30.0917C104.283 30.4547 104.473 30.9917 104.473 31.6687C104.473 32.0007 104.411 32.3087 104.287 32.5887C104.159 32.8717 103.97 33.1222 103.733 33.3217C103.462 33.545 103.15 33.7114 102.814 33.8107C102.446 33.9277 102.014 33.9857 101.516 33.9857C100.48 33.9857 99.6876 33.7657 99.1386 33.3217C98.5896 32.8777 98.2926 32.2217 98.2386 31.3197H99.8446L99.8556 31.3177ZM106.756 31.3177C106.791 31.7847 106.942 32.1247 107.206 32.3377C107.47 32.5507 107.866 32.6577 108.381 32.6577C108.631 32.6577 108.839 32.6307 109.011 32.5777C109.183 32.5247 109.319 32.4537 109.426 32.3657C109.528 32.2832 109.606 32.1752 109.654 32.0527C109.701 31.9272 109.724 31.7939 109.723 31.6597C109.72 31.4526 109.64 31.2539 109.5 31.1017C109.35 30.9287 109.078 30.8017 108.68 30.7247L107.69 30.5447C107.29 30.4747 106.956 30.3817 106.658 30.2687C106.36 30.1557 106.11 30.0087 105.908 29.8287C105.706 29.6487 105.552 29.4267 105.445 29.1647C105.338 28.9027 105.285 28.5907 105.285 28.2297C105.278 27.898 105.353 27.5698 105.503 27.2737C105.649 26.9977 105.851 26.7667 106.109 26.5737C106.367 26.3807 106.679 26.2497 107.039 26.1537C107.399 26.0577 107.799 26.0107 108.231 26.0107C108.784 26.0107 109.245 26.0747 109.614 26.2007C109.983 26.3267 110.28 26.4957 110.508 26.7057C110.736 26.9157 110.904 27.1557 111.013 27.4337C111.122 27.7117 111.196 27.9967 111.233 28.2937L109.733 28.4837C109.655 28.0657 109.505 27.7637 109.283 27.5807C109.061 27.3977 108.721 27.3047 108.267 27.3047C107.997 27.3047 107.777 27.3277 107.602 27.3747C107.427 27.4217 107.288 27.4807 107.182 27.5547C107.084 27.6186 107.006 27.7087 106.958 27.8147C106.915 27.9147 106.894 28.0167 106.894 28.1227C106.894 28.4057 106.974 28.6187 107.134 28.7597C107.294 28.9007 107.564 29.0117 107.948 29.0897L109 29.2997C109.823 29.4627 110.426 29.7267 110.81 30.0897C111.194 30.4527 111.384 30.9897 111.384 31.6667C111.387 31.9828 111.324 32.296 111.198 32.5857C111.071 32.8688 110.881 33.1195 110.644 33.3187C110.4 33.5287 110.094 33.6907 109.724 33.8087C109.354 33.9267 108.924 33.9837 108.427 33.9837C107.391 33.9837 106.599 33.7637 106.049 33.3197C105.499 32.8757 105.203 32.2197 105.161 31.3177H106.756Z" fill="#24292E"/>
<defs>
<linearGradient id="paint0_linear_1065_2040" x1="8.62695" y1="0.880625" x2="43.57" y2="59.1186" gradientUnits="userSpaceOnUse">
<stop stop-color="#2383AE"/>
<stop offset="1" stop-color="#6DD7B9"/>
</linearGradient>
</defs>
</svg>
