<svg width="76" height="72" viewBox="0 0 76 72" fill="none" xmlns="http://www.w3.org/2000/svg">
<g clipPath="url(#clip0_2325_4558)">
<path d="M57.2984 54.0714C57.3429 53.4991 57.7378 53.0829 58.1786 53.1407C58.6195 53.1985 58.9401 53.711 58.8956 54.2833C58.774 55.7995 58.7195 57.3235 58.7323 58.8479C64.6847 56.6937 68.5945 52.4529 70.781 47.3315L58.1341 42.4182C57.5849 44.2255 56.5636 45.6552 55.3153 46.5299C52.7562 48.318 50.8904 47.264 48.499 46.3373L44.5135 44.7881L38.4335 42.4259L38.4231 42.422L38.2019 42.3353C37.0189 41.8768 36.6745 40.6282 36.3108 39.3045L36.293 39.2332C35.7423 37.2428 35.3267 37.1716 34.1808 35.8189L32.3668 38.3623C31.9675 38.7997 31.7286 39.2467 31.6276 39.6513C31.4836 40.2351 31.6217 40.7245 32.0729 40.9288C33.4104 41.4798 34.9036 42.266 36.244 42.8999L35.6963 44.8594L34.6558 44.3681L34.6261 44.5068C34.3618 45.7149 34.1021 46.8941 33.8987 48.1369C34.3069 48.6089 34.727 48.9654 35.156 49.1947C35.6636 49.4664 36.201 49.5627 36.7636 49.4721C37.2044 49.4028 37.6067 49.8093 37.6601 50.3816C37.7121 50.9538 37.3989 51.476 36.958 51.5434C36.1208 51.6802 35.3148 51.5319 34.5459 51.1215C34.1941 50.9346 33.8527 50.6899 33.5202 50.3931L33.4534 50.8979C33.3673 51.5993 33.302 52.3238 33.2604 53.0617C33.2455 53.3119 33.1624 53.5469 33.0259 53.7245C32.3238 54.6937 31.1897 56.5107 31.7835 57.975C32.0136 58.5415 32.4767 59.0386 33.1046 59.4606C34.1154 60.1407 35.5152 60.5954 37.099 60.8267C38.6131 61.0482 40.3528 61.1388 42.0123 60.9692C43.3586 60.8324 44.6456 60.5203 45.6921 59.9731C46.8929 59.345 47.7346 57.5993 48.4931 56.2717C49.2442 54.9615 50.5549 52.6725 51.7112 52.1003C52.1254 51.8941 52.5914 52.1658 52.7488 52.7033C52.9061 53.2428 52.6983 53.8459 52.2827 54.0502C51.5598 54.4085 50.4302 56.3816 49.7815 57.5126C48.787 59.2486 47.9157 61.0559 46.2888 61.9076C45.2512 62.4509 44.0385 62.79 42.7738 62.9731C42.7857 63.0309 42.7931 63.0925 42.7975 63.1542C42.8584 64.1369 42.9 66.081 42.8584 67.8729C42.8272 69.2062 42.7471 70.4702 42.5927 71.2255C42.5654 71.3578 42.5183 71.4819 42.4541 71.5906C42.3899 71.6994 42.3098 71.7906 42.2184 71.8591C42.127 71.9277 42.0261 71.9721 41.9215 71.99C41.8168 72.0079 41.7105 71.9989 41.6086 71.9635C41.1796 71.817 40.9258 71.2428 41.04 70.6879C41.1633 70.0906 41.2286 68.9981 41.2553 67.8151C41.2939 66.1292 41.2523 64.2698 41.1944 63.3161C41.19 63.2505 41.1915 63.185 41.1974 63.1215C39.7308 63.1927 38.245 63.0945 36.9239 62.8999C35.153 62.6398 33.5603 62.1137 32.3698 61.3141C31.4554 60.6995 30.7563 59.9114 30.3629 58.9461C29.4233 56.634 30.4921 54.2583 31.6796 52.5434C31.7226 51.8979 31.7865 51.239 31.8696 50.5704C32.1323 48.4394 32.6325 45.9789 33.0793 43.9365L33.1432 43.6513L31.5653 42.9037C30.2947 42.345 29.6801 40.7072 30.1017 39.0136C30.2858 38.2698 30.6717 37.5049 31.2877 36.8151L33.1031 34.264C32.6979 33.4529 32.5079 32.528 32.7661 31.4066L34.9185 22.081C35.1174 21.2929 35.5404 20.6706 36.0674 20.3026C36.3494 20.106 36.6611 19.9808 36.9862 19.9403L35.8358 18.6764C35.6735 18.4978 35.5724 18.2429 35.5546 17.9677C35.5368 17.6925 35.6038 17.4194 35.7408 17.2082L35.87 17.0482C46.6911 6.43745 56.2475 6.06943 63.1632 10.8074C67.2051 13.5762 70.3342 18.0906 72.2802 23.3238C74.1698 28.4085 74.9491 34.1831 74.3732 39.7014C74.8942 40.1137 75.3113 40.6976 75.5918 41.3739C75.9941 42.345 76.1203 43.5107 75.8754 44.6436L75.8412 44.7862C75.5666 45.9076 74.9669 46.7958 74.2173 47.318C73.6725 47.7033 73.0432 47.8902 72.4034 47.8421C70.0314 53.7457 65.6287 58.634 58.8006 60.9808C58.8318 61.555 58.8748 62.1253 58.9268 62.686C59.1747 65.3122 59.6482 67.7727 60.3206 70.0868C60.4764 70.6243 60.2657 71.2255 59.8515 71.4278C59.7528 71.4763 59.6477 71.499 59.5422 71.4947C59.4367 71.4903 59.3329 71.4589 59.2368 71.4023C59.1407 71.3458 59.0541 71.2651 58.982 71.165C58.91 71.0649 58.8539 70.9473 58.8169 70.8189C58.0985 68.3469 57.5923 65.7245 57.3296 62.9403C57.0698 60.1619 57.049 57.212 57.2984 54.0714ZM3.97521 12.8055C4.36263 12.5415 4.84357 12.7322 5.04693 13.2351C5.25029 13.738 5.10185 14.3623 4.71591 14.6263L1.86591 16.582L3.32208 20.1581C3.52544 20.661 3.377 21.2852 2.98958 21.5492C2.80331 21.676 2.5859 21.7018 2.38502 21.6209C2.18413 21.54 2.01614 21.359 1.91786 21.1176L0.092083 16.634C-0.112761 16.1311 0.0356767 15.5068 0.423099 15.2428L3.97521 12.8055ZM10.8657 41.4008C10.6623 40.8979 10.8093 40.2737 11.1967 40.0097C11.5841 39.7457 12.0651 39.9384 12.2684 40.4413L13.7736 44.1407L16.5301 42.2486C16.9175 41.9847 17.3984 42.1773 17.6018 42.6802C17.8051 43.1831 17.6567 43.8074 17.2693 44.0714L13.8136 46.4413C13.4262 46.7072 12.9453 46.5145 12.7419 46.0116L10.8657 41.4008ZM20.8333 4.37772C20.647 4.50451 20.4296 4.53028 20.2287 4.44938C20.0278 4.36847 19.8598 4.1875 19.7615 3.94612C19.5582 3.44323 19.7066 2.81895 20.094 2.55498L23.6461 0.119528C24.0336 -0.146368 24.5145 0.0463099 24.7179 0.5492L26.5436 5.03475C26.747 5.53571 26.6 6.15999 26.2126 6.42396C25.8252 6.68985 25.3443 6.49718 25.1409 5.99429L23.6862 2.42011L20.8333 4.37772ZM16.3356 37.2371C16.0758 37.3045 15.7983 37.2101 15.5979 36.95L7.33138 26.3373C7.08943 26.0251 7.02708 25.5665 7.1488 25.1793L10.6772 10.3257C10.7929 9.83244 11.1626 9.52993 11.5455 9.58196L22.2672 9.27174C22.4646 9.26789 22.6472 9.3546 22.7911 9.50103L31.5772 17.8035C31.8815 18.0887 31.9868 18.5974 31.8607 19.0328L31.8503 19.081L28.3323 33.8922C28.2581 34.2949 28.0058 34.6205 27.6733 34.6937L16.3579 37.2313L16.3549 37.2332L16.3356 37.2371ZM11.8721 12.4875L8.83505 25.2737L15.7923 34.2062L19.0045 20.686L11.8721 12.4875ZM20.5631 21.3218L17.3479 34.8517L26.9029 32.7091L29.9458 19.8979L20.5631 21.3218ZM22.0267 11.4008L13.6014 11.6436L20.2054 19.2351L28.9246 17.9172L22.0267 11.4008ZM11.9908 21.2679C12.0799 20.8941 12.3857 20.6841 12.6722 20.7978C12.9601 20.9134 13.1219 21.3103 13.0343 21.6821C12.8696 22.3739 12.6722 23.106 12.5341 23.7997L13.3045 24.7014C13.5257 24.9635 13.5435 25.4124 13.3431 25.6995C13.2462 25.8383 13.111 25.9216 12.9669 25.9314C12.8228 25.9411 12.6816 25.8765 12.5742 25.7515L11.691 24.7091C11.5426 24.4856 11.4624 24.2313 11.4446 23.9577C11.4297 23.7226 11.4579 23.4837 11.5203 23.2486L11.9908 21.2679ZM46.9657 39.0714C47.0931 39.1208 47.2117 39.2023 47.3148 39.3113C47.418 39.4203 47.5035 39.5546 47.5667 39.7065C47.6298 39.8584 47.6692 40.0249 47.6828 40.1967C47.6963 40.3684 47.6836 40.5418 47.6455 40.7072C47.6073 40.8727 47.5444 41.0268 47.4603 41.1607C47.3762 41.2947 47.2727 41.4058 47.1555 41.4877C47.0383 41.5697 46.9099 41.6209 46.7775 41.6383C46.645 41.6558 46.5113 41.6393 46.3838 41.5897C46.2564 41.5403 46.1377 41.4588 46.0346 41.3499C45.9315 41.2409 45.846 41.1065 45.783 40.9546C45.7199 40.8026 45.6807 40.636 45.6674 40.4642C45.654 40.2925 45.667 40.119 45.7054 39.9538C45.8643 39.2583 46.4298 38.8633 46.9657 39.0714ZM42.3626 37.2833C42.4902 37.3323 42.6091 37.4136 42.7125 37.5224C42.8158 37.6313 42.9015 37.7656 42.9647 37.9177C43.0279 38.0697 43.0673 38.2364 43.0806 38.4083C43.094 38.5802 43.081 38.7538 43.0425 38.9191C42.8836 39.6147 42.3181 40.0097 41.7822 39.8016C41.6548 39.7522 41.5362 39.6706 41.4331 39.5617C41.3299 39.4527 41.2444 39.3184 41.1812 39.1665C41.1181 39.0146 41.0787 38.848 41.0651 38.6763C41.0516 38.5046 41.0643 38.3311 41.1024 38.1658C41.1402 38.0002 41.2029 37.8459 41.2867 37.7118C41.3706 37.5778 41.4741 37.4665 41.5912 37.3845C41.7083 37.3025 41.8367 37.2514 41.9691 37.234C42.1015 37.2166 42.2352 37.2334 42.3626 37.2833ZM55.5869 29.108C55.6003 29.4529 55.5691 29.8093 55.489 30.1581L53.2609 39.819C52.7636 41.975 51.5717 43.7823 50.0042 44.7457C50.6187 44.9847 51.1843 45.2486 51.83 45.3064C52.7087 45.3854 53.5711 45.1292 54.3222 44.6032C57.1975 42.5897 58.0005 34.7303 58.762 31.4317C58.792 31.3 58.8017 31.1619 58.7905 31.0253C58.7793 30.8888 58.7474 30.7564 58.6967 30.6359C58.4874 30.1311 58.0332 30.0579 57.6517 29.9095L55.5869 29.108ZM49.5099 42.7342C50.54 42.0136 51.3609 40.7823 51.7216 39.2236L53.9497 29.5608C54.012 29.2872 53.9838 29.002 53.8858 28.7669C53.6409 28.1735 52.7161 27.9924 52.2931 27.8267L38.0787 22.3026C37.7284 22.1677 37.4211 21.975 37.059 22.2294C36.9663 22.2935 36.8844 22.3809 36.8179 22.4864C36.7514 22.5919 36.7016 22.7134 36.6715 22.844L34.5385 32.0926C34.3143 33.0656 35.2124 34.0694 36.0511 35.0039C37.2074 36.2929 37.5221 36.7534 38.0565 38.6937C38.2761 39.4914 38.4854 40.2486 38.8743 40.4201L38.8936 40.4278L44.9499 42.7823C46.55 43.4047 47.7717 43.9519 49.5099 42.7342ZM59.6378 36.002L58.6165 40.4278L71.0289 45.2506C71.7117 45.5164 72.2312 45.8035 72.9615 45.291C73.3623 45.0116 73.6829 44.5319 73.8225 43.9268C73.9605 43.318 73.8967 42.6879 73.68 42.1677C73.2629 41.16 72.6008 41.0386 71.8601 40.7515L59.6378 36.002ZM60.3443 29.738C60.6279 30.422 60.7169 31.2428 60.5492 32.0386L60.0979 34.002L72.825 38.95C73.2673 33.9789 72.5355 28.8055 70.8329 24.2313C69.0309 19.3816 66.1408 15.2043 62.4165 12.6513C56.1747 8.37772 47.5446 8.66095 37.6497 17.9365L40.3528 20.9191C40.3795 20.9558 40.4032 20.9962 40.4255 21.0386L43.5665 22.2602L52.7948 25.8459C54.585 26.5415 56.3751 27.239 58.1653 27.9326C59.0722 28.2852 59.8189 28.4779 60.3443 29.738Z" fill="white"/>
</g>
<defs>
<clipPath id="clip0_2325_4558">
<rect width="76" height="72" fill="white"/>
</clipPath>
</defs>
</svg>
