<svg width="120" height="60" viewBox="0 0 120 60" fill="none" xmlns="http://www.w3.org/2000/svg">
<path fillRule="evenodd" clipRule="evenodd" d="M43.4824 11.9521H51.9645L30.5469 48.86L8.98828 11.9521H17.6633L30.5469 34.1714L43.4824 11.9521Z" fill="#41B883"/>
<path fillRule="evenodd" clipRule="evenodd" d="M35.4671 11.9453H43.5343L30.5362 34.2108L17.6426 11.9453H25.5837L30.5362 20.5172L35.4671 11.9453Z" fill="#35495E"/>
<path fillRule="evenodd" clipRule="evenodd" d="M57.0264 19.2313C57.0264 18.959 57.1775 18.7321 57.4798 18.5506C57.7821 18.3691 58.0981 18.2783 58.4279 18.2783C58.8859 18.2783 59.1698 18.4508 59.2798 18.7957L64.1164 34.9688L68.9255 18.7957C69.0537 18.4508 69.3285 18.2783 69.7499 18.2783C70.098 18.2783 70.4231 18.3782 70.7254 18.5778C71.0277 18.7775 71.1789 19.0044 71.1789 19.2585C71.1789 19.2767 71.1744 19.3039 71.1651 19.3402C71.1559 19.3765 71.1514 19.4128 71.1514 19.4491L65.5729 37.5554C65.3713 38.0818 64.8859 38.345 64.1164 38.345C63.3469 38.345 62.8798 38.0818 62.7149 37.5554L57.0816 19.4491C57.0449 19.3402 57.0264 19.2676 57.0264 19.2313ZM71.3954 33.1716V26.0926C71.3954 25.8748 71.5099 25.6842 71.7389 25.5208C71.9679 25.3575 72.2381 25.2758 72.5496 25.2758C72.8427 25.2758 73.1038 25.362 73.3328 25.5344C73.5618 25.7069 73.6763 25.8929 73.6763 26.0926V33.1716C73.6763 33.9884 73.9878 34.7235 74.6107 35.377C75.2336 36.0304 75.9755 36.3572 76.8366 36.3572C77.6794 36.3572 78.4121 36.035 79.035 35.3906C79.6579 34.7462 79.9694 34.0065 79.9694 33.1716V26.065C79.9694 25.8653 80.0839 25.6838 80.3129 25.5204C80.5419 25.3571 80.8121 25.2754 81.1236 25.2754C81.4533 25.2754 81.7236 25.3525 81.9343 25.5068C82.145 25.6611 82.2503 25.8472 82.2503 26.065V33.1716C82.2503 34.5693 81.7144 35.7899 80.6427 36.8337C79.571 37.8774 78.3022 38.3992 76.8366 38.3992C75.3527 38.3992 74.0749 37.8774 73.0031 36.8337C71.9314 35.7899 71.3954 34.5693 71.3954 33.1716ZM84.1152 33.1171V30.2582C84.1152 28.8605 84.6511 27.6535 85.7228 26.637C86.7946 25.6205 88.0816 25.1123 89.5839 25.1123C91.0129 25.1123 92.2495 25.5887 93.2938 26.5417C94.338 27.4947 94.8602 28.6881 94.8602 30.1221C94.8602 30.6485 94.796 31.0705 94.6678 31.3882C94.5396 31.7059 94.3426 31.9327 94.077 32.0689C93.8113 32.2051 93.564 32.2913 93.335 32.3276C93.106 32.3639 92.7991 32.382 92.4144 32.382H86.396V33.1989C86.396 34.1972 86.7578 34.9959 87.4815 35.5949C88.2052 36.1939 89.1441 36.4934 90.2983 36.4934C90.9029 36.4934 91.4296 36.4026 91.8784 36.2211C92.3272 36.0396 92.6891 35.8626 92.9639 35.6902C93.2387 35.5178 93.4585 35.4316 93.6234 35.4316C93.8799 35.4316 94.0997 35.545 94.283 35.7719C94.4662 35.9988 94.5578 36.2302 94.5578 36.4662C94.5578 36.8837 94.141 37.3102 93.3074 37.7458C92.4738 38.1815 91.4433 38.3993 90.2158 38.3993C88.4204 38.3993 86.9548 37.9138 85.819 36.9426C84.6831 35.9715 84.1152 34.6963 84.1152 33.1171ZM86.3961 30.8573H91.48C91.9563 30.8573 92.2769 30.7983 92.4419 30.6803C92.6068 30.5623 92.6892 30.3309 92.6892 29.986C92.6892 29.1692 92.3869 28.4522 91.7823 27.835C91.1778 27.2179 90.4358 26.9093 89.5564 26.9093C88.6953 26.9093 87.9534 27.1952 87.3305 27.7669C86.7076 28.3387 86.3961 29.0421 86.3961 29.877L86.3961 30.8573ZM96.011 36.9289C96.011 36.5296 96.1484 36.1892 96.4232 35.9079C96.698 35.6265 97.0369 35.4859 97.44 35.4859C97.8247 35.4859 98.1545 35.6265 98.4293 35.9079C98.7041 36.1892 98.8415 36.5296 98.8415 36.9289C98.8415 37.3101 98.7041 37.6414 98.4293 37.9227C98.1545 38.2041 97.8247 38.3447 97.44 38.3447C97.0369 38.3447 96.698 38.2041 96.4232 37.9227C96.1484 37.6414 96.011 37.3101 96.011 36.9289ZM98.0411 43.4363C98.0411 43.1459 98.1327 42.9054 98.3159 42.7148C98.4991 42.5242 98.719 42.4289 98.9755 42.4289C99.69 42.4289 100.157 42.1657 100.377 41.6393C100.597 41.113 100.707 40.3234 100.707 39.2706V26.0652C100.707 25.8292 100.812 25.6386 101.023 25.4934C101.233 25.3482 101.504 25.2756 101.833 25.2756C102.163 25.2756 102.438 25.3482 102.658 25.4934C102.878 25.6386 102.988 25.8292 102.988 26.0652V39.2706C102.988 40.8498 102.676 42.1022 102.053 43.028C101.43 43.9537 100.487 44.4165 99.2228 44.4165C98.4351 44.4165 98.0411 44.0898 98.0411 43.4363ZM100.404 20.4291C100.404 20.0842 100.542 19.7847 100.817 19.5306C101.091 19.2764 101.43 19.1494 101.833 19.1494C102.218 19.1494 102.548 19.2764 102.823 19.5306C103.098 19.7847 103.235 20.0842 103.235 20.4291C103.235 20.7739 103.098 21.078 102.823 21.3412C102.548 21.6044 102.218 21.736 101.833 21.736C101.449 21.736 101.114 21.6044 100.83 21.3412C100.546 21.078 100.404 20.7739 100.404 20.4291ZM104.688 36.3297C104.688 36.0937 104.766 35.8623 104.922 35.6354C105.077 35.4086 105.265 35.2951 105.485 35.2951C105.631 35.2951 105.842 35.404 106.117 35.6218C106.392 35.8397 106.786 36.0529 107.299 36.2617C107.812 36.4704 108.416 36.5748 109.112 36.5748C110.028 36.5748 110.692 36.4114 111.105 36.0847C111.517 35.758 111.723 35.3496 111.723 34.8595C111.723 34.2604 111.494 33.784 111.036 33.43C110.578 33.076 110.019 32.8083 109.36 32.6268C108.7 32.4453 108.041 32.2456 107.381 32.0278C106.721 31.81 106.163 31.4469 105.705 30.9387C105.247 30.4304 105.018 29.7588 105.018 28.9238C105.018 27.8892 105.389 26.9952 106.131 26.242C106.873 25.4887 108.004 25.112 109.524 25.112C110.495 25.112 111.384 25.2618 112.19 25.5613C112.996 25.8608 113.399 26.2011 113.399 26.5823C113.399 26.8001 113.312 27.0451 113.138 27.3174C112.964 27.5897 112.749 27.7258 112.492 27.7258C112.419 27.7258 112.066 27.5942 111.434 27.331C110.802 27.0678 110.175 26.9362 109.552 26.9362C108.709 26.9362 108.082 27.1314 107.669 27.5216C107.257 27.9119 107.051 28.3521 107.051 28.8422C107.051 29.3504 107.28 29.7498 107.738 30.0402C108.196 30.3306 108.76 30.5575 109.428 30.7209C110.097 30.8842 110.761 31.0839 111.421 31.3199C112.08 31.5559 112.639 31.9597 113.097 32.5315C113.555 33.1033 113.784 33.8429 113.784 34.7505C113.784 35.8759 113.381 36.7654 112.575 37.4188C111.769 38.0723 110.642 38.399 109.195 38.399C107.949 38.399 106.886 38.1766 106.007 37.7319C105.128 37.2872 104.688 36.8198 104.688 36.3297Z" fill="#010101"/>
</svg>
