<svg width="72" height="72" viewBox="0 0 72 72" fill="none" xmlns="http://www.w3.org/2000/svg">
<path d="M19.4781 23.9414L35.6924 18.5449C35.8857 18.4805 36.0908 18.4863 36.2666 18.5449L52.6918 24.1699C53.0961 24.3047 53.3422 24.6973 53.3012 25.1074C53.3071 25.125 53.3071 25.1484 53.3071 25.1719V44.2734H53.3012C53.3012 44.6016 53.1196 44.9238 52.8031 45.082L36.4952 53.3672C36.3604 53.4492 36.1963 53.4961 36.0264 53.4961C35.8447 53.4961 35.6748 53.4434 35.5341 53.3496L19.1852 44.8242C18.8746 44.6602 18.6988 44.3496 18.6988 44.0215V24.8438C18.6929 24.3809 19.0328 24.0059 19.4781 23.9414ZM14.2277 12.6914L19.1852 17.6484C19.6188 18.082 19.6188 18.7793 19.1852 19.2129C18.7574 19.6406 18.0542 19.6406 17.6264 19.2129L12.7042 14.291L12.8389 17.5488C12.8389 17.5781 12.8389 17.6133 12.8272 17.6426C12.751 17.8887 12.5928 18.0996 12.3936 18.2461C12.1944 18.3926 11.9541 18.4805 11.6904 18.4805C11.3623 18.4863 11.0575 18.3516 10.8407 18.1348C10.6181 17.918 10.4833 17.6191 10.4774 17.2852C10.3837 15.4102 10.1903 13.3125 10.1903 11.4668C10.1903 11.0918 10.3192 10.7754 10.5477 10.5527C10.7704 10.3359 11.0751 10.207 11.4384 10.2012C13.0089 10.1426 15.6634 10.3535 17.2983 10.4707C17.6264 10.4766 17.9253 10.6055 18.1362 10.8223C18.3472 11.0332 18.482 11.3262 18.4937 11.6484V11.6777C18.4937 12.0059 18.3589 12.3105 18.1421 12.5273C17.9311 12.7383 17.6382 12.873 17.3159 12.8789H17.2924C16.2962 12.8789 15.5286 12.8086 14.7668 12.7383L14.2277 12.6914ZM4.12534 34.9102H11.1337C11.7431 34.9102 12.2354 35.4023 12.2354 36.0117C12.2354 36.6211 11.7431 37.1133 11.1337 37.1133H4.17221L6.57475 39.3223C6.59819 39.3457 6.61577 39.3691 6.63335 39.3984C6.75055 39.627 6.79157 39.8848 6.75055 40.1309C6.71539 40.3711 6.60405 40.6055 6.41654 40.793C6.188 41.0273 5.87743 41.1504 5.57272 41.1504C5.26215 41.1504 4.95157 41.0391 4.71718 40.8047C3.3284 39.5449 1.70522 38.1973 0.39847 36.8906C0.128917 36.6328 0 36.3223 0 36.0059C0 35.6953 0.128917 35.3906 0.38089 35.1328C1.44738 33.9785 3.48075 32.2559 4.71718 31.1836C4.95157 30.9551 5.25629 30.8379 5.561 30.8379C5.85985 30.8379 6.1587 30.9492 6.3931 31.166L6.41654 31.1895C6.65093 31.4238 6.76813 31.7344 6.76813 32.0391C6.76813 32.3379 6.65679 32.6367 6.43412 32.8711L6.4224 32.8887C5.71922 33.5977 5.12737 34.084 4.53553 34.5703L4.12534 34.9102ZM12.6924 57.7734L17.6499 52.8164C18.0776 52.3887 18.7808 52.3887 19.2086 52.8164C19.6422 53.25 19.6422 53.9473 19.2086 54.3809L14.2863 59.3027L17.5444 59.168C17.5737 59.168 17.6089 59.1738 17.6382 59.1797C17.8843 59.2617 18.0952 59.4141 18.2417 59.6133C18.3882 59.8125 18.4761 60.0527 18.4761 60.3164C18.4761 60.6445 18.3472 60.9492 18.1304 61.166C17.9136 61.3887 17.6147 61.5234 17.2807 61.5293C15.4056 61.623 13.3077 61.8164 11.456 61.8164C11.081 61.8164 10.7645 61.6875 10.5419 61.4648C10.3251 61.2422 10.1961 60.9375 10.1903 60.5742C10.1258 59.0039 10.3426 56.3496 10.4598 54.7148C10.4657 54.3867 10.5946 54.0879 10.8114 53.877C11.0224 53.666 11.3154 53.5312 11.6318 53.5195H11.6611C11.9893 53.5195 12.294 53.6543 12.5108 53.8711C12.7217 54.082 12.8565 54.375 12.8682 54.6973V54.7148C12.8741 55.7168 12.7979 56.4785 12.7276 57.2402L12.6924 57.7734ZM34.913 67.8691V60.8613C34.913 60.252 35.4052 59.7598 36.0146 59.7598C36.6241 59.7598 37.1163 60.252 37.1163 60.8613V67.8223L39.3255 65.4199C39.3489 65.3965 39.3723 65.3789 39.4016 65.3613C39.6302 65.2441 39.888 65.2031 40.1341 65.2441C40.3744 65.2793 40.6088 65.3906 40.7963 65.5781C41.0307 65.8066 41.1537 66.1172 41.1537 66.4277C41.1537 66.7383 41.0424 67.0488 40.808 67.2832C39.5481 68.6719 38.2004 70.2949 36.8936 71.6016C36.6241 71.8652 36.3135 72 35.9971 72C35.6865 72 35.3818 71.8711 35.124 71.6191C33.9696 70.5527 32.2468 68.5254 31.1744 67.2832C30.9459 67.0488 30.8287 66.7441 30.8287 66.4395C30.8287 66.1406 30.94 65.8359 31.1568 65.6074L31.1803 65.584C31.4147 65.3496 31.7252 65.2324 32.03 65.2324C32.3288 65.2324 32.6277 65.3438 32.8621 65.5664L32.8738 65.5781C33.5828 66.2812 34.0692 66.873 34.5555 67.4648L34.913 67.8691ZM57.7781 59.3086L52.8207 54.3516C52.3871 53.918 52.3871 53.2207 52.8207 52.7871C53.2485 52.3594 53.9517 52.3594 54.3794 52.7871L59.3017 57.709L59.1669 54.4512C59.1669 54.4219 59.1669 54.3867 59.1786 54.3574C59.2548 54.1113 59.413 53.9004 59.6123 53.7539C59.8115 53.6074 60.0518 53.5195 60.3155 53.5195C60.6436 53.5137 60.9483 53.6484 61.1651 53.8652C61.3878 54.082 61.5226 54.3809 61.5284 54.7148C61.6222 56.5898 61.8156 58.6875 61.8156 60.5391C61.8156 60.9141 61.6867 61.2305 61.4581 61.4531C61.2355 61.6699 60.9307 61.7988 60.5674 61.8047C58.997 61.8633 56.3425 61.6523 54.7076 61.5352C54.3794 61.5293 54.0806 61.4004 53.8696 61.1836C53.6587 60.9727 53.5239 60.6797 53.5122 60.3574V60.3281C53.5122 60 53.6469 59.6953 53.8638 59.4785C54.0747 59.2676 54.3677 59.1328 54.69 59.1211H54.7134C55.7155 59.1152 56.4773 59.1914 57.2332 59.2617L57.7781 59.3086ZM67.8805 37.084H60.8721C60.2627 37.084 59.7646 36.5918 59.7646 35.9824C59.7646 35.373 60.2627 34.8809 60.8721 34.8809H67.8336L65.4311 32.6719C65.4077 32.6484 65.3901 32.625 65.3725 32.5957C65.2553 32.3672 65.2143 32.1094 65.2553 31.8633C65.2905 31.623 65.4018 31.3887 65.5893 31.2012C65.8237 30.9668 66.1284 30.8437 66.439 30.8437C66.7496 30.8437 67.0601 30.9551 67.2945 31.1895C68.6833 32.4492 70.3065 33.7969 71.6132 35.1035C71.8769 35.373 72.0117 35.6836 72.0059 36C72.0059 36.3105 71.8769 36.6152 71.625 36.873C70.5585 38.0273 68.5251 39.75 67.2887 40.8223C67.0543 41.0508 66.7496 41.168 66.4449 41.168C66.146 41.168 65.8413 41.0566 65.6128 40.8398L65.5893 40.8164C65.3549 40.582 65.2377 40.2715 65.2377 39.9668C65.2377 39.668 65.3491 39.3633 65.5717 39.1348L65.5835 39.1172C66.2866 38.4082 66.8785 37.9219 67.4703 37.4355L67.8805 37.084ZM59.3076 14.2266L54.3501 19.1836C53.9224 19.6113 53.2192 19.6113 52.7914 19.1836C52.3578 18.75 52.3578 18.0527 52.7914 17.625L57.7137 12.7031L54.4556 12.8379C54.4263 12.8379 54.3911 12.832 54.3618 12.8262C54.1157 12.7441 53.9048 12.5918 53.7583 12.3926C53.6118 12.1934 53.5239 11.9531 53.5239 11.6895C53.5239 11.3613 53.6528 11.0566 53.8696 10.8398C54.0864 10.6172 54.3853 10.4824 54.7193 10.4766C56.5944 10.3828 58.6923 10.1895 60.544 10.1895C60.919 10.1895 61.2355 10.3184 61.4581 10.541C61.6749 10.7637 61.8039 11.0684 61.8097 11.4316C61.8742 13.002 61.6574 15.6563 61.5402 17.291C61.5343 17.6191 61.4054 17.918 61.1886 18.1348C60.9776 18.3457 60.6846 18.4805 60.3623 18.4922H60.333C60.0049 18.4922 59.7002 18.3574 59.4834 18.1406C59.2724 17.9297 59.1376 17.6367 59.1259 17.3145V17.2969C59.1259 16.2949 59.1962 15.5332 59.2665 14.7715L59.3076 14.2266ZM37.087 4.125V11.1328C37.087 11.7422 36.5948 12.2344 35.9854 12.2344C35.3759 12.2344 34.8778 11.7422 34.8778 11.1328V4.17773L32.6745 6.57422C32.6511 6.59766 32.6277 6.61523 32.5984 6.63281C32.3698 6.75 32.112 6.79102 31.8659 6.75C31.6256 6.71484 31.3912 6.60352 31.2037 6.41602C30.9693 6.1875 30.8463 5.87695 30.8463 5.57227C30.8463 5.26172 30.9576 4.95117 31.192 4.7168C32.4519 3.32813 33.7996 1.70508 35.1064 0.398438C35.3642 0.128906 35.6806 0 35.9971 0C36.3076 0 36.6124 0.128906 36.8702 0.380859C38.0246 1.44727 39.7474 3.47461 40.8197 4.7168C41.0483 4.95117 41.1655 5.25586 41.1655 5.56055C41.1655 5.85937 41.0541 6.1582 40.8373 6.39258L40.8139 6.41602C40.5795 6.65039 40.2689 6.76758 39.9642 6.76758C39.6653 6.76758 39.3665 6.65625 39.1321 6.43359L39.1145 6.42188C38.4055 5.71875 37.9191 5.12695 37.4327 4.53516L37.087 4.125ZM23.0644 37.9395C23.0644 37.5938 23.3456 37.3066 23.6972 37.3066C24.043 37.3066 24.3301 37.5879 24.3301 37.9395V40.5117C24.3301 40.5293 24.3301 40.5527 24.3242 40.5762C24.3242 40.6641 24.336 40.7344 24.3535 40.793C24.3653 40.8105 24.3711 40.8281 24.3887 40.8398L25.965 41.5723C26.2814 41.7187 26.4162 42.0937 26.2756 42.4102C26.1291 42.7266 25.7599 42.8613 25.4435 42.7207L23.832 41.9707C23.8027 41.959 23.7734 41.9473 23.75 41.9238C23.4921 41.7598 23.3105 41.543 23.1992 41.2734C23.1113 41.0566 23.0702 40.8164 23.0761 40.5586V40.5176L23.0644 37.9395ZM35.1181 51.0996V32.8242L20.5095 26.2031V43.4766L35.1181 51.0996ZM51.4847 26.4199L36.9346 32.8359V51.1172L51.4847 43.7227V26.4199ZM35.9678 20.3555L22.1561 24.9551L36.0322 31.248L49.9084 25.1367L35.9678 20.3555Z" fill="#0094DA"/>
</svg>
