<svg width="24" height="24" viewBox="0 0 24 24" fill="none" xmlns="http://www.w3.org/2000/svg">
<path fillRule="evenodd" clipRule="evenodd" d="M2.59025 1.322L5.43425 0L9.47525 7.889L6.75125 9.231C6.21325 10.49 8.91025 15.52 10.0482 15.603C10.1382 15.545 12.7192 14.275 12.7192 14.275L16.8292 22.207C16.8292 22.207 14.0652 23.561 13.9752 23.603C13.3772 23.876 12.7602 24.002 12.1332 24C6.48425 23.981 0.0472468 13.57 0.00024677 6.67C-0.0157532 4.263 0.745247 2.283 2.59025 1.322ZM4.52025 2.596L3.49725 3.1C-1.79675 5.862 7.67425 24.285 13.1452 21.786L14.1172 21.312L11.8462 16.929L10.8202 17.43C7.65725 18.977 2.55825 9.211 5.76525 7.492L6.77225 6.994L4.52025 2.596ZM20.0002 17H19.0002V4H20.0002V17ZM18.0002 15H17.0002V6H18.0002V15ZM22.0002 14H21.0002V7H22.0002V14ZM16.0002 13H15.0002V8H16.0002V13ZM14.0002 12H13.0002V9H14.0002V12ZM24.0002 12H23.0002V9H24.0002V12ZM12.0002 11H11.0002V10H12.0002V11Z" fill="white"/>
</svg>
