<svg width="72" height="82" viewBox="0 0 72 82" fill="none" xmlns="http://www.w3.org/2000/svg">
<g clipPath="url(#clip0_2325_4339)">
<path d="M14.5616 60.7924C15.1897 60.4921 15.9393 60.7523 16.2365 61.3729C16.5336 61.9935 16.277 62.7343 15.6489 63.0279C14.5481 63.5551 13.3054 63.7219 11.9142 63.5817C11.1645 63.5017 10.3676 63.3348 9.53691 63.0813C9.57068 63.4016 9.60445 63.7152 9.64497 64.0355C9.76653 64.9297 9.92862 65.8506 10.138 66.7915C10.2123 67.1185 10.1447 67.4455 9.98265 67.7124C9.28028 69.1205 8.92234 70.295 8.8548 71.2692C8.78726 72.2836 9.06416 73.0443 9.60445 73.5915C10.2055 74.1921 11.151 74.5925 12.3464 74.8194C14.2509 75.1731 16.6957 75.0663 19.3499 74.5925C21.8825 74.1454 24.7325 73.418 27.3529 72.417C29.4803 71.6029 31.4523 70.6019 32.9584 69.4141C34.4306 68.253 35.106 66.3511 35.6801 64.7229C35.8016 64.3825 35.9164 64.0622 35.9705 63.9221L36.1393 63.4683C36.8619 61.5064 38.1181 58.0964 39.7457 56.8552C40.2928 56.4348 41.0829 56.5349 41.5084 57.0821C41.9339 57.6226 41.8326 58.4034 41.2788 58.8238C40.2252 59.6246 39.1311 62.6008 38.4963 64.3225C38.368 64.6761 38.395 64.6094 38.3275 64.7829C38.1924 65.1433 38.1181 65.3435 38.0506 65.5437C37.3617 67.4856 36.558 69.7544 34.5184 71.3627C32.8098 72.7107 30.6149 73.8317 28.2579 74.7326C27.7243 74.9395 27.1773 75.133 26.6302 75.3132C26.6505 76.1273 26.6235 76.9348 26.5424 77.7489C26.4276 78.8833 26.225 79.9978 25.9279 81.0855C25.7455 81.7461 25.0567 82.1399 24.3881 81.9664C23.7194 81.7862 23.321 81.1055 23.4966 80.4449C23.76 79.4639 23.9491 78.483 24.0436 77.5153C24.0909 77.0349 24.1179 76.5544 24.1247 76.0673C22.6456 76.4677 21.1733 76.788 19.7956 77.0349C16.8443 77.5554 14.0956 77.6755 11.8872 77.2618C10.1988 76.9481 8.80077 76.3208 7.81475 75.3399C6.7747 74.2922 6.23441 72.9042 6.34922 71.1224C6.43026 69.9146 6.82197 68.5199 7.59188 66.9183C7.42304 66.0975 7.27446 65.25 7.15965 64.3692C7.03133 63.3882 6.94354 62.4006 6.90301 61.3996C6.89626 61.3663 6.89626 61.3262 6.89626 61.2928C6.88951 61.2528 6.88275 61.2061 6.876 61.1661C6.69365 59.2909 6.67339 57.4624 6.64638 55.614L6.63962 55.1869L3.73558 55.0201H3.70181C2.94541 54.9934 2.2633 54.7732 1.696 54.4061C1.1422 54.0525 0.70322 53.5586 0.412816 52.9714C0.135918 52.3775 -0.0126605 51.7235 0.000846657 51.0028C0.0211074 50.0085 0.358787 48.9008 1.09493 47.7663L4.20158 41.4869C5.72789 38.4105 5.70763 38.0035 5.64685 36.3886C5.61983 35.6612 5.57931 34.7336 5.62659 33.3389C5.68061 31.6773 5.86971 30.0891 6.23441 28.601C6.49104 27.5466 6.83548 26.5456 7.28121 25.598L1.62846 23.1623C0.993624 22.8887 0.70322 22.1547 0.980117 21.5274C1.02064 21.4406 1.06791 21.3606 1.11519 21.2872C14.6224 3.09607 29.8787 -1.90881 42.7848 0.600307C50.3218 2.06841 57.0416 6.11902 62.1203 11.611C67.199 17.0964 70.6501 24.0365 71.6767 31.3036C73.3583 43.2553 68.5025 56.0544 53.55 64.7162C53.4217 64.7896 53.2867 64.843 53.1448 64.863C53.1516 66.6781 53.2664 68.4332 53.4758 70.1415C53.8945 73.5181 54.6914 76.6879 55.8328 79.6641C56.0759 80.3047 55.7517 81.0188 55.0966 81.2657C54.4483 81.5059 53.7256 81.1856 53.4758 80.5383C52.2669 77.3685 51.4159 74.0119 50.9769 70.4418C50.5379 66.885 50.5042 63.108 50.9229 59.0774C50.9904 58.3967 51.6118 57.8962 52.3006 57.9696C52.9895 58.0363 53.496 58.6503 53.4217 59.3309C53.3272 60.2385 53.2596 61.1327 53.2124 62.0202C66.4021 53.9724 70.6974 42.4211 69.1846 31.6439C68.2323 24.8773 65.0109 18.4043 60.2699 13.286C55.5491 8.17436 49.302 4.41069 42.3053 3.04269C30.5743 0.760463 16.6619 5.26486 4.08677 21.514L9.45587 23.8296C9.53016 23.8563 9.60445 23.8897 9.67198 23.9297C10.2663 24.2834 10.4554 25.0508 10.0975 25.6381C9.44236 26.7124 8.97637 27.9003 8.6657 29.1815C8.34153 30.5028 8.17944 31.9242 8.12541 33.419C8.08489 34.7203 8.11866 35.6078 8.14567 36.2951C8.23347 38.4039 8.25373 38.931 6.45052 42.5813L3.33037 48.8807C3.30335 48.9408 3.26958 49.0075 3.22906 49.0676C2.73605 49.815 2.51318 50.489 2.49967 51.0562C2.49292 51.3632 2.54695 51.6301 2.65501 51.8436C2.74956 52.0372 2.88463 52.1906 3.05347 52.2974C3.24932 52.4242 3.49245 52.4976 3.76935 52.5109C3.80312 52.5109 3.83688 52.5109 3.87065 52.5109L7.47032 52.7178C7.58513 52.6778 7.70669 52.6578 7.83501 52.6578C7.87553 52.6578 7.92281 52.6578 7.96333 52.6644V52.6578L11.2793 52.938C11.975 52.9914 12.4882 53.592 12.4274 54.2793C12.3734 54.9667 11.7656 55.4738 11.07 55.4138L11.0024 55.4071L9.1317 55.3003L9.13845 55.5539C9.15871 57.1688 9.17897 58.7637 9.31404 60.3786C10.3609 60.7657 11.3131 61.0126 12.1573 61.0993C13.1028 61.2061 13.8997 61.106 14.5616 60.7924ZM49.6802 14.1268C49.5317 13.8733 49.3088 13.6998 49.0319 13.6263C48.755 13.5529 48.4713 13.593 48.2147 13.7398L46.81 14.5406C46.5601 14.2736 46.2899 14.0134 45.9995 13.7865C45.7159 13.5463 45.412 13.3327 45.1013 13.1325L45.5538 11.4442C45.6281 11.1573 45.6011 10.897 45.4525 10.6434C45.3039 10.3899 45.0878 10.2297 44.7974 10.1563L42.6565 9.59575C42.3864 9.52234 42.123 9.55571 41.8528 9.70252C41.5962 9.84933 41.4274 10.0562 41.3463 10.3431L40.9276 11.8846C40.5494 11.878 40.1712 11.8913 39.7997 11.9247C39.4283 11.9581 39.0704 12.0315 38.7259 12.1115L37.8142 10.5901C37.6724 10.3365 37.4698 10.1763 37.1861 10.0962C36.9092 10.0228 36.6391 10.0629 36.3689 10.2097L34.4779 11.3041C34.2213 11.4509 34.0457 11.6711 33.9714 11.9447C33.8971 12.2183 33.9376 12.4986 34.0862 12.7522L34.8966 14.1402C34.6265 14.3871 34.3766 14.654 34.1335 14.941C33.8904 15.2212 33.6742 15.5215 33.4716 15.8352L31.763 15.3881C31.4726 15.3147 31.2092 15.3414 30.9525 15.4882C30.6959 15.635 30.5338 15.8485 30.4595 16.1355L29.8922 18.2509C29.8179 18.5178 29.8517 18.778 30.0003 19.045C30.1489 19.2985 30.3582 19.4654 30.6486 19.5455L32.2087 19.9592C32.202 20.3329 32.2155 20.7066 32.2492 21.0736C32.283 21.4406 32.3505 21.801 32.4316 22.1613L30.8918 23.0422C30.6351 23.1823 30.473 23.3825 30.392 23.6628C30.3177 23.9364 30.3582 24.2033 30.5068 24.4703L31.6076 26.3721C31.7562 26.619 31.9858 26.7792 32.2627 26.8526C32.5396 26.926 32.8165 26.8993 33.0732 26.7592L34.4847 25.9384C34.7346 26.2053 35.0047 26.4522 35.2951 26.6924C35.5787 26.9327 35.8827 27.1462 36.1933 27.3464L35.7408 29.0347C35.6665 29.3217 35.6936 29.5819 35.8421 29.8355C35.9907 30.0891 36.2068 30.2492 36.4972 30.3226L38.6381 30.8832C38.9083 30.9566 39.1717 30.9232 39.4418 30.7764C39.6984 30.6296 39.8673 30.4227 39.9483 30.1358L40.367 28.5943C40.7452 28.601 41.1234 28.5876 41.4949 28.5542C41.8663 28.5209 42.231 28.4541 42.5957 28.3741L43.4872 29.8956C43.629 30.1491 43.8384 30.316 44.1288 30.3894C44.4192 30.4628 44.6893 30.4227 44.9325 30.2759L46.8572 29.1882C47.1071 29.028 47.2692 28.8145 47.3435 28.5409C47.4178 28.2673 47.3908 27.9937 47.2489 27.7401L46.4183 26.3454C46.6884 26.0985 46.9383 25.8316 47.1814 25.5446C47.4245 25.2644 47.6407 24.9641 47.8433 24.6571L49.5519 25.1042C49.8423 25.1776 50.1057 25.1509 50.3623 25.0041C50.619 24.8573 50.7811 24.6438 50.8554 24.3568L51.4227 22.2414C51.497 21.9745 51.4632 21.7142 51.3146 21.4473C51.166 21.1937 50.9567 21.0269 50.6663 20.9468L49.1062 20.5331C49.1129 20.1661 49.0927 19.8057 49.0657 19.432C49.0319 19.0583 48.9644 18.7046 48.8833 18.351L50.4231 17.4501C50.6798 17.3099 50.8419 17.1097 50.9229 16.8295C50.9972 16.5559 50.9567 16.2889 50.8081 16.022L49.7005 14.1535L49.6802 14.1268ZM58.4599 28.601C58.3518 28.4675 58.2235 28.4074 58.0614 28.3941C57.8994 28.3807 57.7508 28.4275 57.6292 28.5342L56.9403 29.0948C56.7783 28.968 56.6094 28.8679 56.4338 28.7544C56.2515 28.6543 56.0691 28.5676 55.88 28.4875L55.9611 27.5332C55.9746 27.3731 55.9273 27.2263 55.826 27.1128C55.7247 26.9927 55.5896 26.926 55.4275 26.906L54.2186 26.7992C54.0633 26.7925 53.9215 26.8326 53.7932 26.9327C53.6716 27.0328 53.5973 27.1662 53.5838 27.3264L53.5028 28.2006C53.3002 28.2273 53.0908 28.274 52.9017 28.3274C52.6991 28.3874 52.5167 28.4475 52.3344 28.5276L51.6996 27.7868C51.5983 27.66 51.4699 27.5933 51.3078 27.58C51.1458 27.5666 51.0107 27.6133 50.8756 27.7201L49.9504 28.4875C49.8153 28.5943 49.7545 28.7211 49.741 28.8812C49.7275 29.0414 49.7748 29.1882 49.8828 29.3083L50.4501 29.989C50.3218 30.1491 50.2205 30.316 50.1057 30.4895C50.0044 30.6696 49.9166 30.8498 49.8356 31.0367L48.8698 30.9566C48.7077 30.9432 48.5591 30.99 48.4443 31.0901C48.3228 31.1901 48.2552 31.3236 48.235 31.4838L48.1269 32.6783C48.1202 32.8318 48.1607 32.9719 48.262 33.0987C48.3633 33.2188 48.4984 33.2922 48.6604 33.3055L49.5452 33.3856C49.5722 33.5858 49.6195 33.7927 49.6735 33.9795C49.7343 34.1797 49.795 34.3666 49.8693 34.5534L49.1264 35.174C48.9981 35.2741 48.9306 35.4009 48.9171 35.5611C48.9036 35.7212 48.9508 35.8547 49.0589 35.9882L49.8288 36.9157C49.9436 37.0359 50.0652 37.1026 50.2273 37.1159C50.3894 37.1293 50.5379 37.0826 50.6528 36.9958L51.3416 36.4219C51.5037 36.5487 51.6725 36.6488 51.8481 36.7623C52.0305 36.8624 52.2128 36.9491 52.4019 37.0292L52.3209 37.9834C52.3074 38.1436 52.3547 38.2904 52.456 38.4039C52.5573 38.524 52.6923 38.5907 52.8544 38.6107L54.0633 38.7175C54.2187 38.7242 54.3605 38.6841 54.4888 38.584C54.6104 38.4839 54.6846 38.3505 54.6982 38.1903L54.7792 37.3161C54.9818 37.2894 55.1912 37.2427 55.3803 37.1893C55.5829 37.1293 55.772 37.0692 55.9611 36.9958L56.5892 37.7299C56.6905 37.8567 56.8188 37.9234 56.9876 37.9367C57.1497 37.9501 57.2983 37.9034 57.4131 37.8033L58.3518 37.0425C58.4734 36.9291 58.5409 36.809 58.5544 36.6488C58.568 36.4887 58.5342 36.3485 58.4329 36.2284L57.8453 35.5411C57.9736 35.3809 58.0749 35.2141 58.1898 35.0406C58.2911 34.8604 58.3789 34.6802 58.4599 34.4867L59.4324 34.5668C59.5945 34.5801 59.7431 34.5334 59.8579 34.4333C59.9795 34.3332 60.047 34.1998 60.0673 34.0396L60.1753 32.8451C60.1821 32.6916 60.1415 32.5515 60.0402 32.4247C59.9389 32.2979 59.8039 32.2312 59.6418 32.2178L58.7571 32.1377C58.73 31.9375 58.6895 31.744 58.6287 31.5438C58.568 31.3436 58.5072 31.1568 58.4261 30.9833L59.1758 30.356C59.3041 30.2559 59.3716 30.1291 59.3851 29.969C59.3987 29.8088 59.3514 29.6753 59.2433 29.5419L58.4667 28.6277L58.4599 28.601ZM54.3402 30.6363C54.6306 30.663 54.9008 30.743 55.1574 30.8698C55.4073 31.01 55.6234 31.1768 55.7922 31.377C55.9611 31.5839 56.0961 31.8241 56.1907 32.091C56.2852 32.358 56.3123 32.6449 56.2852 32.9318C56.2582 33.2188 56.1772 33.4857 56.0489 33.7393C55.907 33.9862 55.7382 34.1998 55.5356 34.3666C55.3262 34.5334 55.0831 34.6669 54.813 34.7603C54.5428 34.8537 54.2524 34.8804 53.962 34.8537C53.6716 34.827 53.4015 34.747 53.1448 34.6202C52.8949 34.48 52.6788 34.3132 52.51 34.113C52.3411 33.9061 52.2061 33.6659 52.1115 33.399C52.017 33.132 51.99 32.8451 52.017 32.5582C52.044 32.2712 52.125 32.0043 52.2534 31.7507C52.3952 31.5038 52.564 31.2902 52.7666 31.1234C52.976 30.9566 53.2191 30.8231 53.4893 30.7297C53.7594 30.6363 54.0498 30.6096 54.3402 30.6363ZM41.7718 16.0754C42.3526 16.2289 42.8591 16.4758 43.3251 16.8295C43.7776 17.1832 44.1423 17.5969 44.4259 18.064C44.7028 18.5311 44.8784 19.0583 44.9662 19.6255C45.0473 20.1994 45.0135 20.76 44.8582 21.3272C44.7028 21.9011 44.453 22.4016 44.095 22.862C43.7371 23.3091 43.3184 23.6695 42.8456 23.9498C42.3729 24.2234 41.8393 24.3969 41.2653 24.4836C40.698 24.5704 40.1172 24.5303 39.5431 24.3768C38.9623 24.2234 38.4558 23.9764 37.9898 23.6228C37.5373 23.2691 37.1726 22.8554 36.8889 22.3882C36.612 21.9211 36.4365 21.3939 36.3487 20.8267C36.2609 20.2662 36.3014 19.6923 36.4567 19.125C36.612 18.5512 36.8619 18.0507 37.2199 17.5902C37.5778 17.1431 37.9965 16.7828 38.476 16.5025C38.9488 16.2289 39.4823 16.0554 40.0564 15.9686C40.6304 15.8886 41.1977 15.9219 41.7718 16.0754ZM25.4146 35.8147C26.0157 36.155 26.225 36.9157 25.8806 37.5096C25.5362 38.1036 24.7663 38.3104 24.1652 37.9701C22.9563 37.2894 21.7879 36.9758 20.6601 36.9758C19.4444 36.9758 18.2625 37.3361 17.1279 37.9701C16.5269 38.3104 15.757 38.0969 15.4193 37.503C15.0749 36.9091 15.291 36.1483 15.892 35.8147C17.4048 34.9672 19.0054 34.4934 20.6601 34.4934C22.2201 34.4934 23.8072 34.9071 25.4146 35.8147ZM20.2616 38.2704C19.2891 38.2704 18.4989 39.0512 18.4989 40.0121C18.4989 40.973 19.2891 41.7538 20.2616 41.7538C21.2341 41.7538 22.0243 40.973 22.0243 40.0121C22.0243 39.0512 21.2341 38.2704 20.2616 38.2704Z" fill="white"/>
</g>
<defs>
<clipPath id="clip0_2325_4339">
<rect width="72" height="82" fill="white"/>
</clipPath>
</defs>
</svg>
