<svg width="128" height="128" viewBox="0 0 128 128" fill="none" xmlns="http://www.w3.org/2000/svg">
<path d="M126.5 83.7998C126.5 87.5998 123.4 90.6998 119.6 90.6998H8.4C4.6 90.6998 1.5 87.5998 1.5 83.7998V44.1998C1.5 40.3998 4.6 37.2998 8.4 37.2998H119.6C123.4 37.2998 126.5 40.3998 126.5 44.1998V83.7998Z" fill="#003A2B"/>
<path d="M22.9998 45.5996H28.9998V72.9996C25.9998 73.5996 23.6998 73.7996 21.2998 73.7996C14.0998 73.7996 10.2998 70.4996 10.2998 64.2996C10.2998 58.2996 14.2998 54.2996 20.4998 54.2996C21.4998 54.2996 22.1998 54.3996 23.0998 54.5996V45.5996H22.9998ZM22.9998 59.3996C22.2998 59.1996 21.6998 59.0996 20.9998 59.0996C17.9998 59.0996 16.2998 60.8996 16.2998 64.1996C16.2998 67.3996 17.9998 69.0996 20.9998 69.0996C21.6998 69.0996 22.1998 69.0996 22.9998 68.8996V59.3996ZM38.3998 54.7996V68.4996C38.3998 73.1996 38.0998 75.4996 36.9998 77.4996C35.9998 79.3996 34.7998 80.5996 32.1998 81.8996L26.6998 79.2996C29.2998 78.0996 30.5998 76.9996 31.3998 75.2996C32.1998 73.5996 32.4998 71.5996 32.4998 66.4996V54.7996H38.3998ZM32.4998 45.6996H38.3998V51.7996H32.4998V45.6996ZM41.9998 56.0996C44.5998 54.8996 47.0998 54.2996 49.7998 54.2996C52.7998 54.2996 54.7998 55.0996 55.6998 56.6996C56.1998 57.5996 56.3998 58.6996 56.3998 61.1996V73.1996C53.6998 73.5996 50.3998 73.8996 47.8998 73.8996C42.8998 73.8996 40.6998 72.1996 40.6998 68.2996C40.6998 64.0996 43.6998 62.1996 50.8998 61.5996V60.2996C50.8998 59.1996 50.3998 58.7996 48.8998 58.7996C46.6998 58.7996 44.1998 59.3996 41.8998 60.5996V56.0996H41.9998ZM51.1998 65.4996C47.2998 65.8996 45.9998 66.4996 45.9998 67.9996C45.9998 69.1996 46.6998 69.6996 48.2998 69.6996C49.1998 69.6996 49.9998 69.5996 51.0998 69.3996V65.4996H51.1998ZM59.2998 55.6996C62.7998 54.7996 65.6998 54.3996 68.5998 54.3996C71.5998 54.3996 73.7998 55.0996 75.0998 56.3996C76.2998 57.6996 76.6998 59.0996 76.6998 61.9996V73.5996H70.7998V62.1996C70.7998 59.8996 69.9998 59.0996 67.8998 59.0996C67.0998 59.0996 66.3998 59.1996 65.1998 59.4996V73.5996H59.2998V55.6996ZM78.9998 76.7996C81.0998 77.8996 83.1998 78.3996 85.2998 78.3996C89.1998 78.3996 90.7998 76.7996 90.7998 73.0996V72.9996C89.5998 73.5996 88.4998 73.7996 86.9998 73.7996C81.7998 73.7996 78.4998 70.3996 78.4998 64.9996C78.4998 58.2996 83.3998 54.4996 91.9998 54.4996C94.4998 54.4996 96.8998 54.7996 99.6998 55.2996L97.6998 59.5996C96.0998 59.2996 97.5998 59.5996 96.3998 59.3996V59.9996L96.4998 62.4996V65.6996C96.4998 66.4996 96.4998 67.2996 96.5998 68.0996V69.6996C96.5998 74.7996 96.1998 77.1996 94.8998 79.0996C93.0998 81.9996 89.8998 83.3996 85.2998 83.3996C82.9998 83.3996 80.9998 83.0996 78.8998 82.1996V76.7996H78.9998ZM90.7998 59.1996H90.1998C88.9998 59.1996 87.6998 59.4996 86.7998 59.9996C85.3998 60.7996 84.5998 62.2996 84.5998 64.2996C84.5998 67.2996 86.0998 68.9996 88.6998 68.9996C89.4998 68.9996 90.1998 68.7996 90.8998 68.5996V59.1996H90.7998ZM109 54.2996C114.9 54.2996 118.5 57.9996 118.5 64.0996C118.5 70.2996 114.7 74.1996 108.7 74.1996C102.8 74.1996 99.0998 70.4996 99.0998 64.4996C99.1998 58.1996 103 54.2996 109 54.2996ZM108.9 69.2996C111.2 69.2996 112.5 67.3996 112.5 64.0996C112.5 60.8996 111.2 58.8996 108.9 58.8996C106.6 58.8996 105.2 60.7996 105.2 64.0996C105.3 67.4996 106.6 69.2996 108.9 69.2996Z" fill="white"/>
</svg>
