<svg width="38" height="38" viewBox="0 0 38 38" fill="none" xmlns="http://www.w3.org/2000/svg">
<path fill-rule="evenodd" clip-rule="evenodd" d="M20.44 5.44336C20.272 5.44338 20.111 5.5101 19.9922 5.62887C19.8734 5.74764 19.8067 5.90873 19.8067 6.07669V23.4783C19.8068 23.6186 19.8534 23.7548 19.9393 23.8657L22.5621 27.2565C22.6213 27.3331 22.6973 27.395 22.7841 27.4376C22.871 27.4802 22.9664 27.5024 23.0631 27.5024C23.1599 27.5024 23.2553 27.4802 23.3421 27.4376C23.429 27.395 23.5049 27.3331 23.5641 27.2565L26.1872 23.8657C26.2729 23.7547 26.3194 23.6185 26.3193 23.4783V6.07669C26.3193 5.90873 26.2526 5.74764 26.1338 5.62887C26.015 5.5101 25.854 5.44338 25.686 5.44336H20.44ZM21.0733 6.71003H25.0527V23.2621L23.0634 25.8337L21.0733 23.2618V6.71003ZM6.3013 15.3597C6.13334 15.3597 5.97225 15.4265 5.85348 15.5453C5.73471 15.6641 5.66799 15.8251 5.66797 15.993V31.9234C5.66799 32.0914 5.73471 32.2524 5.85348 32.3712C5.97225 32.4899 6.13334 32.5567 6.3013 32.5568H31.7C31.8679 32.5567 32.029 32.4899 32.1478 32.3712C32.2665 32.2524 32.3333 32.0914 32.3333 31.9234V15.993C32.3333 15.8251 32.2665 15.6641 32.1478 15.5453C32.029 15.4265 31.8679 15.3597 31.7 15.3597H28.821C28.653 15.3597 28.4919 15.4264 28.3732 15.5452C28.2544 15.664 28.1877 15.8251 28.1877 15.993C28.1877 16.161 28.2544 16.3222 28.3732 16.4409C28.4919 16.5597 28.653 16.6264 28.821 16.6264H31.0666V31.2901H6.93464V16.6264H16.9854C17.1533 16.6264 17.3144 16.5597 17.4332 16.4409C17.552 16.3222 17.6187 16.161 17.6187 15.993C17.6187 15.8251 17.552 15.664 17.4332 15.5452C17.3144 15.4264 17.1533 15.3597 16.9854 15.3597H6.3013ZM9.69214 25.9159C9.52417 25.9159 9.36303 25.9826 9.24426 26.1014C9.12548 26.2201 9.05881 26.3812 9.05881 26.5492C9.05881 26.7172 9.12548 26.8783 9.24426 26.9971C9.36303 27.1158 9.52417 27.1825 9.69214 27.1825H16.5376C16.7055 27.1825 16.8666 27.1158 16.9854 26.9971C17.1041 26.8783 17.1709 26.7172 17.1709 26.5492C17.1709 26.3812 17.1041 26.2201 16.9854 26.1014C16.8666 25.9826 16.7055 25.9159 16.5376 25.9159H9.69214Z" fill="white"/>
</svg>
