<svg width="120" height="60" viewBox="0 0 120 60" fill="none" xmlns="http://www.w3.org/2000/svg">
<path d="M17.9558 42.5618C17.9558 42.5618 16.1888 43.6368 19.1858 43.9448C22.7858 44.4048 24.7158 44.3288 28.7098 43.5608C28.7098 43.5608 29.7848 44.2508 31.2448 44.7908C22.2578 48.6308 10.8908 44.5608 17.9568 42.5638L17.9558 42.5618ZM16.8038 37.5698C16.8038 37.5698 14.8838 39.0298 17.8788 39.3368C21.7958 39.7208 24.8788 39.7968 30.1688 38.7228C30.1688 38.7228 30.8588 39.4908 32.0118 39.8748C21.1818 43.1008 9.04579 40.1808 16.8038 37.5698ZM38.0038 46.3258C38.0038 46.3258 39.3098 47.4008 36.5438 48.2458C31.3978 49.7818 14.9608 50.2428 10.3518 48.2458C8.73879 47.5558 11.8118 46.5458 12.8098 46.4028C13.8098 46.1728 14.3458 46.1728 14.3458 46.1728C12.5798 44.9428 2.59379 48.7078 9.27579 49.7728C27.6328 52.7678 42.7638 48.4668 38.0018 46.3168L38.0038 46.3258ZM18.7998 32.3468C18.7998 32.3468 10.4278 34.3438 15.8038 35.0348C18.1078 35.3418 22.6398 35.2648 26.8638 34.9578C30.3198 34.6508 33.7768 34.0358 33.7768 34.0358C33.7768 34.0358 32.5468 34.5738 31.7028 35.1108C23.1768 37.3378 6.81679 36.3408 11.5028 34.0358C15.4968 32.1158 18.7998 32.3358 18.7998 32.3358V32.3468ZM33.7778 40.7188C42.3798 36.2638 38.3858 31.9628 35.6208 32.5008C34.9308 32.6548 34.6208 32.8078 34.6208 32.8078C34.6208 32.8078 34.8508 32.3478 35.3888 32.1938C40.8418 30.2738 45.1438 37.9538 33.6218 40.9498C33.6218 40.9498 33.6988 40.8728 33.7758 40.7198L33.7778 40.7188ZM19.6458 52.8538C27.9408 53.3918 40.6158 52.5468 40.9218 48.6298C40.9218 48.6298 40.3078 50.1658 34.0858 51.3178C27.0198 52.6238 18.2638 52.4698 13.1158 51.6248C13.1158 51.6248 14.1908 52.5458 19.6458 52.8538Z" fill="#4E7896"/>
<path d="M28.5551 7C28.5551 7 33.3171 11.84 24.0231 19.136C16.5731 25.05 22.3231 28.43 24.0231 32.27C19.6451 28.353 16.4961 24.897 18.6461 21.67C21.7961 16.908 30.4751 14.604 28.5551 7ZM26.0971 29.044C28.3241 31.579 25.4821 33.884 25.4821 33.884C25.4821 33.884 31.1661 30.964 28.5541 27.354C26.1741 23.898 24.3301 22.208 34.3141 16.447C34.3141 16.447 18.5681 20.364 26.0961 29.043L26.0971 29.044Z" fill="#F58219"/>
<path d="M75.3182 38.162V26.485C75.3182 23.505 73.6502 21.481 69.4802 21.481C67.0972 21.481 65.0702 22.077 63.2842 22.791L63.8802 24.936C65.1902 24.459 66.8602 23.983 68.6462 23.983C70.9102 23.983 71.9822 24.936 71.9822 26.843V28.393H70.8002C65.0802 28.393 62.4602 30.538 62.4602 33.993C62.4602 36.853 64.2472 38.521 67.4642 38.521C69.4902 38.521 71.0392 37.568 72.4682 36.376L72.7062 38.163H75.3262L75.3182 38.162ZM71.9802 34.35C70.7902 35.422 69.4782 36.018 68.2862 36.018C66.7362 36.018 65.7842 35.065 65.7842 33.398C65.7842 31.731 66.7372 30.538 70.5502 30.538H71.9802V34.351V34.35ZM86.5162 38.163H82.3462L77.3432 21.84H80.9182L84.0162 31.85L84.7312 34.83C86.2812 30.54 87.4712 26.132 87.9482 21.843H91.5222C90.5692 27.205 88.9022 33.043 86.5182 38.166L86.5162 38.163ZM105.818 38.163V26.485C105.818 23.505 104.15 21.481 99.9782 21.481C97.5952 21.481 95.5702 22.077 93.7822 22.791L94.2592 24.936C95.6892 24.459 97.3572 23.983 99.1442 23.983C101.408 23.983 102.48 24.936 102.48 26.843V28.393H101.29C95.5702 28.393 92.9502 30.538 92.9502 33.993C92.9502 36.853 94.6182 38.521 97.8352 38.521C99.9802 38.521 101.529 37.568 102.958 36.376L103.196 38.163H105.816H105.818ZM102.482 34.35C101.292 35.422 99.9802 36.018 98.7882 36.018C97.2382 36.018 96.2862 35.065 96.2862 33.398C96.2862 31.731 97.2392 30.538 101.052 30.538H102.482V34.351V34.35ZM58.7542 40.903C57.8012 42.333 56.3712 43.405 54.5842 44.001L53.0342 42.095C54.2262 41.38 55.4172 40.308 55.8942 39.355C56.3712 38.521 56.4902 37.329 56.4902 34.589V16H60.0652V34.35C60.0652 38.044 59.7062 39.473 58.7542 40.903Z" fill="#4E7896"/>
</svg>
