<svg width="120" height="60" viewBox="0 0 120 60" fill="none" xmlns="http://www.w3.org/2000/svg">
<path d="M32.0542 44.3568C31.9417 44.357 31.831 44.328 31.733 44.2726C31.635 44.2172 31.5531 44.1373 31.4952 44.0408L26.5802 35.8428L17.3882 38.3428C17.2482 38.3766 17.1009 38.3629 16.9695 38.3039C16.8381 38.2449 16.73 38.1439 16.6622 38.0168L5.92024 17.8248C5.87091 17.7323 5.84467 17.6292 5.84377 17.5244C5.84288 17.4196 5.86734 17.3161 5.91508 17.2228C5.96282 17.1295 6.03242 17.0491 6.11794 16.9885C6.20346 16.9279 6.30237 16.8889 6.40624 16.8748L15.5262 15.6488C15.6522 15.6313 15.7806 15.6511 15.8954 15.7059C16.0103 15.7606 16.1065 15.8478 16.1722 15.9568L27.1722 34.3308L39.9662 30.8508L35.7002 24.8258C35.6387 24.7401 35.5989 24.6408 35.5844 24.5364C35.5698 24.4319 35.5808 24.3255 35.6166 24.2263C35.6523 24.1271 35.7116 24.038 35.7895 23.9669C35.8673 23.8957 35.9612 23.8445 36.0632 23.8178L42.0482 22.4028C42.1678 22.3743 42.293 22.3803 42.4093 22.4202C42.5256 22.46 42.6282 22.532 42.7052 22.6278L47.8852 29.0958C47.9527 29.1799 47.9982 29.2796 48.0176 29.3858C48.037 29.4919 48.0296 29.6012 47.9962 29.7038C47.9627 29.8064 47.9043 29.8991 47.8261 29.9734C47.7479 30.0478 47.6524 30.1015 47.5482 30.1298L42.1082 31.6138L46.8712 38.3138C46.9296 38.396 46.968 38.4906 46.9835 38.5902C46.999 38.6898 46.9911 38.7916 46.9604 38.8877C46.9298 38.9837 46.8772 39.0713 46.8069 39.1435C46.7366 39.2157 46.6504 39.2706 46.5552 39.3038L32.2602 44.3168C32.1939 44.3413 32.125 44.3548 32.0542 44.3568ZM27.8822 35.4868L32.3372 42.9168L45.3202 38.3718L40.7862 31.9798L27.8822 35.4868ZM7.50724 18.0298L17.5602 36.9498L25.9032 34.6858L15.2782 16.9938L7.50724 18.0298ZM37.3402 24.8638L41.3402 30.4898L46.3022 29.1398L41.9852 23.7638L37.3402 24.8638ZM54.7272 22.8998H56.0272V36.8398H54.7322L54.7272 22.8998ZM68.7272 26.7828V36.8398H67.4502V35.0998C66.9552 35.7198 66.3322 36.2278 65.6242 36.5878C64.6608 37.0483 63.577 37.1949 62.5258 37.0067C61.4747 36.8184 60.5091 36.305 59.7652 35.5388C59.2733 35.0447 58.886 34.4566 58.6264 33.8096C58.3668 33.1625 58.2402 32.4698 58.2542 31.7728C58.2437 31.0824 58.3734 30.3971 58.6355 29.7583C58.8976 29.1196 59.2867 28.5407 59.7792 28.0568C60.2526 27.5594 60.8239 27.1655 61.4571 26.8999C62.0903 26.6343 62.7717 26.5029 63.4582 26.5138C64.2382 26.5038 65.0082 26.6838 65.7002 27.0408C66.403 27.4221 67.0062 27.9633 67.4612 28.6208V26.7808L68.7272 26.7828ZM63.5572 27.7828C62.8537 27.7782 62.162 27.9635 61.5549 28.3192C60.9479 28.6749 60.4481 29.1878 60.1082 29.8038C59.3852 31.0618 59.3852 32.6088 60.1082 33.8668C60.4512 34.4918 60.9562 35.0128 61.5702 35.3748C62.1657 35.7303 62.8467 35.9169 63.5402 35.9148C64.2462 35.915 64.9399 35.7302 65.5522 35.3788C66.1652 35.0418 66.6722 34.5388 67.0142 33.9288C67.3631 33.2954 67.5399 32.5817 67.5272 31.8588C67.542 31.32 67.4478 30.7838 67.2502 30.2824C67.0526 29.7809 66.7556 29.3246 66.3772 28.9408C66.0124 28.5633 65.5735 28.2654 65.088 28.0656C64.6026 27.8658 64.0811 27.7685 63.5562 27.7798L63.5572 27.7828ZM71.1492 26.7828H72.4712V28.2528C72.8021 27.7453 73.2263 27.3052 73.7212 26.9558C74.1244 26.6798 74.6006 26.5301 75.0892 26.5258C75.4957 26.5391 75.8919 26.6573 76.2392 26.8688L75.5612 27.9688C75.3421 27.8638 75.104 27.8043 74.8612 27.7938C74.3931 27.8081 73.9474 27.9976 73.6122 28.3248C73.1542 28.7752 72.835 29.3475 72.6922 29.9738C72.5389 30.5471 72.4622 31.7051 72.4622 33.4478V36.8508H71.1402L71.1492 26.7828ZM87.3492 26.7828V36.8398H86.0732V35.0998C85.5782 35.7198 84.9552 36.2278 84.2472 36.5878C83.2838 37.0483 82.2 37.1949 81.1488 37.0067C80.0976 36.8184 79.1321 36.305 78.3882 35.5388C77.8963 35.0447 77.509 34.4566 77.2494 33.8096C76.9898 33.1625 76.8632 32.4698 76.8772 31.7728C76.8572 30.3778 77.4072 29.0328 78.4042 28.0568C78.8776 27.5594 79.4489 27.1655 80.0821 26.8999C80.7153 26.6343 81.3967 26.5029 82.0832 26.5138C82.8632 26.5038 83.6332 26.6838 84.3252 27.0408C85.028 27.4221 85.6312 27.9633 86.0862 28.6208V26.7808L87.3492 26.7828ZM82.1792 27.7828C81.4757 27.7782 80.784 27.9635 80.1769 28.3192C79.5699 28.6749 79.0701 29.1878 78.7302 29.8038C78.0072 31.0618 78.0072 32.6088 78.7302 33.8668C79.0732 34.4918 79.5782 35.0128 80.1922 35.3748C80.7877 35.7303 81.4687 35.9169 82.1622 35.9148C82.8682 35.915 83.5619 35.7302 84.1742 35.3788C84.7872 35.0418 85.2942 34.5388 85.6362 33.9288C85.9851 33.2954 86.1619 32.5817 86.1492 31.8588C86.1655 31.3184 86.0721 30.7803 85.8746 30.2771C85.6771 29.7738 85.3797 29.3158 85.0002 28.9308C84.6356 28.5536 84.197 28.2558 83.7119 28.056C83.2268 27.8562 82.7057 27.7588 82.1812 27.7698L82.1792 27.7828ZM89.3122 26.7828H90.6922L94.0682 34.1128L97.4082 26.7828H98.7882L94.1882 36.8408H93.9582L89.3122 26.7828ZM109.219 33.5028L110.319 34.0758C110.011 34.7123 109.591 35.2887 109.08 35.7778C108.62 36.2035 108.083 36.5375 107.498 36.7618C106.862 36.9957 106.187 37.1102 105.509 37.0998C103.869 37.0998 102.586 36.5664 101.659 35.4998C100.764 34.4964 100.273 33.1972 100.279 31.8528C100.266 30.6148 100.681 29.4098 101.454 28.4528C101.918 27.8393 102.522 27.3461 103.216 27.0148C103.909 26.6834 104.673 26.5236 105.441 26.5488C106.232 26.5228 107.017 26.6863 107.731 27.0255C108.446 27.3647 109.069 27.8698 109.548 28.4988C110.276 29.4188 110.643 30.5688 110.648 31.9488H101.593C101.578 33.0158 101.98 34.0458 102.713 34.8208C103.056 35.1841 103.471 35.4715 103.931 35.6644C104.392 35.8573 104.888 35.9515 105.387 35.9408C105.897 35.9412 106.404 35.8508 106.882 35.6738C107.333 35.5137 107.751 35.2739 108.117 34.9658C108.555 34.5434 108.926 34.0572 109.218 33.5238L109.219 33.5028ZM109.219 30.8028C109.089 30.2042 108.832 29.6405 108.465 29.1498C108.113 28.7198 107.665 28.3781 107.157 28.1518C106.624 27.9018 106.042 27.7718 105.453 27.7718C104.515 27.7528 103.604 28.0934 102.908 28.7238C102.39 29.1904 101.999 29.8804 101.733 30.7938L109.219 30.8028ZM112.859 22.9108H114.154V36.8508H112.859V22.9108Z" fill="#EF533F"/>
</svg>
