<svg width="35" height="35" viewBox="0 0 35 35" fill="none" xmlns="http://www.w3.org/2000/svg">
<path d="M0.763898 11.6827H7.93154V34.7374H0.763898V11.6827ZM4.34791 0.222656C6.63877 0.222656 8.50051 2.08439 8.50051 4.3791C8.50051 6.6715 6.63877 8.53323 4.34791 8.53323C2.05167 8.53323 0.195312 6.6715 0.195312 4.3791C0.195312 2.08439 2.05167 0.222656 4.34791 0.222656Z" fill="#003554"/>
<path d="M12.4219 11.6842H19.2948V14.8368H19.3928C20.3494 13.0234 22.6875 11.1133 26.1724 11.1133C33.4284 11.1133 34.7677 15.8867 34.7677 22.0943V34.7388H27.6054V23.5273C27.6054 20.853 27.5589 17.4142 23.882 17.4142C20.1531 17.4142 19.5841 20.329 19.5841 23.3352V34.7388H12.4219V11.6842Z" fill="#003554"/>
</svg>
