<svg width="22" height="20" viewBox="0 0 22 20" fill="none" xmlns="http://www.w3.org/2000/svg">
<g clipPath="url(#clip0_2325_4288)">
<path d="M5.12098 6.43457H0.704448C0.508435 6.43457 0.349609 6.57902 0.349609 6.75715V19.6557C0.349609 19.8339 0.508435 19.9783 0.704448 19.9783H5.12098C5.317 19.9783 5.47582 19.8339 5.47582 19.6557V6.75715C5.47582 6.57902 5.317 6.43457 5.12098 6.43457Z" fill="#9E9D9D"/>
<path d="M2.91436 0.0224609C1.30737 0.0224609 0 1.20969 0 2.66898C0 4.12891 1.30737 5.31659 2.91436 5.31659C4.52008 5.31659 5.82638 4.12885 5.82638 2.66898C5.82645 1.20969 4.52008 0.0224609 2.91436 0.0224609Z" fill="#9E9D9D"/>
<path d="M16.3549 6.11426C14.581 6.11426 13.2698 6.80748 12.4744 7.59516V6.75742C12.4744 6.57929 12.3156 6.43484 12.1196 6.43484H7.88999C7.69398 6.43484 7.53516 6.57929 7.53516 6.75742V19.656C7.53516 19.8342 7.69398 19.9786 7.88999 19.9786H12.2969C12.4929 19.9786 12.6517 19.8342 12.6517 19.656V13.2742C12.6517 11.1237 13.2943 10.2859 14.9433 10.2859C16.7392 10.2859 16.8819 11.629 16.8819 13.3848V19.6561C16.8819 19.8343 17.0407 19.9786 17.2367 19.9786H21.6452C21.8413 19.9786 22.0001 19.8343 22.0001 19.6561V12.581C22.0001 9.38323 21.3294 6.11426 16.3549 6.11426Z" fill="#9E9D9D"/>
</g>
<defs>
<clipPath id="clip0_2325_4288">
<rect width="22" height="20" fill="white"/>
</clipPath>
</defs>
</svg>
