<svg width="120" height="60" viewBox="0 0 120 60" fill="none" xmlns="http://www.w3.org/2000/svg">
<path d="M16.1475 5.1543L17.2375 7.2043C17.4748 7.57409 17.751 7.91738 18.0615 8.2283C18.9745 9.1413 19.8435 10.0983 20.6215 11.1233C22.4695 13.5503 23.7165 16.2453 24.6075 19.1633C25.1415 20.9453 25.4315 22.7713 25.4535 24.6193C25.5435 30.1423 23.6495 34.8853 19.8195 38.8273C19.1989 39.4522 18.5287 40.0257 17.8155 40.5423C17.4355 40.5423 17.2585 40.2423 17.1025 39.9853C16.8025 39.4853 16.6345 38.9383 16.5455 38.3823C16.4115 37.7143 16.3225 37.0463 16.3675 36.3553V36.0433C16.3455 35.9763 16.0115 5.3113 16.1445 5.1553L16.1475 5.1543Z" fill="#599636"/>
<path d="M16.147 5.08821C16.102 4.99821 16.057 5.06621 16.013 5.11021C16.035 5.55521 15.879 5.95621 15.633 6.33521C15.366 6.71521 15.009 7.00321 14.653 7.31521C12.671 9.03021 11.113 11.1012 9.86503 13.4172C8.21703 16.5352 7.34903 19.8752 7.10503 23.3942C6.99503 24.6642 7.50503 29.1402 7.90703 30.4312C8.99703 33.8612 10.957 36.7332 13.507 39.2272C14.131 39.8272 14.799 40.3852 15.489 40.9192C15.689 40.9192 15.712 40.7412 15.756 40.6072C15.8438 40.3228 15.9106 40.0324 15.956 39.7382C16.156 38.6252 16.268 37.5112 16.401 36.3982L16.156 5.08821H16.147Z" fill="#6CAC48"/>
<path d="M17.2404 41.9004C17.2854 41.3884 17.5404 40.9654 17.7974 40.5424C17.5304 40.4324 17.3294 40.2084 17.1734 39.9624C17.0394 39.7394 16.9284 39.4624 16.8394 39.2274C16.5274 38.2924 16.4594 37.3124 16.3714 36.3544V35.7744C16.2614 35.8644 16.2374 36.6204 16.2374 36.7324C16.1704 37.7564 16.0374 38.7594 15.8374 39.7384C15.7704 40.1384 15.7274 40.5404 15.4814 40.8964C15.4814 40.9414 15.4814 40.9864 15.5034 41.0524C15.9034 42.2324 16.0154 43.4354 16.0834 44.6604V45.1054C16.0834 45.6394 16.0614 45.5284 16.5064 45.7054C16.6844 45.7724 16.8864 45.7954 17.0634 45.9284C17.1974 45.9284 17.2194 45.8184 17.2194 45.7284L17.1524 44.9934V42.9434C17.1304 42.5874 17.1974 42.2304 17.2424 41.8964L17.2404 41.9004Z" fill="#C2BFBF"/>
<path d="M34.1507 32.5867V34.7076C34.1483 34.7916 34.1531 34.8756 34.165 34.9588C34.1926 35.21 34.3468 35.3631 34.5734 35.4336C34.785 35.4893 34.9998 35.5312 35.2168 35.5592C35.3424 35.5735 35.3842 35.6286 35.3985 35.7634C35.4128 36.2382 35.3709 36.2944 34.9104 36.2658C33.8362 36.2097 32.761 36.1964 31.6867 36.2658H31.5846C31.2497 36.2801 31.2221 36.2515 31.2221 35.9166C31.2221 35.8604 31.2364 35.791 31.2364 35.7348C31.2364 35.6327 31.3059 35.5817 31.4039 35.5817C31.6285 35.5541 31.8368 35.4979 32.0472 35.4561C32.3402 35.3866 32.5067 35.2049 32.5353 34.9118C32.5761 34.5912 32.5761 34.2562 32.5761 33.9346L32.5904 30.1952C32.595 30.0868 32.5687 29.9793 32.5144 29.8852C32.4602 29.7912 32.3803 29.7146 32.2841 29.6642C32.0316 29.524 31.7645 29.4117 31.4876 29.3293C31.4039 29.3018 31.3201 29.2885 31.2507 29.2456C31.0465 29.1476 31.0414 28.9668 31.2364 28.8545C31.3058 28.8137 31.3896 28.7851 31.4733 28.7708C32.3202 28.6458 33.1522 28.4354 33.9567 28.1428C34.1242 28.0866 34.166 28.1019 34.1813 28.2684C34.1956 28.3705 34.1813 28.493 34.167 28.589C34.1395 28.7708 34.1395 28.9515 34.1395 29.12C34.1395 29.1894 34.1538 29.2599 34.2232 29.3018C34.2926 29.3436 34.3631 29.3017 34.4274 29.2609C34.7205 29.0363 35.0136 28.8279 35.3342 28.6482C35.7937 28.397 36.2838 28.1734 36.8148 28.104C37.4581 28.0202 38.0146 28.1877 38.5038 28.6064C38.706 28.7874 38.8841 28.9936 39.0337 29.2201C39.1736 29.4243 39.1869 29.4294 39.3686 29.2895C39.8996 28.8984 40.4572 28.5502 41.0576 28.299C41.6856 28.0335 42.3279 27.9927 42.9691 28.2153C43.6247 28.4522 44.0719 28.9127 44.3374 29.5407C44.5621 30.0431 44.6581 30.5618 44.6581 31.103V34.8424C44.6581 35.0936 44.7602 35.2508 45.0073 35.3734C45.2728 35.4755 45.5658 35.5265 45.8446 35.5827C46.0264 35.6235 46.0264 35.6235 46.0264 35.8073C45.9988 36.2668 45.9569 36.2954 45.5097 36.2668C44.3897 36.2041 43.2671 36.2041 42.1471 36.2668C41.9225 36.2811 41.9225 36.2811 41.9102 36.0575V35.9881C41.8959 35.6103 41.8959 35.6103 42.2594 35.5286L42.6219 35.4305C42.7448 35.4016 42.8543 35.3322 42.9328 35.2335C43.0113 35.1348 43.0544 35.0124 43.0549 34.8863L43.0957 33.8396L43.0682 31.1051C43.0575 30.8609 43.0057 30.6203 42.915 30.3933C42.5658 29.5417 41.7989 29.2354 41.0586 29.3191C40.5 29.3753 40.012 29.5979 39.5514 29.9195C39.4534 29.989 39.384 30.0727 39.3983 30.2126C39.5239 31.1061 39.4391 31.9996 39.4544 32.892V34.8322C39.4544 35.1814 39.5943 35.3488 39.9292 35.4326L40.5726 35.5725C40.6706 35.5868 40.7257 35.6286 40.7257 35.7399V35.8421C40.7114 36.2331 40.6849 36.2505 40.2928 36.2464C39.1767 36.1903 38.0596 36.2056 36.9578 36.2464C36.58 36.2607 36.5493 36.2188 36.5667 35.838C36.581 35.6133 36.6075 35.6011 36.8179 35.5592L37.2774 35.4755C37.6858 35.3917 37.8359 35.2386 37.8635 34.8056L37.9044 33.8703L37.8768 31.0652C37.8492 30.716 37.7747 30.3811 37.5837 30.0604C37.305 29.5438 36.8689 29.2793 36.2716 29.2507C35.6712 29.2098 35.1412 29.4325 34.6378 29.7102C34.2886 29.9144 34.1354 30.1564 34.163 30.5618V32.599L34.1507 32.5867ZM60.4416 32.6715V34.6392C60.4438 34.7791 60.453 34.9188 60.4692 35.0578C60.4751 35.1505 60.511 35.2387 60.5714 35.3092C60.6318 35.3798 60.7134 35.4288 60.8041 35.4489C61.0449 35.5191 61.2929 35.5612 61.5434 35.5745C61.6833 35.5888 61.7108 35.644 61.7251 35.7563V35.8543C61.7108 36.3424 61.6557 36.3986 61.1809 36.371C60.1189 36.3016 59.06 36.3148 57.9991 36.371L57.5906 36.3853C57.5069 36.3853 57.4885 36.3444 57.465 36.2873C57.4242 36.094 57.4242 35.8944 57.465 35.7011C57.4793 35.6174 57.5344 35.599 57.6182 35.5755C57.8224 35.548 57.996 35.5061 58.19 35.4734C58.5392 35.3897 58.6648 35.2488 58.6781 34.8873L58.7189 33.715V30.282C58.7189 30.0308 58.6209 29.8777 58.3983 29.7653C58.1471 29.6254 57.8816 29.5284 57.6018 29.4304C57.5181 29.4028 57.4344 29.3743 57.3649 29.3324C57.1832 29.2068 57.1607 29.026 57.3374 28.8862C57.4166 28.821 57.5139 28.7818 57.6161 28.7738C58.5096 28.6339 59.3745 28.4389 60.2118 28.104C60.3099 28.0631 60.3517 28.0897 60.3936 28.1734C60.4355 28.2571 60.4498 28.3552 60.4344 28.4522L60.3936 29.1077C60.3936 29.1915 60.3527 29.312 60.4212 29.3446C60.5049 29.4008 60.5611 29.2752 60.6305 29.2425C61.0425 28.8969 61.4977 28.6062 61.9845 28.3776C62.4175 28.1734 62.8627 28.0427 63.3661 28.0713C64.3014 28.1275 64.9713 28.6023 65.4032 29.4253C65.6279 29.8583 65.7239 30.3321 65.7657 30.8212L65.8066 31.8423L65.8209 34.9261C65.8352 35.163 65.9189 35.3172 66.1558 35.4009C66.4014 35.4828 66.6535 35.5436 66.9094 35.5827C67.134 35.6103 67.1463 35.6521 67.1606 35.8614V35.9309C67.133 36.4057 67.1044 36.419 66.6296 36.3904C65.5885 36.3346 64.5451 36.3346 63.5039 36.3904C63.364 36.4047 63.2252 36.3904 63.0955 36.4047C63.0117 36.4047 62.9556 36.3904 62.9423 36.3067C62.9147 36.1249 62.8862 35.9442 62.928 35.7481C62.9423 35.6644 62.9842 35.6225 63.0812 35.6082L63.7245 35.5061C63.9491 35.4499 64.0737 35.3019 64.1023 35.0977L64.1299 34.7066L64.1156 31.7902C64.1156 31.4553 64.1013 31.1204 64.0319 30.7854C63.8644 30.0707 63.3201 29.5601 62.5819 29.4886C61.9385 29.4192 61.3565 29.5866 60.8235 29.9348C60.558 30.1023 60.4457 30.3392 60.4457 30.6323V32.7399C60.4457 32.699 60.4457 32.699 60.46 32.699L60.4416 32.6715Z" fill="#47474A"/>
<path d="M101.313 28.7214C101.16 27.7024 100.782 26.7956 100.127 26.0001C99.5556 25.2974 98.8163 24.7502 97.9773 24.4092C97.0992 24.0467 96.1628 23.9344 95.2142 23.9068C94.8231 23.8925 89.4928 23.9763 89.1017 23.9068C89.0037 23.8925 88.9343 23.9211 88.8771 24.0049C88.8076 24.107 88.7372 24.2142 88.6953 24.3255C88.5278 24.7033 88.5278 24.6747 88.9322 24.7299C89.2671 24.786 89.5878 24.8136 89.9094 24.9116C90.2025 25.0097 90.4118 25.1771 90.4813 25.4978C90.5088 25.6509 90.5374 30.5625 90.5374 32.8519L90.4813 34.4857C90.467 34.6113 90.4537 34.7369 90.4118 34.8482C90.3557 35.0156 90.2587 35.1545 90.0912 35.226C89.9069 35.3127 89.7082 35.3646 89.5051 35.3792C89.1272 35.42 89.0721 35.4353 88.9465 35.854L88.9057 36.0072C88.8781 36.1889 88.8914 36.2165 89.0731 36.2165L93.2454 36.2573L94.8792 36.2298L96.0096 36.0899C97.2932 35.853 98.4379 35.322 99.414 34.4714C99.9717 33.9789 100.427 33.3814 100.754 32.713C101.145 31.9319 101.312 31.0792 101.354 30.2153C101.424 29.7272 101.395 29.2249 101.313 28.7225V28.7214ZM99.2895 30.7024C99.2333 31.5959 99.0526 32.4608 98.592 33.242C98.0059 34.261 97.1686 34.9728 96.0106 35.2229C95.5082 35.325 95.0059 35.3761 94.479 35.3067C94.1011 35.2658 93.7397 35.2229 93.3904 35.0973C92.7625 34.8727 92.5388 34.4847 92.5255 33.872L92.5113 25.4579C92.5113 24.9555 92.7359 24.8453 93.0974 24.8299C93.6416 24.7891 94.2002 24.8024 94.7444 24.8575C95.3238 24.9135 95.8924 25.051 96.4334 25.266C96.8353 25.4335 97.2076 25.6645 97.5362 25.9501C98.2898 26.5934 98.7922 27.4001 99.0679 28.3497C99.2925 29.1176 99.3334 29.8988 99.2925 30.68L99.2895 30.7024ZM112.911 32.0707C112.911 31.987 112.911 31.9176 112.897 31.8338C112.771 31.0659 112.366 30.4798 111.739 30.0336C111.335 29.7405 110.874 29.5455 110.399 29.4056C110.316 29.378 110.246 29.3494 110.162 29.3362C110.177 29.2667 110.219 29.2524 110.26 29.2381C110.539 29.0982 110.805 28.9451 111.042 28.7357C111.475 28.3732 111.756 27.926 111.906 27.3817C111.99 27.0887 111.99 26.7956 111.963 26.4882C111.94 26.1287 111.836 25.7789 111.66 25.4647C111.484 25.1506 111.239 24.8803 110.944 24.6737C110.3 24.1989 109.548 24.0038 108.767 23.9896C107.259 23.962 105.739 23.9896 104.233 23.9896C103.8 23.9896 103.368 24.0171 102.921 23.9487C102.837 23.9344 102.716 23.9079 102.655 24.0049C102.553 24.1866 102.43 24.3674 102.39 24.5767C102.375 24.6747 102.404 24.7299 102.515 24.7442L103.478 24.8841C103.856 24.9402 104.121 25.1495 104.148 25.4845C104.175 25.7159 104.189 25.9488 104.189 26.1819L104.161 28.7909L104.147 33.9537C104.147 34.26 104.106 34.5541 104.049 34.8604C104.035 34.9577 103.994 35.0489 103.929 35.1232C103.865 35.1974 103.781 35.2516 103.686 35.2791C103.408 35.3628 103.142 35.4466 102.849 35.4466C102.771 35.4391 102.692 35.4585 102.626 35.5016C102.561 35.5446 102.511 35.6087 102.487 35.6835C102.43 35.8091 102.384 35.949 102.361 36.0746C102.333 36.242 102.375 36.2992 102.543 36.2788C102.668 36.2645 107.274 36.3768 108.139 36.2931C108.655 36.2369 109.16 36.1675 109.673 36.0143C110.551 35.7355 111.362 35.3302 112.003 34.646C112.534 34.0874 112.841 33.4176 112.868 32.6364C112.909 32.4547 112.909 32.2739 112.909 32.0779L112.911 32.0707ZM106.143 26.3524L106.184 25.2363C106.184 25.027 106.268 24.93 106.477 24.8871C106.812 24.8177 107.147 24.8463 107.482 24.8595C107.817 24.8871 108.138 24.929 108.472 25.027C109.085 25.2088 109.561 25.558 109.841 26.1431C109.968 26.4091 110.034 26.6999 110.036 26.9947C110.05 27.3858 110.021 27.7626 109.868 28.1384C109.631 28.6551 109.256 28.99 108.71 29.088C108.165 29.1861 106.617 29.1442 106.38 29.1442C106.171 29.1442 106.156 29.1166 106.156 28.9073V27.5931C106.123 27.1844 106.118 26.774 106.141 26.3647L106.143 26.3524ZM110.677 33.8597C110.44 34.4877 110.007 34.9217 109.393 35.1566C109.059 35.2822 108.724 35.3608 108.372 35.3383C107.939 35.324 107.507 35.3383 107.076 35.2546C106.489 35.129 106.224 34.5704 106.182 34.1661C106.113 33.4543 106.154 32.7283 106.141 32.1984V30.3563C106.141 30.1316 106.169 30.0632 106.407 30.0632L107.719 30.0775L108.612 30.1796C109.24 30.3195 109.812 30.5574 110.259 31.0445C110.622 31.4356 110.818 31.9094 110.86 32.4261C110.901 32.9142 110.874 33.389 110.692 33.8495L110.677 33.8597Z" fill="#C2BFBF"/>
<path d="M75.2199 29.6554L75.5824 29.7115C75.9735 29.7258 76.434 29.5859 76.5729 29.0417C76.6495 28.7817 76.6495 28.5052 76.5729 28.2452C76.4892 28.2452 76.4473 28.3146 76.4054 28.3432C76.1961 28.5107 75.9592 28.6087 75.708 28.6363C75.2056 28.6924 74.7032 28.6639 74.2151 28.4831L73.531 28.2462C73.0538 28.0899 72.5516 28.0241 72.0503 28.0522C71.3386 28.1084 70.6687 28.3453 70.0408 28.6802C69.3709 29.0427 68.8971 29.5869 68.6724 30.3273C68.5469 30.7602 68.5326 31.2054 68.5887 31.6527C68.7286 32.6718 69.2586 33.3835 70.2072 33.7603C70.2634 33.7746 70.3052 33.8011 70.3604 33.8164C70.486 33.8859 70.5003 33.9563 70.3879 34.0533L70.0387 34.2902L69.2014 34.8069C68.9921 34.9325 68.9645 35.0316 69.0339 35.2532C69.117 35.5138 69.2716 35.7459 69.4802 35.923C69.6716 36.0873 69.8886 36.2194 70.1224 36.3141C70.2756 36.3835 70.2756 36.4162 70.1367 36.5388L69.3403 37.1106C69.0748 37.3148 68.8093 37.519 68.5867 37.7804C68.4319 37.9461 68.3203 38.1474 68.2619 38.3665C68.2035 38.5856 68.2 38.8157 68.2517 39.0364C68.3555 39.5208 68.6092 39.9603 68.9767 40.2924C69.3396 40.6284 69.7809 40.8682 70.2603 40.9898C71.0415 41.2145 71.8512 41.2267 72.6467 41.0736C73.7903 40.8642 74.791 40.3588 75.5773 39.497C76.1215 38.9251 76.4422 38.2553 76.4708 37.4547C76.5012 36.9917 76.3665 36.5329 76.0905 36.1599C75.8146 35.7869 75.4152 35.5239 74.9636 35.4176L74.21 35.2777L71.9074 35.0734C71.6562 35.0591 71.405 35.0173 71.1956 34.8917C70.9302 34.7242 70.8607 34.4036 71.0282 34.1943C71.1538 34.0411 71.3069 33.9431 71.503 33.9288L71.9492 33.8879C72.8317 33.7981 73.6602 33.4207 74.307 32.8137C74.6524 32.494 74.8993 32.0824 75.0187 31.6272C75.1862 31.0267 75.1862 30.4018 75.0463 29.7891C75.0055 29.636 75.0187 29.6217 75.2138 29.6492L75.2199 29.6554ZM71.7991 36.6062C71.8829 36.6205 71.9666 36.6062 72.0503 36.6062C72.6365 36.6337 73.2369 36.6756 73.8087 36.8308C73.9954 36.886 74.1774 36.956 74.353 37.0401C74.9115 37.3465 75.1208 37.8775 75.0504 38.4493C74.9667 39.0773 74.6174 39.5235 74.0732 39.8176C73.7107 40.0218 73.3053 40.1107 72.8866 40.1525C72.7335 40.1668 72.5936 40.1525 72.4404 40.1525C71.9523 40.1668 71.4775 40.1117 71.0169 39.9156C70.6963 39.79 70.4308 39.6093 70.1939 39.3571C69.7058 38.869 69.4791 37.9755 70.2082 37.2495C70.6544 36.841 71.1579 36.552 71.7991 36.6062ZM73.39 32.2521C73.097 32.9914 72.4547 33.215 71.8134 33.117C71.2273 33.0332 70.7943 32.7126 70.5166 32.1816C70.1541 31.4699 70.0571 30.7316 70.2654 29.9627C70.4186 29.3909 70.7678 28.9579 71.3815 28.8599C72.1627 28.72 72.9132 28.9998 73.3073 29.781C73.5116 30.1588 73.6004 30.6183 73.6004 31.2738C73.5861 31.5393 73.531 31.9018 73.3911 32.2511L73.39 32.2521ZM55.8083 31.3024C55.6827 30.5488 55.404 29.8647 54.8873 29.2929C54.1194 28.4412 53.1432 28.0675 52.0404 28.0645C51.0775 28.0502 50.1717 28.3299 49.361 28.8323C48.5639 29.3093 47.9797 30.0733 47.7282 30.9675C47.4913 31.7773 47.5035 32.6013 47.6873 33.4233C48.1754 35.6289 49.8787 36.5765 51.9148 36.4377C52.5152 36.3968 53.087 36.2008 53.6303 35.9353C54.44 35.5575 55.0261 34.9581 55.4305 34.1626C55.7511 33.507 55.89 32.8086 55.8767 32.0131L55.8073 31.3014L55.8083 31.3024ZM53.8273 34.4005C53.7275 34.7145 53.5384 34.9926 53.2831 35.2008C53.0277 35.409 52.7172 35.5382 52.3896 35.5728C51.7769 35.6565 51.2031 35.5033 50.6874 35.1398C50.3151 34.866 50.0137 34.5071 49.8082 34.0932C49.2364 32.9209 49.1383 31.6935 49.4304 30.4375C49.5244 30.0488 49.7278 29.6952 50.0165 29.4185C50.5332 28.9436 51.1326 28.8323 51.8035 28.9722C52.4468 29.1121 52.9339 29.4603 53.3352 29.9913C53.7365 30.5223 53.9213 31.135 54.0326 31.7783C54.0888 32.0989 54.0888 32.4338 54.102 32.6432C54.102 33.313 54.0459 33.8685 53.8365 34.4015L53.8273 34.4005ZM86.2991 31.4148C86.197 30.605 85.8947 29.8657 85.3219 29.252C84.5683 28.429 83.5911 28.0798 82.5036 28.0655C81.5682 28.0512 80.7033 28.3167 79.9079 28.7772C79.0144 29.3082 78.4007 30.0607 78.1638 31.0798C77.8809 32.1916 77.9995 33.3676 78.4987 34.4005C78.9582 35.3777 79.7404 36.0057 80.7738 36.2845C81.9174 36.5908 83.007 36.452 84.0669 35.9353C84.988 35.489 85.6435 34.7916 86.0203 33.842C86.245 33.2834 86.3267 32.684 86.341 31.9856C86.3553 31.86 86.3267 31.6363 86.3001 31.4137L86.2991 31.4148ZM84.3733 34.2198C84.1486 34.9734 83.6758 35.4615 82.8804 35.5738C82.2942 35.6575 81.7367 35.5176 81.2333 35.1827C80.8003 34.8896 80.494 34.4986 80.2704 34.039C80.0192 33.551 79.8793 33.0343 79.8241 32.5043C79.7404 31.8487 79.7404 31.2075 79.8936 30.5509C79.9228 30.4214 79.9649 30.2952 80.0192 30.1741C80.4103 29.1969 81.2752 28.7506 82.2942 28.9743C82.9784 29.1274 83.4941 29.5053 83.8852 30.0771C84.263 30.6356 84.4437 31.2493 84.5285 31.9151C84.5693 32.1806 84.5846 32.4594 84.5693 32.6963C84.5693 33.2405 84.5285 33.7429 84.3651 34.231L84.3733 34.2198Z" fill="#47474A"/>
</svg>
