<svg width="120" height="60" viewBox="0 0 120 60" fill="none" xmlns="http://www.w3.org/2000/svg">
<path d="M13.56 43.9272H8.33998V38.6772H13.844C15.858 38.6772 16.866 39.5773 16.866 41.3433C16.866 43.0663 15.764 43.9283 13.561 43.9283M17.313 38.6163C16.598 37.9763 15.597 37.6562 14.31 37.6562L6.83398 37.6963V50.2563H8.33998L8.32598 44.9093H13.889C15.284 44.9093 16.382 44.5893 17.183 43.9493C17.984 43.3093 18.385 42.4193 18.385 41.2833C18.385 40.1473 18.027 39.2573 17.312 38.6173L17.313 38.6163ZM27.06 47.6203C26.9163 48.0313 26.6703 48.3988 26.345 48.6883C25.67 49.3483 24.641 49.6753 23.245 49.6753C21.995 49.6753 21.045 49.3553 20.365 48.7153C19.685 48.0753 19.36 47.2183 19.36 46.1453C19.36 45.5853 19.448 45.0903 19.623 44.6573C19.789 44.238 20.0498 43.8628 20.385 43.5613C21.077 42.9313 22.031 42.6143 23.245 42.6143C25.945 42.6143 27.278 43.7913 27.278 46.1443C27.278 46.7043 27.201 47.1943 27.048 47.6183M27.321 42.9853C26.403 42.1483 25.044 41.7293 23.244 41.7293C21.544 41.7293 20.229 42.1573 19.302 43.0123C18.465 43.7863 18.047 44.8303 18.047 46.1443C18.047 47.4493 18.479 48.5023 19.343 49.3043C19.82 49.7363 20.376 50.0493 21.01 50.2423C21.644 50.4353 22.39 50.5423 23.244 50.5423C25.044 50.5423 26.398 50.1283 27.344 49.3003C28.181 48.5443 28.599 47.4963 28.599 46.1553C28.599 44.8053 28.176 43.7523 27.329 42.9953L27.321 42.9853ZM38.721 47.9823C38.721 49.6823 37.206 50.5183 34.177 50.5183C33.251 50.5183 32.471 50.4583 31.837 50.3423C31.203 50.2263 30.689 50.0293 30.293 49.7583C29.9904 49.553 29.7409 49.2788 29.565 48.9583C29.385 48.6353 29.268 48.2083 29.215 47.7033L30.615 47.6903C30.615 48.3553 30.862 48.8453 31.355 49.1603C31.885 49.5383 32.822 49.7273 34.168 49.7273C36.285 49.7273 37.344 49.1973 37.344 48.1353C37.344 47.5153 36.989 47.0883 36.279 46.8553C36.135 46.8103 35.279 46.6913 33.709 46.4983C32.139 46.3053 31.163 46.1313 30.776 45.9783C29.94 45.6453 29.522 45.0482 29.522 44.1842C29.5066 43.7949 29.6041 43.4094 29.8029 43.0743C30.0016 42.7391 30.293 42.4686 30.642 42.2952C31.012 42.1252 31.472 41.9923 32.026 41.8973C32.58 41.8023 33.221 41.7553 33.95 41.7553C36.866 41.7553 38.324 42.6703 38.324 44.5003H36.984C36.984 43.2143 35.959 42.5703 33.909 42.5703C32.866 42.5703 32.089 42.7003 31.576 42.9703C31.063 43.2403 30.806 43.6302 30.806 44.1702C30.806 44.6743 31.152 45.0383 31.844 45.2633C32.249 45.3803 33.179 45.5153 34.636 45.6683C35.94 45.7853 36.834 45.9513 37.32 46.1683C38.246 46.5283 38.72 47.1383 38.72 48.0023L38.721 47.9823ZM44.257 50.2823L43.684 50.3623L43.326 50.3893C42.408 50.3893 41.746 50.2563 41.341 49.9893C40.936 49.7222 40.741 49.2573 40.741 48.5893V42.8593H39.071V42.0163H40.731L40.744 39.3083H42.029V42.0163H44.267V42.8733L42.029 42.8593V48.4363C42.029 48.8513 42.129 49.1383 42.359 49.2963C42.589 49.4543 42.973 49.5333 43.539 49.5333C43.619 49.5433 43.709 49.5393 43.809 49.5233C43.909 49.5073 44.056 49.4733 44.254 49.4213L44.268 50.2812L44.257 50.2823ZM53.144 48.3703C52.7872 48.6613 52.3806 48.8852 51.944 49.0312C51.494 49.1842 50.978 49.2613 50.394 49.2613C47.706 49.2613 46.364 48.1613 46.364 45.9313C46.364 44.8983 46.708 44.0893 47.394 43.5053C48.08 42.9213 49.05 42.6293 50.299 42.6293C51.557 42.6293 52.512 42.9233 53.164 43.5123C53.816 44.1013 54.142 44.8893 54.142 45.8783C54.142 46.9563 53.809 47.7783 53.144 48.3723M55.427 42.0123H54.142L54.128 43.4293C53.562 42.8543 53.158 42.4893 52.914 42.3373C52.194 41.9423 51.264 41.7443 50.122 41.7443C48.449 41.7443 47.172 42.1263 46.292 42.8903C45.456 43.5903 45.038 44.6073 45.038 45.9373C45.038 46.5933 45.144 47.1803 45.355 47.6973C45.566 48.2143 45.875 48.6523 46.28 49.0113C47.163 49.7483 48.41 50.1173 50.022 50.1173C51.958 50.1173 53.322 49.5872 54.142 48.5173V49.9843C54.142 50.9193 53.847 51.6442 53.258 52.1562C52.669 52.6683 51.7 52.9263 50.351 52.9263C49.083 52.9263 48.179 52.7513 47.651 52.4023C47.246 52.1343 46.967 51.6683 46.815 51.0053H45.5C45.644 51.9303 46.035 52.6003 46.674 53.0133C47.412 53.4893 48.658 53.7273 50.412 53.7273C53.768 53.7273 55.446 52.4803 55.446 49.9853V42.0023L55.427 42.0123ZM62.377 42.8473C62.0208 42.787 61.6603 42.7556 61.299 42.7533C59.187 42.7533 58.131 43.9113 58.131 46.2283V50.2563H56.861L56.847 42.0133L58.132 42.0263V43.4963H58.199C58.415 42.9163 58.756 42.4763 59.224 42.1783C59.736 41.8783 60.5 41.7433 61.516 41.7433H62.379V42.8463L62.377 42.8473ZM63.573 45.6133C63.735 44.6763 64.099 43.9513 64.665 43.4373C65.035 43.1403 65.452 42.9173 65.919 42.7673C66.386 42.6172 66.913 42.5443 67.497 42.5443C68.639 42.5443 69.571 42.8573 70.295 43.4843C71.019 44.1113 71.39 44.8203 71.39 45.6143H63.583M71.516 43.0713C71.0461 42.6084 70.4721 42.2651 69.842 42.0703C69.176 41.8533 68.398 41.7453 67.507 41.7453C65.842 41.7453 64.551 42.1323 63.633 42.9053C62.715 43.6783 62.256 44.7323 62.256 46.0653C62.256 47.3983 62.696 48.4653 63.578 49.2373C64.531 50.1013 65.876 50.5333 67.613 50.5333C68.305 50.5333 68.946 50.4533 69.535 50.2983C70.124 50.1433 70.639 49.9183 71.08 49.6333C71.854 49.0773 72.343 48.3933 72.55 47.5773H71.15C70.673 48.9773 69.487 49.6913 67.59 49.6913C66.25 49.6913 65.22 49.3473 64.49 48.6573C63.87 48.0573 63.56 47.3013 63.56 46.3613H72.72C72.72 44.9633 72.32 43.8663 71.492 43.0613L71.516 43.0713Z" fill="#231F20"/>
<path d="M86.3198 46.8884C86.3198 49.3354 84.3458 50.5584 80.3998 50.5584C78.0348 50.5584 76.3078 50.1384 75.2198 49.2934C74.3198 48.6004 73.8848 47.5434 73.8848 46.1234H75.4848C75.4848 48.4084 77.1248 49.5504 80.4098 49.5504C81.9838 49.5504 83.1228 49.3164 83.8238 48.8504C84.4178 48.4374 84.7238 47.7904 84.7238 46.9104C84.7238 46.0384 84.3188 45.4274 83.5088 45.0764C83.0488 44.8764 81.9288 44.6494 80.1488 44.3614C77.9088 44.0194 76.4558 43.6784 75.7908 43.3374C74.8288 42.8344 74.3468 41.9804 74.3468 40.7754C74.3468 39.6524 74.7468 38.8154 75.5748 38.2674C76.4548 37.6654 77.9678 37.3644 80.1088 37.3644C83.9788 37.3644 85.9118 38.6494 85.9118 41.2194H84.2998C84.2998 39.2944 82.8628 38.3324 79.9998 38.3324C78.5598 38.3324 77.5058 38.5264 76.8398 38.9124C76.2098 39.3264 75.8948 39.9324 75.8948 40.7344C75.8948 41.5714 76.2998 42.1604 77.1098 42.5024C77.5398 42.7004 78.8098 42.9744 80.9158 43.3264C82.8958 43.6234 84.2308 43.9694 84.9158 44.3664C85.8608 44.8524 86.3328 45.6934 86.3328 46.8904L86.3198 46.8884ZM99.2278 48.1384C98.629 48.6167 97.9469 48.9798 97.2158 49.2094C96.4678 49.4474 95.6308 49.5664 94.7038 49.5664C92.8038 49.5664 91.2838 49.0664 90.1178 48.0364C88.9518 47.0064 88.3678 45.6594 88.3678 43.9624C88.3678 42.1924 88.9458 40.8154 90.1028 39.8274C91.2598 38.8394 92.8028 38.3454 94.7028 38.3454C96.6388 38.3454 98.1608 38.8614 99.2678 39.8954C99.8528 40.3984 100.285 40.9954 100.565 41.6604C100.845 42.3254 100.985 43.1004 100.985 43.9634C100.985 45.7234 100.399 47.1154 99.2288 48.1394M100.074 48.9724C100.902 48.3884 101.514 47.6724 101.911 46.8494C102.308 46.0264 102.506 45.0494 102.506 43.9714C102.506 42.0214 101.858 40.4574 100.562 39.2714C99.8688 38.6244 99.0318 38.1434 98.0618 37.8294C97.0918 37.5154 95.9618 37.3574 94.7018 37.3574C92.2548 37.3574 90.3338 37.9504 88.9388 39.1374C87.5438 40.3244 86.8468 41.9324 86.8468 43.9634C86.8468 45.9404 87.5498 47.5354 88.9468 48.7484C90.3438 49.9614 92.2768 50.5684 94.7148 50.5684C95.6678 50.5684 96.4998 50.5034 97.2108 50.3754C97.9218 50.2474 98.5238 50.0484 99.0188 49.7814L101.367 51.4084L102.347 50.5084L100.074 48.9664V48.9724ZM114.404 50.2554H103.546V37.6804L105.039 37.6534V49.2034H114.419L114.405 50.2534L114.404 50.2554Z" fill="#367FAF"/>
<path d="M67.4154 27.5561C67.6124 25.9161 67.5534 25.6761 68.7754 25.9421L69.0754 25.9691C70.0154 26.0121 71.2424 25.8191 71.9654 25.4831C73.5184 24.7631 74.4394 23.5591 72.9084 23.8751C69.4144 24.5951 69.1744 23.4131 69.1744 23.4131C72.8644 17.9391 74.4044 10.9901 73.0744 9.29011C69.4444 4.65011 63.1584 6.84511 63.0544 6.90211L63.0214 6.90811C62.3314 6.76511 61.5584 6.67811 60.6914 6.66511C59.1114 6.63911 57.9114 7.07911 56.9914 7.77011C56.9914 7.77011 45.7794 3.15011 46.2914 13.5801C46.4014 15.7981 49.4714 30.3661 53.1314 25.9661C54.4694 24.3561 55.7614 22.9961 55.7614 22.9961C56.4034 23.4231 57.1614 23.6401 57.9784 23.5621L58.0404 23.5091C58.0217 23.718 58.0301 23.9284 58.0654 24.1351C57.1224 25.1881 57.3994 25.3751 55.5154 25.7621C53.6084 26.1551 54.7284 26.8551 55.4604 27.0381C56.3474 27.2601 58.4004 27.5741 59.7854 25.6331L59.7304 25.8551C60.1004 26.1511 60.0754 27.9821 60.1274 29.2901C60.1794 30.5981 60.2674 31.8201 60.5344 32.5401C60.8014 33.2601 61.1144 35.1141 63.5944 34.5831C65.6644 34.1391 67.2484 33.5011 67.3924 27.5601" fill="#231F20"/>
<path d="M67.4154 27.5561C67.6124 25.9161 67.5534 25.6761 68.7754 25.9421L69.0754 25.9691C70.0154 26.0121 71.2424 25.8191 71.9654 25.4831C73.5184 24.7631 74.4394 23.5591 72.9084 23.8751C69.4144 24.5951 69.1744 23.4131 69.1744 23.4131C72.8644 17.9391 74.4044 10.9901 73.0744 9.29011C69.4444 4.65011 63.1584 6.84511 63.0544 6.90211L63.0214 6.90811C62.3314 6.76511 61.5584 6.67811 60.6914 6.66511C59.1114 6.63911 57.9114 7.07911 56.9914 7.77011C56.9914 7.77011 45.7794 3.15011 46.2914 13.5801C46.4014 15.7981 49.4714 30.3661 53.1314 25.9661C54.4694 24.3561 55.7614 22.9961 55.7614 22.9961C56.4034 23.4231 57.1614 23.6401 57.9784 23.5621L58.0404 23.5091C58.0217 23.718 58.0301 23.9284 58.0654 24.1351C57.1224 25.1881 57.3994 25.3751 55.5154 25.7621C53.6084 26.1551 54.7284 26.8551 55.4604 27.0381C56.3474 27.2601 58.4004 27.5741 59.7854 25.6331L59.7304 25.8551C60.1004 26.1511 60.0754 27.9821 60.1274 29.2901C60.1794 30.5981 60.2674 31.8201 60.5344 32.5401C60.8014 33.2601 61.1144 35.1141 63.5944 34.5831C65.6644 34.1391 67.2484 33.5011 67.3924 27.5601" stroke="#231F20" stroke-width="2.598"/>
<path d="M72.9163 23.8751C69.4223 24.5951 69.1823 23.4131 69.1823 23.4131C72.8723 17.9391 74.4123 10.9901 73.0823 9.28914C69.4523 4.64914 63.1663 6.84414 63.0623 6.90114L63.0283 6.90714C62.3383 6.76414 61.5653 6.67714 60.6983 6.66414C59.1183 6.63814 57.9183 7.07814 56.9983 7.76914C56.9983 7.76914 45.7863 3.14914 46.2983 13.5791C46.4083 15.7991 49.4783 30.3651 53.1383 25.9651C54.4763 24.3551 55.7683 22.9951 55.7683 22.9951C56.4103 23.4221 57.1783 23.6391 57.9843 23.5611L58.0473 23.5081C58.0273 23.7081 58.0373 23.9031 58.0723 24.1341C57.1293 25.1871 57.4063 25.3741 55.5223 25.7611C53.6153 26.1541 54.7353 26.8541 55.4673 27.0371C56.3543 27.2591 58.4073 27.5731 59.7923 25.6321L59.7373 25.8541C60.1073 26.1501 60.3673 27.7791 60.3223 29.2541C60.2773 30.7291 60.2503 31.7441 60.5423 32.5361C60.8343 33.3281 61.1223 35.1101 63.6023 34.5791C65.6723 34.1351 66.7463 32.9851 66.8953 31.0671C67.0013 29.7031 67.2413 29.9051 67.2553 28.6871L67.4473 28.1101C67.6693 26.2601 67.4823 25.6651 68.7573 25.9431L69.0573 25.9701C69.9973 26.0131 71.2253 25.8201 71.9473 25.4841C73.5003 24.7641 74.4213 23.5601 72.8903 23.8761L72.9163 23.8751Z" fill="#417BA2"/>
<path d="M59.9598 24.9353C59.8638 28.3753 59.9838 31.8383 60.3198 32.6803C60.6558 33.5223 61.3768 35.1603 63.8558 34.6283C65.9258 34.1843 66.6798 33.3253 67.0058 31.4283L67.7708 25.3653M56.9998 7.69228C56.9998 7.69228 45.7798 3.10628 46.2998 13.5343C46.3998 15.7543 49.4798 30.3213 53.1398 25.9213C54.4778 24.3213 55.6868 23.0513 55.6868 23.0513M63.0498 6.85528C62.6498 6.97728 69.2898 4.43228 73.0578 9.25528C74.3878 10.9553 72.8578 17.9053 69.1578 23.3793" stroke="white" stroke-width="0.866" stroke-linecap="round" stroke-linejoin="round"/>
<path d="M69.1567 23.3702C69.1567 23.3702 69.3967 24.5532 72.8917 23.8322C74.4217 23.5162 73.4917 24.7192 71.9487 25.4402C70.6747 26.0302 67.8188 26.1832 67.7708 25.3662C67.6508 23.2562 69.2747 23.8982 69.1567 23.3702ZM69.1567 23.3702C69.0507 22.8942 68.3247 22.4272 67.8447 21.2632C67.4247 20.2462 62.0947 12.4512 69.3247 13.6092C69.5897 13.5542 67.4387 6.7322 60.6727 6.6212C53.9067 6.5102 54.1307 14.9412 54.1307 14.9412" stroke="white" stroke-width="0.866" stroke-linecap="round" stroke-linejoin="bevel"/>
<path d="M58.0664 24.0901C57.1234 25.1431 57.4004 25.3301 55.5164 25.7171C53.6094 26.1101 54.7294 26.8101 55.4614 26.9931C56.3484 27.2151 58.4014 27.5291 59.7864 25.5881C60.2084 24.9981 59.7844 24.0541 59.2044 23.8131C58.9244 23.6971 58.5494 23.5531 58.0684 24.0901H58.0664Z" stroke="white" stroke-width="0.866" stroke-linejoin="round"/>
<path d="M58.004 24.0722C57.909 23.4522 58.208 22.7162 58.527 21.8522C59.007 20.5582 60.127 19.2642 59.23 15.1602C58.57 12.1022 54.132 14.5232 54.13 14.9382C54.128 15.3532 54.33 17.0402 54.056 19.0052C53.696 21.5692 55.686 23.7382 57.979 23.5152" stroke="white" stroke-width="0.866" stroke-linecap="round" stroke-linejoin="round"/>
<path d="M56.9483 14.8769C56.9283 15.0189 57.2083 15.3969 57.5713 15.4469C57.9343 15.4969 58.2463 15.2019 58.2653 15.0609C58.2843 14.9199 58.0053 14.7629 57.6413 14.7109C57.2773 14.6589 56.9663 14.7339 56.9473 14.8759L56.9483 14.8769Z" fill="white" stroke="white" stroke-width="0.289"/>
<path d="M68.0221 14.5879C68.0421 14.7299 67.7621 15.1079 67.3991 15.1579C67.0361 15.2079 66.7241 14.9129 66.7041 14.7719C66.6841 14.6309 66.9641 14.4739 67.3281 14.4239C67.6921 14.3739 68.0031 14.4469 68.0231 14.5889L68.0221 14.5879Z" fill="white" stroke="white" stroke-width="0.144"/>
<path d="M69.3229 13.6084C69.3829 14.7184 69.0829 15.4764 69.0459 16.6584C68.9899 18.3784 69.8659 20.3454 68.5459 22.3154" stroke="white" stroke-width="0.866" stroke-linecap="round" stroke-linejoin="round"/>
</svg>
