<svg width="120" height="60" viewBox="0 0 120 60" fill="none" xmlns="http://www.w3.org/2000/svg">
<path d="M26.04 33.4443C27.9595 33.4443 29.5156 31.8882 29.5156 29.9687C29.5156 28.0492 27.9595 26.4932 26.04 26.4932C24.1205 26.4932 22.5645 28.0492 22.5645 29.9687C22.5645 31.8882 24.1205 33.4443 26.04 33.4443Z" fill="#00D8FF"/>
<path fillRule="evenodd" clipRule="evenodd" d="M26.0402 22.9023C30.7067 22.9023 35.0417 23.5719 38.3102 24.6972C42.2484 26.053 44.6697 28.108 44.6697 29.9689C44.6697 31.9081 42.1036 34.0913 37.8745 35.4925C34.6772 36.5517 30.4699 37.1047 26.0402 37.1047C21.4987 37.1047 17.198 36.5857 13.9647 35.4808C9.87403 34.0826 7.41016 31.8711 7.41016 29.9689C7.41016 28.1231 9.72203 26.084 13.6048 24.7302C16.8856 23.5864 21.3276 22.9023 26.0396 22.9023H26.0402Z" stroke="#00D8FF" stroke-width="1.66272"/>
<path fillRule="evenodd" clipRule="evenodd" d="M19.8884 26.4558C22.2197 22.4134 24.9653 18.9926 27.5729 16.7233C30.7148 13.9891 33.7047 12.9183 35.3167 13.8478C36.9966 14.8166 37.6058 18.1303 36.7069 22.4937C36.0279 25.7927 34.4044 29.7135 32.1915 33.5508C29.9226 37.4851 27.3246 40.9513 24.7524 43.1996C21.4976 46.0448 18.351 47.0744 16.7031 46.1241C15.1041 45.2027 14.4927 42.1807 15.2597 38.1407C15.9079 34.7273 17.5343 30.5376 19.8877 26.4557L19.8884 26.4558Z" stroke="#00D8FF" stroke-width="1.66272"/>
<path fillRule="evenodd" clipRule="evenodd" d="M19.8943 33.5615C17.5564 29.5237 15.9647 25.4358 15.3003 22.0433C14.5005 17.9558 15.066 14.8306 16.6765 13.8984C18.3547 12.9268 21.5299 14.0538 24.8612 17.0118C27.38 19.2482 29.9663 22.6122 32.1857 26.4459C34.4611 30.3763 36.1665 34.3583 36.83 37.7096C37.6694 41.9504 36.99 45.1907 35.3437 46.1437C33.7463 47.0685 30.8232 46.0894 27.7063 43.4071C25.0727 41.141 22.2552 37.6394 19.8943 33.5614V33.5615Z" stroke="#00D8FF" stroke-width="1.66272"/>
<path fillRule="evenodd" clipRule="evenodd" d="M64.62 38.8477L60.36 32.4117C62.513 32.2217 64.453 30.6617 64.453 27.8117C64.453 24.9117 62.395 23.0557 59.508 23.0557H53.168V38.8357H55.132V32.5657H58.279L62.301 38.8357L64.62 38.8477ZM59.273 30.8507H55.133V24.8177H59.273C61.143 24.8177 62.42 26.0477 62.42 27.8227C62.42 29.5977 61.142 30.8527 59.273 30.8527V30.8507ZM71.931 39.1307C73.801 39.1307 75.338 38.5157 76.474 37.3807L75.622 36.2207C74.722 37.1437 73.398 37.6637 72.097 37.6637C69.637 37.6637 68.122 35.8657 67.98 33.7137H77.23V33.2637C77.23 29.8337 75.195 27.1357 71.74 27.1357C68.475 27.1357 66.11 29.8097 66.11 33.1217C66.11 36.6947 68.547 39.1217 71.93 39.1217L71.931 39.1307ZM75.481 32.4107H67.981C68.076 30.6607 69.281 28.6007 71.719 28.6007C74.322 28.6007 75.457 30.7067 75.481 32.4107ZM89.015 38.8467V30.9917C89.015 28.2237 87.005 27.1347 84.591 27.1347C82.721 27.1347 81.255 27.7497 80.025 29.0277L80.853 30.2577C81.87 29.1697 82.983 28.6727 84.355 28.6727C86.011 28.6727 87.242 29.5477 87.242 31.0857V33.1437C86.319 32.0787 85.018 31.5817 83.456 31.5817C81.516 31.5817 79.456 32.7887 79.456 35.3437C79.456 37.8277 81.514 39.1297 83.456 39.1297C84.994 39.1297 86.296 38.5857 87.242 37.5447V38.8447L89.015 38.8467ZM84.095 37.8527C82.439 37.8527 81.279 36.8127 81.279 35.3687C81.279 33.9017 82.439 32.8607 84.095 32.8607C85.349 32.8607 86.555 33.3337 87.242 34.2807V36.4337C86.556 37.3797 85.349 37.8527 84.095 37.8527ZM97.595 39.1307C99.677 39.1307 100.907 38.2787 101.783 37.1437L100.6 36.0557C99.843 37.0727 98.873 37.5457 97.7 37.5457C95.263 37.5457 93.75 35.6527 93.75 33.1217C93.75 30.5907 95.264 28.7217 97.7 28.7217C98.883 28.7217 99.853 29.1717 100.6 30.2117L101.783 29.1237C100.908 27.9877 99.677 27.1367 97.595 27.1367C94.188 27.1367 91.893 29.7397 91.893 33.1227C91.893 36.5297 94.188 39.1227 97.595 39.1227V39.1307ZM107.155 39.1307C108.195 39.1307 108.835 38.8227 109.285 38.3977L108.765 37.0727C108.528 37.3327 108.065 37.5457 107.558 37.5457C106.778 37.5457 106.398 36.9307 106.398 36.0787V28.9807H108.718V27.4197H106.398V24.2967H104.623V27.4197H102.73V28.9817H104.623V36.4587C104.623 38.1627 105.475 39.1327 107.155 39.1327V39.1307Z" fill="#00D8FF"/>
</svg>
