<svg width="120" height="60" viewBox="0 0 120 60" fill="none" xmlns="http://www.w3.org/2000/svg">
<path d="M18.7025 19.4475H13.0625V36.9135H10.7625V19.4475H5.14648V17.3745H18.7025V19.4475ZM27.6005 22.9625L21.1825 39.1455C20.0395 42.0325 18.4325 43.4785 16.3575 43.4785C15.7775 43.4785 15.2915 43.4205 14.9005 43.3005V41.2965C15.3805 41.4595 15.8225 41.5405 16.2205 41.5405C17.3485 41.5405 18.1935 40.8705 18.7545 39.5255L19.8705 36.8825L14.4205 22.9625H16.9005L20.6755 33.6975C20.7225 33.8335 20.8155 34.1895 20.9625 34.7595H21.0425L21.3125 33.7245L25.2765 22.9625H27.6005ZM31.2545 34.8985H31.2005V43.3315H28.9645V22.9615H31.2005V25.4145H31.2545C32.3545 23.5625 33.9595 22.6345 36.0795 22.6345C37.8775 22.6345 39.2795 23.2585 40.2895 24.5065C41.2995 25.7545 41.7995 27.4285 41.7995 29.5285C41.7995 31.8615 41.2335 33.7335 40.0995 35.1365C38.9655 36.5395 37.4095 37.2405 35.4415 37.2405C33.6415 37.2365 32.2365 36.4575 31.2565 34.8955L31.2545 34.8985ZM31.2005 29.2705V31.2205C31.2005 32.3755 31.5765 33.3505 32.3245 34.1585C33.0725 34.9665 34.0245 35.3635 35.1805 35.3635C36.5325 35.3635 37.5945 34.8435 38.3625 33.8095C39.1305 32.7755 39.5125 31.3335 39.5125 29.4925C39.5125 27.9385 39.1525 26.7225 38.4355 25.8425C37.7185 24.9625 36.7355 24.5225 35.5215 24.5225C34.2235 24.5225 33.1765 24.9755 32.3865 25.8785C31.5965 26.7815 31.2005 27.9075 31.2005 29.2705ZM55.3555 30.4955H45.5055C45.5405 32.0495 45.9585 33.2455 46.7575 34.0915C47.5565 34.9375 48.6575 35.3585 50.0555 35.3585C51.6255 35.3585 53.0705 34.8385 54.3885 33.8045V35.9015C53.1635 36.7915 51.5405 37.2385 49.5245 37.2385C47.5515 37.2385 46.0045 36.6065 44.8775 35.3385C43.7505 34.0705 43.1775 32.2885 43.1775 29.9905C43.1775 27.8205 43.7935 26.0505 45.0225 24.6855C46.2515 23.3205 47.7825 22.6355 49.6075 22.6355C51.4325 22.6355 52.8435 23.2255 53.8435 24.4055C54.8435 25.5855 55.3435 27.2255 55.3435 29.3235V30.4935L55.3555 30.4955ZM53.0555 28.6005C53.0475 27.3005 52.7335 26.3065 52.1215 25.5905C51.5095 24.8745 50.6565 24.5135 49.5675 24.5135C48.5135 24.5135 47.6175 24.8895 46.8815 25.6455C46.1455 26.4015 45.6815 27.3855 45.5175 28.6025L53.0555 28.6005ZM57.2995 36.1225V33.4255C57.5825 33.6955 57.9195 33.9455 58.3145 34.1615C58.7095 34.3775 59.1145 34.5645 59.5625 34.7115C60.0105 34.8585 60.4385 34.9785 60.8765 35.0615C61.3145 35.1445 61.7265 35.1855 62.0965 35.1855C63.3835 35.1855 64.3485 34.9255 64.9835 34.4025C65.6185 33.8795 65.9365 33.1275 65.9365 32.1475C65.9365 31.6205 65.8315 31.1635 65.6185 30.7715C65.3934 30.3638 65.0951 30.0011 64.7385 29.7015C64.3625 29.3795 63.9205 29.0695 63.4085 28.7755L61.7585 27.8415L60.0145 26.7915C59.4998 26.46 59.0273 26.0671 58.6075 25.6215C58.2075 25.1955 57.8945 24.7115 57.6655 24.1715C57.4365 23.6315 57.3255 22.9975 57.3255 22.2715C57.3255 21.3815 57.5035 20.6085 57.8605 19.9515C58.2175 19.2945 58.6855 18.7515 59.2705 18.3235C59.8555 17.8955 60.5145 17.5795 61.2585 17.3705C61.9988 17.1618 62.7643 17.0561 63.5335 17.0565C65.2965 17.0565 66.5795 17.2895 67.3855 17.7505V20.3235C66.3315 19.5255 64.9855 19.1265 63.3205 19.1265C62.8635 19.1265 62.4055 19.1805 61.9485 19.2815C61.4915 19.3825 61.0845 19.5565 60.7285 19.7935C60.3725 20.0305 60.0815 20.3335 59.8565 20.7085C59.6315 21.0835 59.5195 21.5335 59.5195 22.0725C59.5195 22.5725 59.6045 23.0025 59.7755 23.3665C59.9465 23.7305 60.1975 24.0605 60.5315 24.3625C60.8655 24.6645 61.2675 24.9525 61.7485 25.2345L63.3985 26.1605L65.2185 27.2505C65.7925 27.6305 66.2955 28.0525 66.7265 28.5175C67.1575 28.9825 67.5015 29.4945 67.7535 30.0575C68.0055 30.6205 68.1335 31.2675 68.1335 31.9915C68.1335 32.9515 67.9595 33.7715 67.6185 34.4365C67.2908 35.0832 66.8123 35.6415 66.2235 36.0645C65.6385 36.4845 64.9635 36.7845 64.1965 36.9715C63.4295 37.1585 62.6265 37.2515 61.7785 37.2515C61.4955 37.2515 61.1465 37.2285 60.7325 37.1775L59.4625 36.9605C59.0285 36.8635 58.6225 36.7475 58.2345 36.6075C57.8445 36.4575 57.5365 36.3075 57.3005 36.1275L57.2995 36.1225ZM80.0295 36.2725C78.9565 36.9155 77.6845 37.2425 76.2165 37.2425C74.2285 37.2425 72.6205 36.5955 71.3995 35.3005C70.1785 34.0055 69.5665 32.3285 69.5665 30.2665C69.5665 27.9685 70.2265 26.1235 71.5425 24.7285C72.8585 23.3335 74.6155 22.6355 76.8165 22.6355C78.0415 22.6355 79.1225 22.8655 80.0605 23.3175V25.6175C79.0255 24.8875 77.9175 24.5275 76.7355 24.5275C75.3095 24.5275 74.1395 25.0395 73.2285 26.0625C72.3175 27.0855 71.8605 28.4265 71.8605 30.0885C71.8605 31.7235 72.2905 33.0145 73.1475 33.9565C74.0045 34.8985 75.1575 35.3745 76.6005 35.3745C77.8175 35.3745 78.9605 34.9715 80.0345 34.1615V36.2815L80.0295 36.2725ZM88.6755 25.2205C88.2855 24.9225 87.7225 24.7705 86.9755 24.7705C86.0225 24.7705 85.2235 25.2205 84.5855 26.1205C83.9475 27.0205 83.6255 28.2445 83.6255 29.7985V36.9085H81.3895V22.9585H83.6255V25.8345H83.6795C83.9975 24.8545 84.4815 24.0865 85.1365 23.5405C85.7915 22.9945 86.5195 22.7155 87.3295 22.7155C87.9095 22.7155 88.3565 22.7775 88.6665 22.9155L88.6755 25.2205ZM91.2405 19.4205C90.8405 19.4205 90.5005 19.2845 90.2175 19.0135C89.9345 18.7425 89.7955 18.3975 89.7955 17.9785C89.7955 17.5595 89.9355 17.2155 90.2175 16.9365C90.4995 16.6575 90.8415 16.5215 91.2405 16.5215C91.6475 16.5215 91.9965 16.6615 92.2825 16.9365C92.423 17.0705 92.5338 17.2325 92.6078 17.4119C92.6819 17.5914 92.7176 17.7844 92.7125 17.9785C92.7125 18.3785 92.5695 18.7185 92.2825 19.0015C91.9955 19.2765 91.6465 19.4205 91.2405 19.4205ZM92.3305 36.9135H90.0945V22.9635H92.3305V36.9135ZM95.9345 34.8985H95.8805V43.3315H93.6445V22.9615H95.8805V25.4145H95.9345C97.0345 23.5625 98.6395 22.6345 100.759 22.6345C102.557 22.6345 103.959 23.2585 104.969 24.5065C105.979 25.7545 106.479 27.4285 106.479 29.5285C106.479 31.8615 105.913 33.7335 104.779 35.1365C103.645 36.5395 102.079 37.2405 100.121 37.2405C98.3215 37.2365 96.9165 36.4575 95.9365 34.8955L95.9345 34.8985ZM95.8805 29.2715V31.2215C95.8805 32.3765 96.2565 33.3515 97.0045 34.1595C97.7525 34.9675 98.7045 35.3645 99.8605 35.3645C101.212 35.3645 102.274 34.8445 103.042 33.8105C103.81 32.7765 104.192 31.3345 104.192 29.4935C104.192 27.9395 103.832 26.7235 103.115 25.8435C102.398 24.9635 101.415 24.5235 100.201 24.5235C98.9035 24.5235 97.8565 24.9765 97.0665 25.8795C96.2765 26.7825 95.8805 27.9095 95.8805 29.2745V29.2715ZM114.846 36.7785C114.319 37.0685 113.626 37.2125 112.761 37.2125C110.321 37.2125 109.095 35.8485 109.095 33.1245V24.8705H106.695V22.9635H109.095V19.5575L111.331 18.8375V22.9645H114.846V24.8715H111.331V32.7315C111.331 33.6655 111.491 34.3355 111.808 34.7355C112.125 35.1355 112.653 35.3355 113.388 35.3355C113.95 35.3355 114.438 35.1805 114.845 34.8705L114.846 36.7785Z" fill="#007ACC"/>
</svg>
