<svg width="27" height="27" viewBox="0 0 27 27" fill="none" xmlns="http://www.w3.org/2000/svg">
<path d="M1.26562 16.875C1.03275 16.875 0.84375 16.686 0.84375 16.4531V2.95312C0.84375 2.25534 1.41159 1.6875 2.10938 1.6875H24.8906C25.5884 1.6875 26.1562 2.25534 26.1562 2.95312V4.21875C26.1562 4.45163 25.9673 4.64062 25.7344 4.64062C25.5015 4.64062 25.3125 4.45163 25.3125 4.21875V2.95312C25.3125 2.72109 25.1227 2.53125 24.8906 2.53125H2.10938C1.87734 2.53125 1.6875 2.72109 1.6875 2.95312V16.4531C1.6875 16.686 1.4985 16.875 1.26562 16.875ZM13.5 26.1562H8.85938C8.6265 26.1562 8.4375 25.9673 8.4375 25.7344C8.4375 25.5015 8.6265 25.3125 8.85938 25.3125H9.70312C10.4009 25.3125 10.9688 24.7447 10.9688 24.0469V21.9375C10.9688 21.7046 11.1578 21.5156 11.3906 21.5156C11.6235 21.5156 11.8125 21.7046 11.8125 21.9375V24.0469C11.8125 24.5219 11.6547 24.9598 11.3898 25.3125H13.5C13.7329 25.3125 13.9219 25.5015 13.9219 25.7344C13.9219 25.9673 13.7329 26.1562 13.5 26.1562Z" fill="white"/>
<path d="M13.0781 21.9375H2.10938C1.41159 21.9375 0.84375 21.3697 0.84375 20.6719V18.1406C0.84375 17.9078 1.03275 17.7188 1.26562 17.7188H13.0781C13.311 17.7188 13.5 17.9078 13.5 18.1406C13.5 18.3735 13.311 18.5625 13.0781 18.5625H1.6875V20.6719C1.6875 20.9039 1.87734 21.0938 2.10938 21.0938H13.0781C13.311 21.0938 13.5 21.2828 13.5 21.5156C13.5 21.7485 13.311 21.9375 13.0781 21.9375ZM18.1406 7.59375H22.3594C22.5923 7.59375 22.7812 7.40475 22.7812 7.17188C22.7812 6.939 22.5923 6.75 22.3594 6.75H18.1406C17.9077 6.75 17.7188 6.939 17.7188 7.17188C17.7188 7.40475 17.9077 7.59375 18.1406 7.59375ZM19.8281 24.4688H20.6719C20.9048 24.4688 21.0938 24.2798 21.0938 24.0469C21.0938 23.814 20.9048 23.625 20.6719 23.625H19.8281C19.5952 23.625 19.4062 23.814 19.4062 24.0469C19.4062 24.2798 19.5952 24.4688 19.8281 24.4688Z" fill="white"/>
<path d="M24.0469 26.1562H16.4531C15.2896 26.1562 14.3438 25.2104 14.3438 24.0469V7.17188C14.3438 6.00834 15.2896 5.0625 16.4531 5.0625H24.0469C25.2104 5.0625 26.1562 6.00834 26.1562 7.17188V24.0469C26.1562 25.2104 25.2104 26.1562 24.0469 26.1562ZM16.4531 5.90625C15.7553 5.90625 15.1875 6.47409 15.1875 7.17188V24.0469C15.1875 24.7447 15.7553 25.3125 16.4531 25.3125H24.0469C24.7447 25.3125 25.3125 24.7447 25.3125 24.0469V7.17188C25.3125 6.47409 24.7447 5.90625 24.0469 5.90625H16.4531Z" fill="white"/>
</svg>
