<svg width="32" height="32" viewBox="0 0 32 32" fill="none" xmlns="http://www.w3.org/2000/svg">
<path d="M1.5 20C1.224 20 1 19.776 1 19.5V3.5C1 2.673 1.673 2 2.5 2H29.5C30.327 2 31 2.673 31 3.5V5C31 5.276 30.776 5.5 30.5 5.5C30.224 5.5 30 5.276 30 5V3.5C30 3.225 29.775 3 29.5 3H2.5C2.225 3 2 3.225 2 3.5V19.5C2 19.776 1.776 20 1.5 20ZM16 31H10.5C10.224 31 10 30.776 10 30.5C10 30.224 10.224 30 10.5 30H11.5C12.327 30 13 29.327 13 28.5V26C13 25.724 13.224 25.5 13.5 25.5C13.776 25.5 14 25.724 14 26V28.5C14 29.063 13.813 29.582 13.499 30H16C16.276 30 16.5 30.224 16.5 30.5C16.5 30.776 16.276 31 16 31Z" fill="#0094DA"/>
<path d="M15.5 26H2.5C1.673 26 1 25.327 1 24.5V21.5C1 21.224 1.224 21 1.5 21H15.5C15.776 21 16 21.224 16 21.5C16 21.776 15.776 22 15.5 22H2V24.5C2 24.775 2.225 25 2.5 25H15.5C15.776 25 16 25.224 16 25.5C16 25.776 15.776 26 15.5 26ZM21.5 9H26.5C26.776 9 27 8.776 27 8.5C27 8.224 26.776 8 26.5 8H21.5C21.224 8 21 8.224 21 8.5C21 8.776 21.224 9 21.5 9ZM23.5 29H24.5C24.776 29 25 28.776 25 28.5C25 28.224 24.776 28 24.5 28H23.5C23.224 28 23 28.224 23 28.5C23 28.776 23.224 29 23.5 29Z" fill="#0094DA"/>
<path d="M28.5 31H19.5C18.121 31 17 29.879 17 28.5V8.5C17 7.121 18.121 6 19.5 6H28.5C29.879 6 31 7.121 31 8.5V28.5C31 29.879 29.879 31 28.5 31ZM19.5 7C18.673 7 18 7.673 18 8.5V28.5C18 29.327 18.673 30 19.5 30H28.5C29.327 30 30 29.327 30 28.5V8.5C30 7.673 29.327 7 28.5 7H19.5Z" fill="#0094DA"/>
</svg>
