<svg width="120" height="60" viewBox="0 0 120 60" fill="none" xmlns="http://www.w3.org/2000/svg">
<path d="M55.4998 40.9007H50.8798V41.3807C52.3238 41.3807 52.5638 41.6807 52.5638 43.4987V46.7717C52.5638 48.6017 52.3238 48.9377 50.8798 48.9377C49.7728 48.7937 49.0028 48.1677 47.9918 47.0607L46.7888 45.7607C48.3768 45.4607 49.2438 44.4607 49.2438 43.3547C49.2438 41.9587 48.0408 40.8517 45.7788 40.8517H41.2548V41.3317C42.6988 41.3317 42.9388 41.6317 42.9388 43.4497V46.7227C42.9388 48.5527 42.6988 48.8887 41.2548 48.8887V49.3687H46.3568V48.8887C44.9128 48.8887 44.6728 48.5517 44.6728 46.7227V45.8087H45.1058L47.9458 49.3687H55.4538C59.1598 49.3687 60.7478 47.3957 60.7478 45.0857C60.7958 42.8237 59.2078 40.8987 55.5018 40.8987L55.4998 40.9007ZM44.7198 45.0877V41.6807H45.7798C46.9348 41.6807 47.4638 42.4987 47.4638 43.4137C47.4638 44.3287 46.9338 45.0977 45.7798 45.0977L44.7198 45.0877ZM55.5968 48.6477H55.4038C54.4898 48.6477 54.3438 48.4077 54.3438 47.2517V41.6717H55.5938C58.2888 41.6717 58.7698 43.6447 58.7698 45.1367C58.7698 46.7247 58.2398 48.6497 55.5938 48.6497L55.5968 48.6477ZM26.9118 46.0607L28.6918 40.8147C29.2218 39.2747 28.9918 38.8417 27.3438 38.8417V38.3117H32.2038V38.8417C30.5678 38.8417 30.1838 39.2267 29.5568 41.1037L26.6198 49.9007H26.2348L23.5878 41.8637L20.9398 49.9007H20.6028L17.7628 41.0937C17.1368 39.2167 16.7628 38.8317 15.2598 38.8317V38.3017H20.9398V38.8317C19.3998 38.8317 19.0148 39.1687 19.5438 40.8047L21.2768 46.0507L23.8768 38.3007H24.3568L26.9118 46.0607ZM35.6698 49.8157C32.8298 49.8157 30.5198 47.7457 30.5198 45.1957C30.5198 42.6927 32.8198 40.5757 35.6698 40.5757C38.5198 40.5757 40.8198 42.6457 40.8198 45.1957C40.8198 47.7457 38.5198 49.8157 35.6698 49.8157ZM35.6698 41.3457C33.3118 41.3457 32.4938 43.4637 32.4938 45.1477C32.4938 46.8317 33.3118 48.9497 35.6698 48.9497C38.0758 48.9497 38.8948 46.8317 38.8948 45.1477C38.8948 43.5117 38.0768 41.3457 35.6698 41.3457ZM67.1468 48.9487V49.4787H61.2268V48.9487C62.9598 48.9487 63.2468 48.5157 63.2468 45.9167V41.7767C63.2468 39.1767 62.9468 38.7927 61.2268 38.7927V38.2627H66.5688C69.2158 38.2627 70.7088 39.6107 70.7088 41.4387C70.7088 43.2187 69.2168 44.6147 66.5688 44.6147H65.1248V45.9627C65.1248 48.5127 65.4248 48.9467 67.1448 48.9467L67.1468 48.9487ZM66.5688 39.2267H65.1248V43.7027H66.5688C68.0128 43.7027 68.6868 42.7027 68.6868 41.4887C68.6868 40.2747 68.0128 39.2267 66.5688 39.2267ZM88.3718 47.0707L88.2278 47.5507C87.9878 48.4167 87.6978 48.7057 85.8698 48.7057H85.5328C84.1848 48.7057 83.9448 48.4057 83.9448 46.5877V45.3847C85.9648 45.3847 86.1108 45.5777 86.1108 46.9247H86.5908V43.0747H86.1108C86.1108 44.4227 85.9668 44.6147 83.9448 44.6147V41.7307H85.3408C87.1708 41.7307 87.4588 42.0307 87.6988 42.8857L87.8428 43.3657H88.2758L88.0828 40.9597H80.5268V41.4397C81.9708 41.4397 82.2108 41.7397 82.2108 43.5577V46.8307C82.2108 48.5147 82.0178 48.9487 80.8628 48.9967C79.8028 48.8527 79.0328 48.2267 78.0228 47.1197L76.8198 45.8197C78.4078 45.5197 79.2748 44.5197 79.2748 43.4137C79.2748 42.0177 78.0718 40.9107 75.8098 40.9107H71.2858V41.3907C72.7298 41.3907 72.9698 41.6907 72.9698 43.5087V46.7817C72.9698 48.6117 72.7298 48.9477 71.2858 48.9477V49.4277H76.3878V48.9477C74.9438 48.9477 74.7038 48.6107 74.7038 46.7817V45.8677H75.1368L77.9768 49.4277H88.5648L88.7088 47.0217H88.3718V47.0707ZM74.7518 45.0977V41.6807H75.8118C76.9668 41.6807 77.4958 42.4987 77.4958 43.4137C77.4958 44.3287 76.9658 45.0977 75.8118 45.0977H74.7518Z" fill="#00749A"/>
<path d="M93.6173 49.8149C92.6073 49.8149 91.6923 49.2849 91.3173 48.9489C91.1733 49.0929 90.9803 49.4789 90.8843 49.8149H90.4043V46.2549H90.9343C91.1273 47.9389 92.3303 48.9499 93.8223 48.9499C94.6403 48.9499 95.3143 48.4699 95.3143 47.6999C95.3143 47.0259 94.7363 46.4969 93.6783 46.0159L92.2343 45.3419C91.2243 44.8619 90.4543 43.9939 90.4543 42.8869C90.4543 41.6369 91.6093 40.5869 93.1973 40.5869C94.0633 40.5869 94.7853 40.8769 95.2173 41.2609C95.3613 41.1649 95.4573 40.8759 95.5543 40.5869H96.0343V43.6189H95.5043C95.3113 42.4159 94.6383 41.4049 93.2903 41.4049C92.5683 41.4049 91.8943 41.8379 91.8943 42.4649C91.8943 43.1389 92.4243 43.4749 93.6743 44.0529L95.0703 44.7269C96.3203 45.3049 96.8033 46.2669 96.8033 47.0269C96.7553 48.6629 95.3593 49.8169 93.6273 49.8169L93.6173 49.8149Z" fill="#00749A"/>
<path d="M101.56 49.8149C100.55 49.8149 99.6347 49.2849 99.2597 48.9489C99.1157 49.0929 98.9227 49.4789 98.8267 49.8149H98.3467V46.2549H98.8767C99.0697 47.9389 100.273 48.9499 101.765 48.9499C102.583 48.9499 103.257 48.4699 103.257 47.6999C103.257 47.0259 102.679 46.4969 101.621 46.0159L100.177 45.3419C99.1667 44.8619 98.3967 43.9939 98.3967 42.8869C98.3967 41.6369 99.5517 40.5869 101.14 40.5869C102.006 40.5869 102.728 40.8769 103.16 41.2609C103.304 41.1649 103.4 40.8759 103.497 40.5869H103.977V43.6189H103.447C103.254 42.4159 102.581 41.4049 101.233 41.4049C100.511 41.4049 99.8367 41.8379 99.8367 42.4649C99.8367 43.1389 100.367 43.4749 101.617 44.0529L103.013 44.7269C104.263 45.3049 104.746 46.2669 104.746 47.0269C104.698 48.6629 103.302 49.8169 101.57 49.8169L101.56 49.8149Z" fill="#00749A"/>
<path d="M46.8028 19.4852C46.8028 24.7192 49.8098 29.2292 54.2088 31.3452L47.9728 14.1402C47.2488 15.8102 46.8028 17.5912 46.8028 19.4852ZM68.9098 18.8152C68.9098 17.2002 68.2968 16.0312 67.7958 15.1952C67.1278 14.0812 66.5158 13.1902 66.5158 12.0772C66.5158 10.8522 67.4628 9.73721 68.7428 9.73721H68.9098C66.5698 7.56921 63.4518 6.28721 60.0098 6.28721C55.3878 6.34321 51.3798 8.68121 48.9848 12.2452H49.8198C51.2118 12.2452 53.3278 12.0782 53.3278 12.0782C54.0518 12.0222 54.1078 13.0802 53.4278 13.1922C53.4278 13.1922 52.7038 13.2922 51.9248 13.2922L56.7248 27.5472L59.6198 18.9172L57.5598 13.2932L56.1678 13.1932C55.4438 13.1372 55.5548 12.0792 56.2238 12.0792C56.2238 12.0792 58.3958 12.2462 59.6758 12.2462C61.0678 12.2462 63.1838 12.0792 63.1838 12.0792C63.9078 12.0232 63.9638 13.0812 63.2838 13.1932C63.2838 13.1932 62.5598 13.2932 61.7808 13.2932L66.5808 27.4932L67.9168 23.0932C68.4738 21.2552 68.9188 19.9752 68.9188 18.8052L68.9098 18.8152ZM60.2228 20.6552L56.2698 32.1252C57.4398 32.4592 58.7198 32.6822 59.9998 32.6822C61.5598 32.6822 63.0068 32.4042 64.3998 31.9582C64.3438 31.9022 64.3438 31.8582 64.2998 31.7912L60.2228 20.6552ZM71.5828 13.1952L71.6828 14.5312C71.6828 15.8672 71.4598 17.3712 70.6808 19.2642L66.6808 30.9012C70.5788 28.6182 73.2508 24.3862 73.2508 19.4862C73.1948 17.2032 72.5828 15.0862 71.5808 13.1942L71.5828 13.1952ZM59.9998 4.11621C51.5358 4.11621 44.6318 11.0212 44.6318 19.4842C44.6318 27.9472 51.5358 34.8532 59.9998 34.8532C68.4638 34.8532 75.3678 27.9482 75.3678 19.4852C75.3678 11.0222 68.4638 4.11621 59.9998 4.11621ZM59.9998 34.1842C51.9258 34.1842 45.3558 27.6142 45.3558 19.4842C45.3558 11.4002 51.9258 4.84021 59.9998 4.84021C68.0738 4.84021 74.6438 11.4102 74.6438 19.4842C74.6438 27.6142 68.0738 34.1842 59.9998 34.1842Z" fill="#00749A"/>
</svg>
